<?xml version="1.0" standalone="no"?>
<!DOCTYPE svg PUBLIC "-//W3C//DTD SVG 1.1//EN" "http://www.w3.org/Graphics/SVG/1.1/DTD/svg11.dtd" >
<svg>
<metadata>
Created by FontForge 20090622 at Fri Oct 14 11:07:38 2016
 By deploy user
Digitized data (C) 2004 Agfa Monotype Corporation. Neo Sans(TM) is a trademark of Agfa Monotype Corporation and may be registered in certain jurisdictions.  All rights reserved. Neo Sans is designed by Sebastian Lester.
</metadata>
<defs>
<font id="NeoSans-Medium" horiz-adv-x="1290" >
  <font-face 
    font-family="Neo Sans Medium"
    font-weight="400"
    font-stretch="normal"
    units-per-em="2048"
    panose-1="2 11 6 4 2 2 2 2 2 4"
    ascent="1638"
    descent="-410"
    x-height="1155"
    cap-height="1522"
    bbox="-150 -442 2298 2047"
    underline-thickness="102"
    underline-position="-154"
    unicode-range="U+0020-U+F006"
  />
<missing-glyph horiz-adv-x="1024" 
d="M51 0v1536h922v-1536h-922zM179 128h666v1280h-666v-1280z" />
    <glyph glyph-name=".notdef" horiz-adv-x="1024" 
d="M51 0v1536h922v-1536h-922zM179 128h666v1280h-666v-1280z" />
    <glyph glyph-name=".null" horiz-adv-x="0" 
 />
    <glyph glyph-name="nonmarkingreturn" horiz-adv-x="512" 
 />
    <glyph glyph-name="space" unicode=" " horiz-adv-x="512" 
 />
    <glyph glyph-name="exclam" unicode="!" horiz-adv-x="524" 
d="M401 1520l-30 -1041q0 -15 -13 -28t-28 -13h-133q-16 0 -29.5 12.5t-13.5 28.5l-31 1041q0 16 13.5 27.5t29.5 11.5h194q17 0 29 -11t12 -28zM393 35q0 -18 -11.5 -29.5t-27.5 -11.5h-184q-16 0 -27.5 11.5t-11.5 29.5v231q0 17 11 28t28 11h184q17 0 28 -11t11 -28v-231
z" />
    <glyph glyph-name="quotedbl" unicode="&#x22;" horiz-adv-x="860" 
d="M834 1536q0 -1 -5 -16l-139 -424q-11 -39 -39 -39h-164q-18 0 -18 20q0 13 2 19l104 424q10 39 41 39h193q25 0 25 -23zM424 1536q0 -4 -4 -16l-139 -424q-12 -39 -39 -39h-164q-19 0 -19 20q0 13 2 19l105 424q8 39 41 39h192q25 0 25 -23z" />
    <glyph glyph-name="numbersign" unicode="#" horiz-adv-x="1401" 
d="M1298 1077v-4l-10 -92q-2 -19 -13.5 -30t-27.5 -11q-38 0 -83 -0.5t-99 -1.5l-33 -363h174q17 0 29 -10t12 -26v-4l-10 -95q-2 -18 -13.5 -29.5t-27.5 -11.5h-180l-31 -360q-4 -39 -37 -39h-162q-32 0 -32 35v4l30 360h-266l-31 -360q-4 -39 -36 -39h-164
q-14 0 -23.5 11.5t-9.5 23.5v4l31 360h-170q-17 0 -29 11t-12 26v4l10 95q2 17 13 28.5t28 11.5h176l33 363l-166 2q-17 0 -29 10.5t-12 26.5v4l10 92q1 17 12.5 29t28.5 12h170l33 369q1 15 12.5 27t26.5 12h164q14 0 22 -10.5t8 -24.5v-4l-32 -369h266l33 369q4 39 39 39
h161q31 0 31 -35v-4l-33 -369h178q17 0 29 -10.5t12 -26.5zM834 938h-267l-32 -363h266z" />
    <glyph glyph-name="dollar" unicode="$" 
d="M1137 412q0 -94 -36.5 -178.5t-118 -147t-212.5 -88.5v-186q0 -19 -12 -30t-29 -11h-186q-17 0 -29 12t-12 29v174q-129 5 -266 34q-39 9 -39 41v148q0 16 11.5 27.5t27.5 11.5h4q55 -7 181 -14t181 -7q90 0 142 21t74 61.5t22 102.5q0 58 -36 99t-138 101l-271 162
q-134 80 -187.5 170t-53.5 205q0 150 83.5 249.5t264.5 127.5v172q0 15 12 28t29 13h186q17 0 29 -12t12 -29v-164q186 -10 289 -33q16 -3 26.5 -13.5t10.5 -25.5v-151q0 -16 -9.5 -26.5t-25.5 -10.5h-4q-225 20 -404 20q-215 0 -215 -145q0 -51 34.5 -88.5t133.5 -93.5
l246 -138q160 -88 222.5 -187.5t62.5 -229.5z" />
    <glyph glyph-name="percent" unicode="%" horiz-adv-x="1661" 
d="M1581 332q0 -173 -75.5 -258.5t-215.5 -85.5q-139 0 -216 86t-77 258v168q0 114 35 191.5t100 115t158 37.5q140 0 215.5 -85t75.5 -259v-168zM1380 1505q0 -11 -8 -24l-854 -1444q-15 -26 -23.5 -34.5t-23.5 -8.5h-172q-20 0 -20 18q0 14 8 25l854 1444q14 23 24 32
t25 9h172q18 0 18 -17zM666 1022q0 -114 -34 -191.5t-99 -115t-158 -37.5q-141 0 -217 86t-76 258v168q0 172 75.5 257t217.5 85t216.5 -85t74.5 -257v-168zM1407 332v168q0 104 -29 147t-88 43q-58 0 -88.5 -43.5t-30.5 -146.5v-168q0 -104 30.5 -147.5t88.5 -43.5
q59 0 88 43t29 148zM492 1022v168q0 104 -29 147t-88 43q-60 0 -89.5 -42.5t-29.5 -147.5v-168q0 -105 30 -149t89 -44q58 0 87.5 44.5t29.5 148.5z" />
    <glyph glyph-name="ampersand" unicode="&#x26;" horiz-adv-x="1470" 
d="M1407 23q0 -23 -23 -23h-229q-18 0 -35 16l-76 80q-161 -112 -389 -112q-239 0 -390.5 97t-151.5 296v20q0 124 68 212.5t212 176.5l-14 17q-121 140 -158 220.5t-37 158.5v18q0 103 52.5 179t158 117.5t256.5 41.5q103 0 184 -24t138 -67.5t88 -106t31 -140.5v-18
q0 -132 -81.5 -226.5t-222.5 -181.5l-49 -31l308 -327q53 124 53 293v24q0 41 35 41h149q18 0 27.5 -11t9.5 -30v-24q0 -268 -123 -453l201 -213q8 -8 8 -20zM848 1182v18q0 47 -22.5 79.5t-67 49.5t-107.5 17q-105 0 -165 -38t-60 -108v-18q0 -42 8 -72t40.5 -77t94.5 -109
l19 -19l61 37q84 51 123.5 84t57.5 69.5t18 86.5zM903 246l-358 381q-89 -54 -120.5 -103.5t-31.5 -126.5v-20q0 -95 73 -144t189 -49q148 0 248 62z" />
    <glyph glyph-name="quotesingle" unicode="'" horiz-adv-x="451" 
d="M424 1536q0 -4 -4 -16l-139 -424q-12 -39 -39 -39h-164q-19 0 -19 20q0 13 2 19l105 424q8 39 41 39h192q25 0 25 -23z" />
    <glyph glyph-name="parenleft" unicode="(" horiz-adv-x="682" 
d="M621 -379q0 -20 -25 -20h-145q-50 0 -70 28q-69 98 -117 194t-83 210t-51.5 237t-16.5 271v39q0 149 16.5 271.5t51.5 236.5t83 210.5t117 194.5q20 29 70 29h145q25 0 25 -21q0 -13 -11 -33q-98 -181 -159.5 -399t-61.5 -489v-39q0 -269 61 -485.5t160 -401.5
q11 -18 11 -33z" />
    <glyph glyph-name="parenright" unicode=")" horiz-adv-x="682" 
d="M569 541q0 -145 -17.5 -275.5t-51 -238.5t-84 -208t-115.5 -190q-20 -28 -70 -28h-145q-25 0 -25 20q0 15 11 33q62 116 111 247.5t79.5 292.5t30.5 347v39q0 184 -30.5 347t-79.5 294t-111 247q-11 20 -11 33q0 21 25 21h145q50 0 70 -29q65 -90 116 -190t84 -208.5
t50.5 -239t17.5 -275.5v-39z" />
    <glyph glyph-name="asterisk" unicode="*" horiz-adv-x="969" 
d="M891 1194q0 -23 -31 -33l-244 -74l152 -206q10 -15 10 -29q0 -12 -12 -23l-84 -61q-9 -6 -18 -6q-18 0 -31 20l-148 209l-147 -209q-13 -20 -31 -20q-9 0 -18 6l-86 61q-13 11 -13 23q0 13 11 29l153 206l-241 74q-33 10 -33 33q0 6 2 10l33 101q6 20 26 20q9 0 21 -4
l244 -80l-5 256q0 39 31 39h107q30 0 30 -41l-2 -254l242 80q12 4 20 4q21 0 27 -20l33 -101q2 -4 2 -10z" />
    <glyph glyph-name="plus" unicode="+" 
d="M1122 729q0 -16 -11.5 -24.5t-29.5 -8.5h-331v-329q0 -18 -9 -29.5t-24 -11.5h-144q-32 0 -32 41v329h-330q-18 0 -29.5 9t-11.5 24v143q0 33 41 33h330v332q0 41 32 41h144q16 0 24.5 -11.5t8.5 -29.5v-332h331q41 0 41 -33v-143z" />
    <glyph glyph-name="comma" unicode="," horiz-adv-x="530" 
d="M416 287q0 -1 -4 -15l-179 -430q-9 -23 -16 -32t-22 -9h-142q-30 0 -30 29q0 8 2 12l125 430q12 39 40 39h197q13 0 21 -6.5t8 -17.5z" />
    <glyph glyph-name="hyphen" unicode="-" horiz-adv-x="657" 
d="M569 565q0 -16 -11.5 -26.5t-27.5 -10.5h-401q-17 0 -29 11t-12 26v129q0 16 11.5 27.5t29.5 11.5h401q17 0 28 -11t11 -28v-129z" />
    <glyph glyph-name="period" unicode="." horiz-adv-x="530" 
d="M397 41q0 -18 -12 -29.5t-29 -11.5h-182q-15 0 -28 12t-13 29v231q0 16 12.5 27.5t28.5 11.5h182q18 0 29.5 -10.5t11.5 -28.5v-231z" />
    <glyph glyph-name="slash" unicode="/" horiz-adv-x="788" 
d="M758 1491q0 -6 -2 -10l-445 -1438q-13 -43 -39 -43h-206q-13 0 -24 10t-11 23q1 3 1.5 5t0.5 5l446 1438q12 41 39 41h207q13 0 23 -9t10 -22z" />
    <glyph glyph-name="zero" unicode="0" 
d="M1180 684q0 -187 -36 -320.5t-105.5 -218t-167.5 -123t-226 -38.5t-225.5 38.5t-167 123t-105.5 218t-36 320.5v152q0 186 36 322t105.5 219.5t167 122t225.5 38.5t226 -38.5t167.5 -122t105.5 -219.5t36 -322v-152zM895 684v152q0 260 -66.5 365.5t-183.5 105.5
t-183.5 -105.5t-66.5 -365.5v-152q0 -176 32 -280.5t87.5 -146.5t130.5 -42t130.5 42t87.5 146.5t32 280.5z" />
    <glyph glyph-name="one" unicode="1" 
d="M821 41q0 -18 -12 -29.5t-29 -11.5h-200q-17 0 -29 12t-12 29v1194l-242 -82q-10 -4 -25 -4q-22 0 -22 25v198q0 17 14 23l336 118q22 9 47 9h135q17 0 28 -11t11 -28v-1442z" />
    <glyph glyph-name="two" unicode="2" 
d="M1133 1163q0 -123 -62 -215t-194 -182l-185 -123q-100 -67 -163.5 -126t-95.5 -125.5t-32 -149.5v-9h674q19 0 30 -9.5t11 -26.5v-156q0 -18 -12 -29.5t-29 -11.5h-868q-17 0 -29 12t-12 29v201q0 108 41.5 210t111.5 185t158 141l203 135q87 59 123.5 90.5t50.5 66
t14 93.5q0 84 -55 118t-184 34q-138 0 -410 -31h-4q-15 0 -26 12.5t-11 28.5v123q0 27 39 39q77 21 191.5 36t220.5 15q266 0 385 -90.5t119 -284.5z" />
    <glyph glyph-name="three" unicode="3" 
d="M1118 426q0 -111 -39 -195.5t-108 -139t-163 -81t-204 -26.5q-79 0 -141 6t-136 20t-116 25q-39 7 -39 39v127q0 16 10.5 26.5t26.5 10.5h4q276 -29 391 -29q122 0 176 53.5t54 163.5v43q0 95 -40.5 151t-148.5 56h-362q-17 0 -28 11t-11 28v129q0 17 11 28t28 11h362
q108 0 148.5 53t40.5 147v33q0 91 -50 144t-180 53q-102 0 -168 -6t-223 -23h-4q-16 0 -26.5 9.5t-10.5 27.5v127q0 15 11.5 25.5t27.5 13.5q91 23 186.5 37t206.5 14q156 0 270 -42.5t179 -136.5t65 -243v-33q0 -208 -176 -303q55 -29 95 -77.5t60.5 -108.5t20.5 -125v-43z
" />
    <glyph glyph-name="four" unicode="4" 
d="M1212 408q0 -18 -12 -29.5t-29 -11.5h-151v-326q0 -19 -10 -30t-27 -11h-211q-15 0 -26 12t-11 29v326h-614q-17 0 -29 12t-12 29v165q0 37 22 66l631 846q28 37 60 37h186q15 0 28 -13t13 -28v-889h151q17 0 29 -12t12 -29v-143zM737 592v520q0 12 -6 12t-14 -12
l-359 -498q-6 -6 -6 -12q0 -10 17 -10h368z" />
    <glyph glyph-name="five" unicode="5" 
d="M1130 485q0 -119 -32 -210.5t-97 -156.5t-164 -99.5t-233 -34.5q-61 0 -126.5 6t-138.5 18.5t-128 26.5q-18 5 -28.5 15t-10.5 30v121q0 16 10.5 26.5t26.5 10.5h4q224 -29 391 -29q92 0 146 32.5t75 92t21 151.5v11q0 84 -37 134.5t-118 72.5t-208 22h-276q-9 0 -16 10
t-7 17v4l66 729q1 14 13.5 25.5t27.5 11.5h743q18 0 29.5 -10.5t11.5 -28.5v-156q0 -17 -11.5 -28t-29.5 -11h-555l-30 -340h34q133 0 244 -17t203 -64t146 -139t54 -232v-11z" />
    <glyph glyph-name="six" unicode="6" 
d="M1188 492q0 -114 -34.5 -206.5t-103.5 -161t-167.5 -104.5t-223.5 -36q-114 0 -212.5 37.5t-170.5 114t-112.5 198.5t-40.5 282v236q0 245 63 396t188 220.5t316 69.5q190 0 379 -39q47 -10 47 -43v-127q0 -43 -39 -43h-8q-175 27 -379 27q-105 0 -166.5 -35t-90.5 -116
t-32 -222q127 23 285 23q105 0 194.5 -24t159 -77.5t109 -141t39.5 -208.5v-20zM909 492v20q0 244 -280 244q-109 0 -228 -23v-117q0 -239 66 -325t192 -86q118 0 184 64t66 223z" />
    <glyph glyph-name="seven" unicode="7" 
d="M1135 1329q0 -15 -37 -94l-553 -1196q-10 -22 -22.5 -30.5t-33.5 -8.5h-213q-28 0 -28 31q0 6 4 18l588 1225v4q0 10 -11 10h-630q-17 0 -29 11t-12 26v158q0 16 11.5 27.5t29.5 11.5h854q34 0 58 -24t24 -58v-111z" />
    <glyph glyph-name="eight" unicode="8" 
d="M1182 440q0 -118 -42 -205.5t-115 -143t-166.5 -81.5t-203.5 -26h-20q-109 0 -201.5 26t-166 82t-115 143.5t-41.5 204.5v19q0 100 49.5 186.5t136.5 147.5q-178 115 -178 319v8q0 146 68.5 240t183.5 136t264 42h20q149 0 265.5 -42t186 -135.5t69.5 -240.5v-8
q0 -98 -44.5 -178.5t-136.5 -140.5q86 -60 136.5 -146.5t50.5 -187.5v-19zM911 1104v8q0 217 -256 217h-20q-252 0 -252 -217v-8q0 -95 54.5 -153t166.5 -58h84q113 0 168 58t55 153zM905 440v19q0 87 -53.5 156t-163.5 69h-84q-110 0 -163.5 -69t-53.5 -156v-19
q0 -106 64.5 -174.5t183.5 -68.5h20q120 0 185 68t65 175z" />
    <glyph glyph-name="nine" unicode="9" 
d="M1165 670q0 -244 -63 -395.5t-188 -221t-316 -69.5q-202 0 -379 39q-47 10 -47 43v127q0 43 39 43h8q162 -27 379 -27q106 0 167 35t90 116.5t32 221.5q-117 -23 -285 -23q-105 0 -193.5 23.5t-159.5 78t-110 141.5t-39 208v20q0 232 140 370t389 138q156 0 277 -67
t190 -208.5t69 -357.5v-235zM887 788v117q0 239 -66 325.5t-192 86.5q-117 0 -183.5 -65t-66.5 -222v-20q0 -244 280 -244q41 0 114 7t114 15z" />
    <glyph glyph-name="colon" unicode=":" horiz-adv-x="530" 
d="M397 848q0 -17 -11.5 -28t-29.5 -11h-182q-16 0 -28.5 11.5t-12.5 27.5v231q0 17 12 29t29 12h182q19 0 30 -11t11 -30v-231zM397 41q0 -18 -12 -29.5t-29 -11.5h-182q-15 0 -28 12t-13 29v231q0 16 12.5 27.5t28.5 11.5h182q18 0 29.5 -10.5t11.5 -28.5v-231z" />
    <glyph glyph-name="semicolon" unicode=";" horiz-adv-x="530" 
d="M397 848q0 -17 -11.5 -28t-29.5 -11h-182q-16 0 -28.5 11.5t-12.5 27.5v231q0 17 12 29t29 12h182q19 0 30 -11t11 -30v-231zM401 287q0 -1 -4 -15l-178 -430q-9 -23 -16 -32t-23 -9h-141q-13 0 -22 9t-9 20q0 8 2 12l125 430q12 39 41 39h197q28 0 28 -24z" />
    <glyph glyph-name="less" unicode="&#x3c;" 
d="M1053 313q0 -10 -8 -19t-17 -9h-225q-14 0 -23.5 6t-21.5 16l-473 414q-28 27 -37.5 42.5t-9.5 37.5t10.5 39.5t36.5 40.5l473 413q10 10 19.5 16.5t25.5 6.5h225q11 0 18 -9t7 -20q0 -15 -13 -24l-532 -463l532 -463q13 -9 13 -25z" />
    <glyph glyph-name="equal" unicode="=" 
d="M1102 977q0 -33 -41 -33h-830q-41 0 -41 33v143q0 33 41 33h830q41 0 41 -33v-143zM1102 481q0 -32 -41 -32h-830q-41 0 -41 32v144q0 32 41 32h830q41 0 41 -32v-144z" />
    <glyph glyph-name="greater" unicode="&#x3e;" 
d="M1053 801q0 -22 -9.5 -37.5t-37.5 -42.5l-474 -414q-14 -12 -22.5 -17t-22.5 -5h-225q-10 0 -17 9t-7 19q0 16 12 25l532 463l-532 463q-12 9 -12 24q0 11 6.5 20t17.5 9h225q16 0 24.5 -5.5t20.5 -17.5l474 -413q26 -23 36.5 -40t10.5 -40z" />
    <glyph glyph-name="question" unicode="?" horiz-adv-x="895" 
d="M834 1186q0 -70 -27 -139t-119 -177l-125 -147q-10 -13 -32 -38.5t-34.5 -43.5t-20 -41.5t-7.5 -44.5v-78q0 -16 -12 -27.5t-29 -11.5h-170q-17 0 -28 11t-11 28v78q0 97 25 157.5t96 143.5l131 152q33 39 46 80t13 98v33q0 75 -118 75q-108 0 -308 -22h-8q-35 0 -35 45
v127q0 27 6 39t31 18q62 17 145 27t169 10q212 0 317 -71.5t105 -247.5v-33zM477 39q0 -17 -11.5 -28t-29.5 -11h-184q-18 0 -29.5 11.5t-11.5 27.5v231q0 17 11.5 29t29.5 12h184q19 0 30 -11t11 -30v-231z" />
    <glyph glyph-name="at" unicode="@" horiz-adv-x="1581" 
d="M1509 741q0 -182 -53 -306.5t-153 -199t-235.5 -106t-313.5 -31.5q-158 0 -253 75.5t-95 217.5q1 9 1.5 17t0.5 20l18 240q13 168 118.5 253t278.5 85q85 0 271 -31q47 -7 47 -53v-9l-60 -618q101 16 161.5 75.5t85 152.5t24.5 218q0 128 -53.5 235.5t-165 171.5
t-273.5 64q-135 0 -239.5 -33.5t-180.5 -98.5t-120 -160.5t-56 -214.5l-31 -324q-4 -50 -4 -68q0 -188 130.5 -300.5t381.5 -112.5q162 0 297 14h13q14 0 14 -18v-76q0 -24 -27 -27q-152 -20 -297 -20q-197 0 -348.5 64.5t-235 187t-83.5 290.5q0 43 2 66l30 334
q13 144 70.5 263t154 201.5t232 127.5t299.5 45q160 0 282.5 -50t203 -135t121 -195t40.5 -231zM913 813q-60 10 -112 10q-78 0 -113.5 -36.5t-44.5 -127.5l-22 -229q-3 -12 -3 -35q0 -62 35.5 -88t114.5 -26h41q39 0 57 2z" />
    <glyph glyph-name="A" unicode="A" horiz-adv-x="1323" 
d="M1284 35q0 -16 -10.5 -25.5t-26.5 -9.5h-217q-13 0 -24.5 10.5t-14.5 24.5l-94 389h-471l-94 -389q-3 -14 -14.5 -24.5t-24.5 -10.5h-217q-16 0 -26.5 9.5t-10.5 25.5q1 2 1.5 4t0.5 6l336 1284q54 209 285 209q230 0 284 -209l336 -1284q1 -3 1.5 -5t0.5 -5zM842 657
l-148 609q-5 19 -11 25.5t-21 6.5t-21.5 -6.5t-11.5 -25.5l-148 -609h361z" />
    <glyph glyph-name="B" unicode="B" horiz-adv-x="1331" 
d="M1229 426q0 -157 -74.5 -256t-213 -142.5t-335.5 -43.5q-238 0 -354 22q-52 9 -75 33t-23 78v1290q0 54 21.5 79t70.5 32q51 8 142.5 14t199.5 6q147 0 261 -22.5t196 -70.5t128 -128.5t46 -194.5v-41q0 -68 -21 -128.5t-64.5 -107.5t-103.5 -73q199 -84 199 -311v-35z
M942 1077v29q0 72 -34 115t-111.5 62.5t-208.5 19.5q-42 0 -150 -5v-415h260q244 0 244 194zM950 430v27q0 95 -58 156t-194 61h-260v-451q26 0 87 -2t81 -2q191 0 267.5 50t76.5 161z" />
    <glyph glyph-name="C" unicode="C" horiz-adv-x="1153" 
d="M1061 63q0 -31 -45 -47q-35 -9 -128.5 -20.5t-195.5 -11.5q-100 0 -200.5 29t-186.5 99t-139 194t-53 304v301q0 182 52.5 307t138 194.5t185 97.5t203.5 28q68 0 140.5 -6.5t122 -14.5t61.5 -12q45 -14 45 -47v-137q0 -43 -41 -43h-4q-192 16 -320 16q-139 0 -218 -88.5
t-79 -294.5v-301q0 -383 297 -383q116 0 320 17h4q41 0 41 -43v-138z" />
    <glyph glyph-name="D" unicode="D" horiz-adv-x="1366" 
d="M1253 610q0 -153 -42.5 -269t-124 -195.5t-202.5 -120.5t-274 -41q-83 0 -218.5 8t-184.5 16q-53 9 -53 64v1378q0 54 53 63q45 9 167.5 17t235.5 8q153 0 274 -41t202.5 -120.5t124 -195t42.5 -270.5v-301zM971 610v301q0 147 -45.5 232.5t-125.5 120t-190 34.5
q-47 0 -62.5 -0.5t-48.5 -2t-61 -3.5v-1063q129 -6 172 -6q171 0 266 86t95 301z" />
    <glyph glyph-name="E" unicode="E" horiz-adv-x="1180" 
d="M1057 55q0 -38 -41 -43q-24 -3 -57.5 -8.5t-97 -10.5t-103.5 -7t-131 -2q-147 0 -250 34.5t-163 127t-60 257.5v715q0 165 60 258t163 127.5t250 34.5q163 0 238.5 -7.5t150.5 -21.5q24 -3 32.5 -12t8.5 -31v-131q0 -15 -13 -28t-28 -13h-418q-90 0 -126 -38t-36 -138
v-221h555q19 0 30 -11t11 -30v-147q0 -18 -12 -29.5t-29 -11.5h-555v-265q0 -99 36 -137.5t126 -38.5h418q17 0 29 -12t12 -29v-131z" />
    <glyph glyph-name="F" unicode="F" horiz-adv-x="1180" 
d="M1057 1335q0 -15 -13 -28t-28 -13h-418q-90 0 -126 -38t-36 -138v-221h555q19 0 30 -11t11 -30v-147q0 -18 -12 -29.5t-29 -11.5h-555v-627q0 -18 -12 -29.5t-29 -11.5h-200q-17 0 -29 12t-12 29v1077q0 165 60 258t163 127.5t250 34.5q163 0 238.5 -7.5t150.5 -21.5
q24 -3 32.5 -12t8.5 -31v-131z" />
    <glyph glyph-name="G" unicode="G" horiz-adv-x="1300" 
d="M1147 68q0 -40 -39 -50q-53 -11 -115 -18t-158.5 -11.5t-172.5 -4.5q-126 0 -252 61t-211.5 202.5t-85.5 364.5v295q0 228 83 369t210 201.5t262 60.5q85 0 175 -6.5t162.5 -16t102.5 -14.5q39 -9 39 -43v-137q0 -23 -8.5 -33t-32.5 -10h-6q-188 16 -432 16
q-73 0 -134 -37.5t-98 -123.5t-37 -226v-295q0 -135 38.5 -222t98 -125t126.5 -38q108 0 202 6v523q0 16 11.5 28.5t27.5 12.5h203q15 0 28 -13t13 -28v-688z" />
    <glyph glyph-name="H" unicode="H" horiz-adv-x="1458" 
d="M1305 41q0 -17 -13 -29t-28 -12h-203q-17 0 -29 12t-12 29v627h-582v-627q0 -18 -12 -29.5t-29 -11.5h-202q-17 0 -29 12t-12 29v1442q0 16 11.5 27.5t29.5 11.5h202q18 0 29.5 -10.5t11.5 -28.5v-565h582v565q0 16 11.5 27.5t29.5 11.5h203q16 0 28.5 -11.5t12.5 -27.5
v-1442z" />
    <glyph glyph-name="I" unicode="I" horiz-adv-x="592" 
d="M438 41q0 -18 -12 -29.5t-29 -11.5h-202q-17 0 -29 12t-12 29v1442q0 16 11.5 27.5t29.5 11.5h202q18 0 29.5 -10.5t11.5 -28.5v-1442z" />
    <glyph glyph-name="J" unicode="J" horiz-adv-x="592" 
d="M438 -43q0 -160 -79.5 -229.5t-247.5 -69.5q-44 0 -96.5 6t-67.5 10q-21 6 -21 29v145q0 17 11.5 27t29.5 10h135q30 0 41 15t11 57v1526q0 16 11.5 27.5t29.5 11.5h202q18 0 29.5 -10.5t11.5 -28.5v-1526z" />
    <glyph glyph-name="K" unicode="K" horiz-adv-x="1317" 
d="M1260 18q0 -18 -31 -18h-275q-32 0 -47 23l-469 698v-680q0 -18 -12 -29.5t-29 -11.5h-202q-17 0 -29 12t-12 29v1440q0 16 11.5 27.5t29.5 11.5h202q18 0 29.5 -10.5t11.5 -28.5v-652l502 674q11 17 47 17h234q39 0 39 -25q0 -12 -15 -33l-524 -678l528 -741
q11 -18 11 -25z" />
    <glyph glyph-name="L" unicode="L" horiz-adv-x="1057" 
d="M1016 55q0 -21 -9 -30t-32 -13q-47 -11 -160.5 -19.5t-187.5 -8.5q-147 0 -250 34.5t-163 127t-60 257.5v1078q0 15 12 28t29 13h202q17 0 29 -12t12 -29v-1078q0 -100 35.5 -138t124.5 -38h377q17 0 29 -12t12 -29v-131z" />
    <glyph glyph-name="M" unicode="M" horiz-adv-x="1622" 
d="M1468 31q0 -31 -34 -31h-207q-14 0 -23.5 13t-9.5 28v952q0 21 -6 21q-3 0 -10 -13l-197 -391q-19 -35 -66 -35h-206q-47 0 -66 35l-199 391q-7 13 -10 13q-6 0 -6 -21v-952q0 -17 -9.5 -29t-23.5 -12h-207q-34 0 -34 31v1409q0 34 24 58t58 24h167q25 0 45.5 -14
t30.5 -35l309 -627q17 -29 23 -29t23 29l309 627q25 49 76 49h167q36 0 59 -24t23 -58v-1409z" />
    <glyph glyph-name="N" unicode="N" horiz-adv-x="1458" 
d="M1305 82q0 -34 -24 -58t-58 -24h-207q-47 0 -75 13t-50 61l-455 997q-8 16 -18 16t-10 -16v-1030q0 -18 -11.5 -29.5t-27.5 -11.5h-174q-17 0 -29 12t-12 29v1399q0 34 24 58t58 24h221q34 0 53.5 -14t36.5 -52l477 -1053q6 -16 16 -16q11 0 11 19v1077q0 17 11 28t28 11
h176q17 0 28 -11t11 -28v-1401z" />
    <glyph glyph-name="O" unicode="O" horiz-adv-x="1393" 
d="M1280 623q0 -218 -74 -361.5t-206 -210.5t-304 -67q-173 0 -304.5 67.5t-205 211t-73.5 360.5v276q0 217 73.5 360.5t205 211t304.5 67.5q172 0 304 -67t206 -210.5t74 -361.5v-276zM993 623v276q0 202 -72.5 296.5t-224.5 94.5q-151 0 -224 -94.5t-73 -296.5v-276
q0 -201 73 -296.5t224 -95.5q152 0 224.5 95.5t72.5 296.5z" />
    <glyph glyph-name="P" unicode="P" horiz-adv-x="1282" 
d="M1210 1047q0 -173 -78 -280t-211 -153.5t-300 -46.5q-17 0 -72 2.5t-72 3.5t-39 2v-534q0 -18 -11.5 -29.5t-27.5 -11.5h-204q-17 0 -29 12t-12 29v1409q0 51 65 61q170 27 402 27q124 0 230 -24t186.5 -78.5t126.5 -147.5t46 -223v-18zM928 1047v18q0 127 -74.5 182.5
t-232.5 55.5q-40 0 -102 -3.5t-81 -5.5v-487q99 -6 183 -6q110 0 177 26.5t98.5 80.5t31.5 139z" />
    <glyph glyph-name="Q" unicode="Q" horiz-adv-x="1413" 
d="M1290 623q0 -142 -31.5 -252.5t-91 -188t-141.5 -124t-184 -64.5v-43q0 -66 61 -66h199q21 0 35 -8.5t14 -23.5v-127q0 -31 -45 -43q-86 -23 -203 -23q-100 0 -174.5 29t-116 93.5t-41.5 164.5v47q-103 19 -183.5 64.5t-140.5 124t-92 190t-32 250.5v276q0 218 74 361.5
t206 210.5t304 67q173 0 304.5 -67.5t205 -210.5t73.5 -361v-276zM1004 623v276q0 202 -73 296.5t-224 94.5q-152 0 -224.5 -94.5t-72.5 -296.5v-276q0 -201 72.5 -296.5t224.5 -95.5q151 0 224 95t73 297z" />
    <glyph glyph-name="R" unicode="R" horiz-adv-x="1337" 
d="M1260 25q0 -25 -25 -25h-250q-21 0 -41 41l-295 547h-28q-17 0 -72 2.5t-72 3.5t-39 2v-555q0 -18 -11.5 -29.5t-27.5 -11.5h-204q-17 0 -29 12t-12 29v1409q0 51 65 61q170 27 402 27q263 0 426 -108.5t163 -354.5v-18q0 -157 -72.5 -262t-203.5 -156l321 -598
q5 -6 5 -16zM928 1057v18q0 114 -75.5 166.5t-231.5 52.5q-109 0 -183 -8v-461q99 -6 183 -6q110 0 176 22.5t98.5 75t32.5 140.5z" />
    <glyph glyph-name="S" unicode="S" horiz-adv-x="1167" 
d="M1075 412q0 -179 -127.5 -303.5t-410.5 -124.5q-203 0 -363 36q-39 10 -39 41v148q0 16 11.5 27.5t27.5 11.5h4q56 -6 125 -10.5t132 -7.5t106 -3q130 0 183.5 45.5t53.5 139.5q0 58 -36 99t-138 101l-270 162q-92 56 -146 114.5t-75 122.5t-21 138q0 120 50.5 205.5
t165 134.5t296.5 49q98 0 220.5 -12t172.5 -25q37 -7 37 -39v-151q0 -17 -9.5 -27t-25.5 -10h-4q-225 20 -403 20q-215 0 -215 -145q0 -51 34.5 -88.5t133.5 -93.5l246 -138q161 -88 222.5 -187.5t61.5 -229.5z" />
    <glyph glyph-name="T" unicode="T" horiz-adv-x="1186" 
d="M1135 1321q0 -17 -12.5 -27t-28.5 -10h-359v-1243q0 -18 -12 -29.5t-29 -11.5h-202q-17 0 -29 12t-12 29v1243h-359q-16 0 -28.5 10t-12.5 27v162q0 16 12.5 27.5t28.5 11.5h1002q16 0 28.5 -11.5t12.5 -27.5v-162z" />
    <glyph glyph-name="U" unicode="U" horiz-adv-x="1413" 
d="M1270 563q0 -161 -40 -272t-114.5 -178t-177.5 -98t-231 -31t-231.5 31t-177.5 98.5t-114.5 179.5t-40.5 270v920q0 16 12.5 27.5t28.5 11.5h203q18 0 29.5 -10.5t11.5 -28.5v-920q0 -123 24.5 -197t85 -110.5t169.5 -36.5t169 36.5t84.5 110.5t24.5 197v920
q0 16 12.5 27.5t28.5 11.5h203q16 0 28.5 -11.5t12.5 -27.5v-920z" />
    <glyph glyph-name="V" unicode="V" horiz-adv-x="1343" 
d="M1294 1487q0 -3 -0.5 -5t-1.5 -5l-336 -1284q-54 -209 -284 -209q-231 0 -285 209l-336 1284q0 4 -0.5 6t-1.5 4q0 16 11.5 25.5t25.5 9.5h217q31 0 39 -35l297 -1231q5 -20 11.5 -26.5t21.5 -6.5t21.5 7t11.5 26l296 1231q10 35 39 35h217q16 0 26.5 -9.5t10.5 -25.5z
" />
    <glyph glyph-name="W" unicode="W" horiz-adv-x="1765" 
d="M1716 1493v-6l-192 -1337q-13 -92 -57 -129t-128 -37h-110q-69 0 -109 38t-61 125l-162 676q-5 23 -12 23q-10 0 -15 -23l-161 -676q-21 -87 -61 -125t-109 -38h-111q-83 0 -127 37t-57 129l-193 1337v6q0 13 10.5 21t24.5 8h217q11 0 22.5 -11t12.5 -26l147 -1223
q3 -31 11 -31q5 0 12 31l176 719q23 92 129 92h141q106 0 129 -92l177 -719q5 -21 6 -26t6 -5q7 0 10 31l148 1223q1 15 11.5 26t22.5 11h217q14 0 24.5 -8t10.5 -21z" />
    <glyph glyph-name="X" unicode="X" horiz-adv-x="1331" 
d="M1284 25q0 -25 -33 -25h-241q-26 0 -54 41l-301 483l-282 -483q-23 -41 -54 -41h-223q-33 0 -33 27q0 4 5 14l436 727l-449 715q-4 8 -4 12q0 11 10 19t23 8h242q27 0 53 -39l299 -477l276 477q24 39 54 39h223q13 0 23 -8t10 -19q0 -4 -4 -12l-431 -721l451 -721
q4 -6 4 -16z" />
    <glyph glyph-name="Y" unicode="Y" horiz-adv-x="1260" 
d="M1208 1491q0 -4 -4 -16l-311 -711q-52 -119 -125 -150v-573q0 -18 -11.5 -29.5t-27.5 -11.5h-205q-16 0 -27.5 11.5t-11.5 29.5v573q-73 31 -125 150l-309 711q-4 12 -4 16q0 14 8.5 22.5t24.5 8.5h227q27 0 39 -33l246 -610q16 -41 35 -41t37 41l245 610q12 33 39 33
h226q15 0 24.5 -8.5t9.5 -22.5z" />
    <glyph glyph-name="Z" unicode="Z" horiz-adv-x="1204" 
d="M1122 41q0 -18 -12 -29.5t-29 -11.5h-895q-104 0 -104 76v112q0 39 27 78l649 973q6 9 6 18q0 17 -21 17h-569q-16 0 -27.5 9.5t-11.5 27.5v172q0 17 11 28t28 11h825q48 0 78.5 -20t30.5 -58v-119q0 -41 -29 -84l-639 -956q-8 -12 -8 -23q0 -12 19 -12h630q19 0 30 -9.5
t11 -27.5v-172z" />
    <glyph glyph-name="bracketleft" unicode="[" horiz-adv-x="729" 
d="M672 -365q0 -32 -39 -32h-455q-15 0 -25 12t-10 27v1841q0 15 10 27t25 12h455q18 0 28.5 -9t10.5 -24v-150q0 -34 -39 -34h-215v-1485h215q16 0 27.5 -9.5t11.5 -25.5v-150z" />
    <glyph glyph-name="backslash" unicode="\" horiz-adv-x="788" 
d="M760 16q0 -13 -10.5 -22.5t-24.5 -9.5h-207q-25 0 -37 43l-448 1454q0 4 -0.5 6t-1.5 4q0 13 11 22t24 9h204q29 0 41 -41l447 -1454q1 -3 1.5 -5t0.5 -6z" />
    <glyph glyph-name="bracketright" unicode="]" horiz-adv-x="729" 
d="M586 -358q0 -15 -10 -27t-25 -12h-455q-39 0 -39 32v150q0 16 11.5 25.5t27.5 9.5h215v1485h-215q-39 0 -39 32v150q0 16 11.5 25.5t27.5 9.5h455q15 0 25 -12t10 -27v-1841z" />
    <glyph glyph-name="asciicircum" unicode="^" 
d="M1122 1174q0 -19 -24 -19h-209q-21 0 -30 5.5t-32 27.5l-182 209l-182 -209q-18 -20 -29.5 -26.5t-32.5 -6.5h-208q-25 0 -25 19q0 11 10 24l232 303q17 23 29 30t36 7h340q24 0 37 -7.5t29 -29.5l231 -303q10 -13 10 -24z" />
    <glyph glyph-name="underscore" unicode="_" horiz-adv-x="1071" 
d="M1135 -201q0 -32 -41 -32h-1117q-40 0 -40 32v80q0 33 40 33h1117q41 0 41 -33v-80z" />
    <glyph glyph-name="grave" unicode="`" horiz-adv-x="850" 
d="M559 1298q0 -14 -18 -14h-176q-16 0 -21.5 3t-26.5 24l-243 254q-8 8 -8 16q0 14 22 14h217q19 0 28 -5.5t25 -24.5l193 -246q8 -8 8 -21z" />
    <glyph glyph-name="a" unicode="a" horiz-adv-x="1122" 
d="M989 41q0 -18 -12 -29.5t-29 -11.5h-174q-15 0 -28 12t-13 29v33q-146 -90 -289 -90q-152 0 -253 76.5t-101 265.5v8q0 117 51 196t161.5 118.5t287.5 39.5h129v90q0 96 -42.5 131t-137.5 35q-200 0 -334 -16h-10q-37 0 -37 35v131q0 33 39 43q164 32 342 32
q146 0 246 -43t152 -131.5t52 -216.5v-737zM719 256v252h-129q-88 0 -139.5 -19t-70 -57.5t-18.5 -97.5v-8q0 -72 34.5 -99.5t113.5 -27.5q105 0 209 57z" />
    <glyph glyph-name="b" unicode="b" horiz-adv-x="1182" 
d="M1090 498q0 -160 -54 -276t-163.5 -177t-272.5 -61q-208 0 -412 53q-24 6 -35 12.5t-15.5 16.5t-4.5 26v1426q0 15 13 28t28 13h188q17 0 29 -12t12 -29v-363q106 14 197 14q163 0 272.5 -61t163.5 -177t54 -276v-157zM819 498v157q0 140 -47.5 216.5t-171.5 76.5
q-95 0 -197 -14v-715q68 -14 197 -14q124 0 171.5 77t47.5 216z" />
    <glyph glyph-name="c" unicode="c" horiz-adv-x="958" 
d="M866 63q0 -24 -9 -35.5t-34 -17.5q-102 -26 -264 -26q-134 0 -240.5 55.5t-166.5 167.5t-60 274v191q0 162 60 274t166.5 167.5t240.5 55.5q91 0 155.5 -7.5t108.5 -18.5q25 -6 34 -17.5t9 -35.5v-134q0 -30 -37 -30h-6q-115 14 -264 14q-84 0 -140.5 -60.5t-56.5 -207.5
v-191q0 -145 56.5 -206.5t140.5 -61.5q93 0 153 4t111 10h6q37 0 37 -30v-134z" />
    <glyph glyph-name="d" unicode="d" horiz-adv-x="1182" 
d="M1049 92q0 -24 -10.5 -35t-45.5 -20q-103 -26 -208 -39.5t-203 -13.5q-241 0 -365.5 135t-124.5 379v157q0 160 54 276t163.5 177t272.5 61q90 0 196 -14v363q0 15 13 28t28 13h189q15 0 28 -13t13 -28v-1426zM778 219v715q-100 14 -196 14q-124 0 -172 -76.5t-48 -216.5
v-157q0 -139 48.5 -216t171.5 -77q128 0 196 14z" />
    <glyph glyph-name="e" unicode="e" horiz-adv-x="1176" 
d="M1077 535q0 -52 -41 -52h-667v-6q0 -107 56 -183.5t189 -76.5q176 0 377 21h6q37 0 37 -31v-135q0 -27 -8.5 -37.5t-34.5 -16.5q-97 -18 -186 -26t-211 -8q-84 0 -169.5 26t-160.5 84.5t-120.5 159t-45.5 244.5v151q0 241 129.5 380.5t362.5 139.5q153 0 263.5 -66
t167 -183t56.5 -271v-114zM805 676v8q0 77 -27 134.5t-75.5 87.5t-112.5 30q-98 0 -158.5 -66.5t-60.5 -185.5v-8h434z" />
    <glyph glyph-name="f" unicode="f" horiz-adv-x="809" 
d="M768 1413q0 -35 -31 -35h-92q-52 0 -76 -9.5t-34.5 -36.5t-10.5 -77v-100h197q17 0 29 -12t12 -29v-123q0 -16 -12.5 -27.5t-28.5 -11.5h-197v-909q0 -18 -11.5 -30.5t-29.5 -12.5h-186q-17 0 -30 13t-13 30v909l-182 29q-41 7 -41 39v94q0 17 11.5 29t29.5 12h182v100
q0 127 43 199.5t119.5 100.5t191.5 28q45 0 123 -16q37 -9 37 -33v-121z" />
    <glyph glyph-name="g" unicode="g" horiz-adv-x="1196" 
d="M1139 1014q0 -22 -7 -29.5t-26 -15.5l-68 -27q52 -74 52 -164v-14q0 -125 -56.5 -209t-165 -124t-264.5 -40q-133 0 -223 35q-35 -22 -35 -53q0 -29 17 -44.5t53 -23.5l241 -57q175 -41 263.5 -72.5t142 -91.5t53.5 -164v-14q0 -160 -122 -241t-380 -81q-163 0 -277 40
t-172.5 116.5t-58.5 183.5v19q0 63 28.5 123t76.5 102q-25 18 -47.5 50t-33.5 67.5t-11 70.5v2q0 109 82 166q-45 47 -64.5 105t-19.5 135v14q0 168 118 272.5t369 104.5h479q24 0 40 -16t16 -39v-86zM823 758v16q0 83 -48 128.5t-171 45.5q-221 0 -221 -174v-16
q0 -70 47 -116t174 -46q122 0 170.5 40t48.5 122zM846 -94v14q0 25 -17 42.5t-67.5 36t-157.5 44.5l-182 43q-28 -39 -39.5 -66t-11.5 -77v-19q0 -68 53.5 -101.5t189.5 -33.5q139 0 185.5 28t46.5 89z" />
    <glyph glyph-name="h" unicode="h" horiz-adv-x="1212" 
d="M1079 43q0 -18 -11.5 -30.5t-29.5 -12.5h-188q-18 0 -29.5 13.5t-11.5 29.5v674q0 94 -13.5 139.5t-49.5 64.5t-105 19q-104 0 -238 -70v-827q0 -18 -11.5 -30.5t-29.5 -12.5h-188q-16 0 -28.5 13.5t-12.5 29.5v1475q0 15 13 28t28 13h188q17 0 29 -12t12 -29v-424
q60 37 132.5 56t177.5 19q366 0 366 -452v-674z" />
    <glyph glyph-name="i" unicode="i" horiz-adv-x="549" 
d="M416 1350q0 -17 -13 -29t-28 -12h-199q-16 0 -29.5 11.5t-13.5 29.5v180q0 16 13.5 28.5t29.5 12.5h199q15 0 28 -13t13 -28v-180zM410 43q0 -16 -12.5 -29.5t-28.5 -13.5h-189q-16 0 -28.5 13.5t-12.5 29.5v1071q0 17 12 29t29 12h189q17 0 29 -12t12 -29v-1071z" />
    <glyph glyph-name="j" unicode="j" horiz-adv-x="549" 
d="M416 1350q0 -18 -13.5 -29.5t-29.5 -11.5h-197q-15 0 -28 12t-13 29v180q0 15 13 28t28 13h197q16 0 29.5 -12.5t13.5 -28.5v-180zM410 -86q0 -179 -76 -251.5t-228 -72.5q-64 0 -135 13q-39 6 -39 37v133q0 32 43 32h93q33 0 48 10t19 33.5t4 65.5v1200q0 17 12 29
t29 12h189q17 0 29 -12t12 -29v-1200z" />
    <glyph glyph-name="k" unicode="k" horiz-adv-x="1124" 
d="M1063 25q0 -11 -8 -18t-21 -7h-250q-15 0 -32 12.5t-27 28.5l-322 467v-465q0 -18 -11.5 -30.5t-29.5 -12.5h-188q-16 0 -28.5 13.5t-12.5 29.5v1475q0 15 13 28t28 13h188q17 0 29 -12t12 -29v-854l351 466q18 25 47 25h229q31 0 31 -22q0 -10 -8 -21l-412 -506
l416 -565q6 -9 6 -16z" />
    <glyph glyph-name="l" unicode="l" horiz-adv-x="557" 
d="M414 43q0 -17 -11 -30t-28 -13h-191q-16 0 -28.5 13.5t-12.5 29.5v1475q0 15 13 28t28 13h191q16 0 27.5 -12.5t11.5 -28.5v-1475z" />
    <glyph glyph-name="m" unicode="m" horiz-adv-x="1737" 
d="M1604 43q0 -16 -12.5 -29.5t-28.5 -13.5h-189q-16 0 -28.5 13.5t-12.5 29.5v696q0 79 -13 122t-45 60t-89 17q-94 0 -191 -51q9 -67 9 -148v-696q0 -16 -12.5 -29.5t-28.5 -13.5h-189q-16 0 -28.5 13.5t-12.5 29.5v696q0 81 -11.5 123t-41.5 59t-88 17q-62 0 -189 -68
v-827q0 -18 -11.5 -30.5t-29.5 -12.5h-188q-16 0 -28.5 13.5t-12.5 29.5v1071q0 17 12 29t29 12h178q19 0 30 -11t11 -30v-43q71 46 141.5 72t151.5 26q165 0 240 -92q62 34 109 52.5t104.5 29t124.5 10.5q194 0 267 -112.5t73 -317.5v-696z" />
    <glyph glyph-name="n" unicode="n" horiz-adv-x="1212" 
d="M1079 43q0 -18 -11.5 -30.5t-29.5 -12.5h-188q-18 0 -29.5 13.5t-11.5 29.5v668q0 96 -11 142.5t-48 66.5t-115 20q-91 0 -232 -74v-823q0 -18 -11.5 -30.5t-29.5 -12.5h-188q-16 0 -28.5 13.5t-12.5 29.5v1071q0 17 12 29t29 12h178q19 0 30 -11t11 -30v-43
q91 58 159.5 78t172.5 20q205 0 279.5 -118.5t74.5 -339.5v-668z" />
    <glyph glyph-name="o" unicode="o" horiz-adv-x="1176" 
d="M1077 494q0 -146 -56 -263t-167 -182t-266 -65q-157 0 -267 65t-166.5 182t-56.5 263v165q0 146 56.5 263t166.5 182t267 65q155 0 266 -65t167 -182t56 -263v-165zM807 494v165q0 128 -56.5 202.5t-162.5 74.5q-107 0 -163 -74.5t-56 -202.5v-165q0 -127 56.5 -202
t162.5 -75q105 0 162 74.5t57 202.5z" />
    <glyph glyph-name="p" unicode="p" horiz-adv-x="1182" 
d="M1090 498q0 -160 -54 -276t-163.5 -177t-272.5 -61q-91 0 -197 14v-363q0 -17 -12 -29t-29 -12h-188q-15 0 -28 13t-13 28v1426q0 24 10.5 35t44.5 20q204 53 412 53q163 0 272.5 -61t163.5 -177t54 -276v-157zM819 498v157q0 140 -47.5 216.5t-171.5 76.5
q-64 0 -112.5 -3.5t-84.5 -10.5v-715q102 -14 197 -14q124 0 171.5 77t47.5 216z" />
    <glyph glyph-name="q" unicode="q" horiz-adv-x="1182" 
d="M1049 -365q0 -15 -13 -28t-28 -13h-189q-15 0 -28 13t-13 28v363q-106 -14 -196 -14q-241 0 -365.5 135t-124.5 379v157q0 160 54 276t163.5 177t272.5 61q66 0 136.5 -6.5t145 -19.5t129.5 -27q35 -9 45.5 -20t10.5 -35v-1426zM778 219v715q-34 7 -83 10.5t-113 3.5
q-124 0 -172 -76.5t-48 -216.5v-157q0 -139 48.5 -216t171.5 -77q96 0 196 14z" />
    <glyph glyph-name="r" unicode="r" horiz-adv-x="768" 
d="M727 981q0 -18 -12 -29.5t-29 -11.5q-142 0 -283 -74v-823q0 -18 -11.5 -30.5t-29.5 -12.5h-188q-16 0 -28.5 13.5t-12.5 29.5v1071q0 17 12 29t29 12h178q19 0 30 -11t11 -30v-43q127 98 293 98q19 0 30 -11t11 -30v-147z" />
    <glyph glyph-name="s" unicode="s" horiz-adv-x="1001" 
d="M909 303q0 -90 -45 -162.5t-136.5 -114.5t-219.5 -42q-69 0 -175 9.5t-192 31.5q-39 10 -39 47v123q0 12 10 22t25 10h8q182 -22 344 -22q86 0 116 25.5t30 72.5q0 30 -21 53t-69 52l-281 172q-79 49 -125.5 122t-46.5 160q0 307 389 307q120 0 198.5 -10.5t166.5 -30.5
q37 -9 37 -47v-118q0 -39 -33 -39h-8q-174 24 -338 24q-75 0 -108.5 -19t-33.5 -67q0 -23 15.5 -37t66.5 -47l269 -164q82 -50 125 -101t57 -102t14 -108z" />
    <glyph glyph-name="t" unicode="t" horiz-adv-x="829" 
d="M778 35q0 -31 -39 -37q-20 -3 -68.5 -8.5t-70.5 -5.5q-121 0 -190.5 24.5t-102.5 94.5t-33 206v643l-192 29q-41 7 -41 41v92q0 17 11.5 29t29.5 12h192v168q0 34 41 41l191 33h8q33 0 33 -31v-211h184q19 0 30 -11t11 -30v-121q0 -17 -12 -29t-29 -12h-184v-643
q0 -52 4.5 -75.5t20 -31t55.5 -7.5h108q43 0 43 -31v-129z" />
    <glyph glyph-name="u" unicode="u" horiz-adv-x="1212" 
d="M1079 41q0 -18 -12 -29.5t-29 -11.5h-188q-17 0 -29 12t-12 29v47q-81 -53 -154 -77.5t-168 -24.5q-166 0 -251 86q-56 56 -79.5 148.5t-23.5 223.5v668q0 16 12.5 29.5t28.5 13.5h188q18 0 29.5 -12.5t11.5 -30.5v-668q0 -82 10.5 -126t37.5 -70q41 -37 127 -37
q48 0 105.5 23t125.5 59v819q0 16 11.5 29.5t29.5 13.5h188q18 0 29.5 -12.5t11.5 -30.5v-1071z" />
    <glyph glyph-name="v" unicode="v" horiz-adv-x="1128" 
d="M1079 1122q0 -10 -2 -14l-258 -932q-52 -192 -256 -192q-202 0 -254 192l-258 932q-2 4 -2 14q0 13 9 23t24 10h205q32 0 41 -41l196 -858q10 -51 39 -51t39 51l197 858q4 20 15.5 30.5t27.5 10.5h205q14 0 23 -9t9 -24z" />
    <glyph glyph-name="w" unicode="w" horiz-adv-x="1677" 
d="M1624 1114v-6l-186 -942q-13 -67 -32 -102.5t-53.5 -52.5t-97.5 -17h-55q-82 0 -128 39.5t-66 120.5l-162 626q-3 11 -6 11t-7 -11l-161 -626q-20 -81 -66 -120.5t-129 -39.5h-55q-63 0 -97.5 17t-53 53t-31.5 102l-187 942v6q0 17 12 29t29 12h199q16 0 25.5 -10.5
t11.5 -26.5l129 -866q3 -29 10 -29q8 0 14 29l170 688q16 58 38 73t77 15h143q56 0 78.5 -15t36.5 -73l170 -688q6 -29 14 -29t11 29l129 866q1 15 11.5 26t24.5 11h199q19 0 30 -11t11 -30z" />
    <glyph glyph-name="x" unicode="x" horiz-adv-x="1141" 
d="M1100 27q0 -11 -9 -19t-22 -8h-233q-17 0 -26.5 6.5t-29.5 34.5l-233 360l-221 -360q-16 -25 -27.5 -33t-28.5 -8h-211q-24 0 -24 23q0 9 6 18l367 555l-347 518q-4 8 -4 12q0 12 9.5 20.5t23.5 8.5h234q17 0 27.5 -8.5t25.5 -32.5l207 -319l192 319q17 27 27 34t28 7
h211q25 0 25 -22q0 -10 -6 -19l-338 -516l373 -557q4 -8 4 -14z" />
    <glyph glyph-name="y" unicode="y" horiz-adv-x="1147" 
d="M1096 1120q0 -8 -2 -12l-342 -1196q-33 -118 -78 -187t-124.5 -102t-215.5 -33q-52 0 -115.5 8t-101.5 19q-43 11 -43 35v131q0 15 12 26t29 11h4q27 -1 114.5 -7t116.5 -6q45 0 75.5 11t51 39.5t35.5 81.5l16 61h-30q-57 0 -103 33.5t-76 136.5l-268 938q-2 6 -2 14
q0 33 39 33h207q14 0 25 -11t14 -26l207 -833q10 -45 28 -45h2h11h6l221 880q7 35 41 35h209q14 0 25.5 -10.5t11.5 -24.5z" />
    <glyph glyph-name="z" unicode="z" horiz-adv-x="1004" 
d="M922 41q0 -17 -13 -29t-28 -12h-717q-34 0 -58 24t-24 58v88q0 30 27 66l495 682q6 9 6 12q0 6 -12 6h-463q-15 0 -26 8.5t-11 24.5v145q0 17 12 29t29 12h697q33 0 57.5 -24.5t24.5 -59.5v-117q0 -32 -11 -47l-477 -653l-4 -6q0 -8 12 -8h447q16 0 26.5 -9t10.5 -24
v-166z" />
    <glyph glyph-name="braceleft" unicode="{" horiz-adv-x="743" 
d="M723 -371q0 -16 -11.5 -25.5t-27.5 -9.5h-115q-118 0 -188 16.5t-111.5 56.5t-57 103t-15.5 167v311q0 80 -29.5 133.5t-91.5 95.5v164q64 44 91.5 97t27.5 132v310q0 137 30 209t109.5 102.5t232.5 30.5h117q16 0 27.5 -9.5t11.5 -25.5v-150q0 -32 -39 -32h-96
q-54 0 -78.5 -11.5t-32.5 -38.5t-8 -75v-310q0 -109 -37 -184.5t-123 -126.5q86 -51 124 -126.5t38 -184.5v-311q0 -50 8 -76.5t32.5 -37.5t78.5 -11h94q18 0 28.5 -9t10.5 -24v-150z" />
    <glyph glyph-name="bar" unicode="|" horiz-adv-x="561" 
d="M418 -356q0 -18 -11.5 -29.5t-27.5 -11.5h-195q-15 0 -28 12t-13 29v1837q0 15 13 28t28 13h195q16 0 27.5 -12.5t11.5 -28.5v-1837z" />
    <glyph glyph-name="braceright" unicode="}" horiz-adv-x="743" 
d="M668 477q-62 -42 -91.5 -95.5t-29.5 -133.5v-311q0 -104 -16 -168t-56.5 -103t-111 -55.5t-189.5 -16.5h-115q-16 0 -27.5 9.5t-11.5 25.5v150q0 15 11 24t28 9h95q52 0 77 11t33 37.5t8 76.5v311q0 109 37.5 184t124.5 127q-84 51 -122 126.5t-38 184.5v310
q0 48 -8 75.5t-33 38.5t-77 11h-97q-39 0 -39 32v150q0 16 11.5 25.5t27.5 9.5h117q153 0 233.5 -30.5t110 -102.5t29.5 -209v-310q0 -79 27.5 -132t91.5 -97v-164z" />
    <glyph glyph-name="asciitilde" unicode="~" 
d="M1130 973q0 -152 -65 -218.5t-199 -66.5q-38 0 -79.5 10t-73.5 31l-181 125q-38 27 -79 27q-74 0 -74 -86v-54q0 -41 -35 -41h-145q-37 0 -37 41v54q0 150 66 218t200 68q91 0 152 -43l180 -123q39 -26 82 -26q37 0 54 18t17 66v53q0 41 35 41h144q38 0 38 -41v-53z" />
    <glyph glyph-name="Adieresis" unicode="&#xc4;" horiz-adv-x="1323" 
d="M1284 35q0 -16 -10.5 -25.5t-26.5 -9.5h-217q-13 0 -24.5 10.5t-14.5 24.5l-94 389h-471l-94 -389q-3 -14 -14.5 -24.5t-24.5 -10.5h-217q-16 0 -26.5 9.5t-10.5 25.5q1 2 1.5 4t0.5 6l336 1284q54 209 285 209q230 0 284 -209l336 -1284q1 -3 1.5 -5t0.5 -5zM842 657
l-148 609q-5 19 -11 25.5t-21 6.5t-21.5 -6.5t-11.5 -25.5l-148 -609h361zM981 1688q0 -18 -13.5 -29.5t-29.5 -11.5h-148q-16 0 -29.5 11.5t-13.5 29.5v180q0 16 13.5 28.5t29.5 12.5h148q16 0 29.5 -12.5t13.5 -28.5v-180zM571 1688q0 -18 -13.5 -29.5t-29.5 -11.5h-148
q-16 0 -29.5 11.5t-13.5 29.5v180q0 16 13.5 28.5t29.5 12.5h148q16 0 29.5 -12.5t13.5 -28.5v-180z" />
    <glyph glyph-name="Aring" unicode="&#xc5;" horiz-adv-x="1323" 
d="M1284 35q0 -16 -10.5 -25.5t-26.5 -9.5h-217q-13 0 -24.5 10.5t-14.5 24.5l-94 389h-471l-94 -389q-3 -14 -14.5 -24.5t-24.5 -10.5h-217q-16 0 -26.5 9.5t-10.5 25.5q1 2 1.5 4t0.5 6l336 1284q54 209 285 209q230 0 284 -209l336 -1284q1 -3 1.5 -5t0.5 -5zM842 657
l-148 609q-5 19 -11 25.5t-21 6.5t-21.5 -6.5t-11.5 -25.5l-148 -609h361zM884 1820q0 -61 -30 -113t-82 -82t-113 -30q-60 0 -113 30t-83.5 81.5t-30.5 113.5q0 93 66 160t161 67t160 -66.5t65 -160.5zM757 1822q0 41 -29.5 68.5t-68.5 27.5t-66.5 -27.5t-27.5 -68.5
q0 -40 27 -69t67 -29t69 29t29 69z" />
    <glyph glyph-name="Ccedilla" unicode="&#xc7;" horiz-adv-x="1153" 
d="M1061 63q0 -31 -45 -47q-35 -9 -128.5 -20.5t-195.5 -11.5q-100 0 -200.5 29t-186.5 99t-139 194t-53 304v301q0 182 52.5 307t138 194.5t185 97.5t203.5 28q68 0 140.5 -6.5t122 -14.5t61.5 -12q45 -14 45 -47v-137q0 -43 -39 -43h-6q-192 16 -320 16q-139 0 -218 -88.5
t-79 -294.5v-301q0 -383 297 -383q116 0 320 17h6q39 0 39 -43v-138zM860 -84q0 -6 -10 -16l-244 -252l-12.5 -14.5t-14.5 -11t-20 -3.5h-176q-18 0 -18 14q0 9 8 21l192 246q26 30 53 30h218q24 0 24 -14z" />
    <glyph glyph-name="Eacute" unicode="&#xc9;" horiz-adv-x="1180" 
d="M1057 55q0 -38 -41 -43q-24 -3 -57.5 -8.5t-97 -10.5t-103.5 -7t-131 -2q-147 0 -250 34.5t-163 127t-60 257.5v715q0 165 60 258t163 127.5t250 34.5q163 0 238.5 -7.5t150.5 -21.5q24 -3 32.5 -12t8.5 -31v-131q0 -15 -13 -28t-28 -13h-418q-90 0 -126 -38t-36 -138
v-221h555q19 0 30 -11t11 -30v-147q0 -18 -12 -29.5t-29 -11.5h-555v-265q0 -99 36 -137.5t126 -38.5h418q17 0 29 -12t12 -29v-131zM929 1923q0 -8 -8 -16l-241 -254q-13 -14 -22.5 -20.5t-27.5 -6.5h-176q-18 0 -18 14q0 13 8 21l195 246q15 19 24.5 24.5t28.5 5.5h215
q22 0 22 -14z" />
    <glyph glyph-name="Ntilde" unicode="&#xd1;" horiz-adv-x="1458" 
d="M1305 82q0 -34 -24 -58t-58 -24h-207q-47 0 -75 13t-50 61l-455 997q-8 16 -18 16t-10 -16v-1030q0 -18 -11.5 -29.5t-27.5 -11.5h-174q-17 0 -29 12t-12 29v1399q0 34 24 58t58 24h221q34 0 53.5 -14t36.5 -52l477 -1053q6 -16 16 -16q11 0 11 19v1077q0 17 11 28t28 11
h176q17 0 28 -11t11 -28v-1401zM1104 1842q0 -229 -228 -229q-35 0 -73 12t-70 35l-90 68q-58 43 -86 43q-57 0 -57 -70v-43q0 -33 -29 -33h-117q-28 0 -28 33v43q0 230 229 230q80 0 141 -46l90 -67q53 -41 86 -41q58 0 58 68v43q0 32 28 32h117q29 0 29 -32v-46z" />
    <glyph glyph-name="Odieresis" unicode="&#xd6;" horiz-adv-x="1393" 
d="M1280 623q0 -218 -74 -361.5t-206 -210.5t-304 -67q-173 0 -304.5 67.5t-205 211t-73.5 360.5v276q0 217 73.5 360.5t205 211t304.5 67.5q172 0 304 -67t206 -210.5t74 -361.5v-276zM993 623v276q0 202 -72.5 296.5t-224.5 94.5q-151 0 -224 -94.5t-73 -296.5v-276
q0 -201 73 -296.5t224 -95.5q152 0 224.5 95.5t72.5 296.5zM1006 1688q0 -18 -13.5 -29.5t-29.5 -11.5h-148q-16 0 -29.5 11.5t-13.5 29.5v180q0 16 13.5 28.5t29.5 12.5h148q16 0 29.5 -12.5t13.5 -28.5v-180zM596 1688q0 -18 -13.5 -29.5t-29.5 -11.5h-148
q-16 0 -29.5 11.5t-13.5 29.5v180q0 16 13.5 28.5t29.5 12.5h148q16 0 29.5 -12.5t13.5 -28.5v-180z" />
    <glyph glyph-name="Udieresis" unicode="&#xdc;" horiz-adv-x="1413" 
d="M1270 563q0 -161 -40 -272t-114.5 -178t-177.5 -98t-231 -31t-231.5 31t-177.5 98.5t-114.5 179.5t-40.5 270v920q0 16 12.5 27.5t28.5 11.5h203q18 0 29.5 -10.5t11.5 -28.5v-920q0 -123 24.5 -197t85 -110.5t169.5 -36.5t169 36.5t84.5 110.5t24.5 197v920
q0 16 12.5 27.5t28.5 11.5h203q16 0 28.5 -11.5t12.5 -27.5v-920zM1030 1688q0 -18 -13.5 -29.5t-29.5 -11.5h-148q-16 0 -29.5 11.5t-13.5 29.5v180q0 16 13.5 28.5t29.5 12.5h148q16 0 29.5 -12.5t13.5 -28.5v-180zM620 1688q0 -18 -13.5 -29.5t-29.5 -11.5h-148
q-16 0 -29.5 11.5t-13.5 29.5v180q0 16 13.5 28.5t29.5 12.5h148q16 0 29.5 -12.5t13.5 -28.5v-180z" />
    <glyph glyph-name="aacute" unicode="&#xe1;" horiz-adv-x="1122" 
d="M989 41q0 -18 -12 -29.5t-29 -11.5h-174q-15 0 -28 12t-13 29v33q-146 -90 -289 -90q-152 0 -253 76.5t-101 265.5v8q0 117 51 196t161.5 118.5t287.5 39.5h129v90q0 96 -42.5 131t-137.5 35q-200 0 -334 -16h-10q-37 0 -37 35v131q0 33 39 43q164 32 342 32
q146 0 246 -43t152 -131.5t52 -216.5v-737zM719 256v252h-129q-88 0 -139.5 -19t-70 -57.5t-18.5 -97.5v-8q0 -72 34.5 -99.5t113.5 -27.5q105 0 209 57zM899 1581q0 -8 -8 -16l-241 -254q-13 -14 -22.5 -20.5t-27.5 -6.5h-176q-18 0 -18 14q0 13 8 21l195 246
q15 19 24.5 24.5t28.5 5.5h215q22 0 22 -14z" />
    <glyph glyph-name="agrave" unicode="&#xe0;" horiz-adv-x="1122" 
d="M989 41q0 -18 -12 -29.5t-29 -11.5h-174q-15 0 -28 12t-13 29v33q-146 -90 -289 -90q-152 0 -253 76.5t-101 265.5v8q0 117 51 196t161.5 118.5t287.5 39.5h129v90q0 96 -42.5 131t-137.5 35q-200 0 -334 -16h-10q-37 0 -37 35v131q0 33 39 43q164 32 342 32
q146 0 246 -43t152 -131.5t52 -216.5v-737zM719 256v252h-129q-88 0 -139.5 -19t-70 -57.5t-18.5 -97.5v-8q0 -72 34.5 -99.5t113.5 -27.5q105 0 209 57zM718 1298q0 -14 -18 -14h-176q-16 0 -21.5 3t-26.5 24l-243 254q-8 8 -8 16q0 14 22 14h217q19 0 28 -5.5t25 -24.5
l193 -246q8 -8 8 -21z" />
    <glyph glyph-name="acircumflex" unicode="&#xe2;" horiz-adv-x="1122" 
d="M989 41q0 -18 -12 -29.5t-29 -11.5h-174q-15 0 -28 12t-13 29v33q-146 -90 -289 -90q-152 0 -253 76.5t-101 265.5v8q0 117 51 196t161.5 118.5t287.5 39.5h129v90q0 96 -42.5 131t-137.5 35q-200 0 -334 -16h-10q-37 0 -37 35v131q0 33 39 43q164 32 342 32
q146 0 246 -43t152 -131.5t52 -216.5v-737zM719 256v252h-129q-88 0 -139.5 -19t-70 -57.5t-18.5 -97.5v-8q0 -72 34.5 -99.5t113.5 -27.5q105 0 209 57zM947 1298q0 -14 -19 -14h-170q-11 0 -18.5 3t-14.5 10l-14 14l-145 166l-145 -166q-13 -14 -22.5 -20.5t-27.5 -6.5
h-170q-18 0 -18 14q0 13 8 21l189 246q15 19 24.5 24.5t28.5 5.5h266q19 0 28 -5.5t25 -24.5l187 -246q8 -8 8 -21z" />
    <glyph glyph-name="adieresis" unicode="&#xe4;" horiz-adv-x="1122" 
d="M989 41q0 -18 -12 -29.5t-29 -11.5h-174q-15 0 -28 12t-13 29v33q-146 -90 -289 -90q-152 0 -253 76.5t-101 265.5v8q0 117 51 196t161.5 118.5t287.5 39.5h129v90q0 96 -42.5 131t-137.5 35q-200 0 -334 -16h-10q-37 0 -37 35v131q0 33 39 43q164 32 342 32
q146 0 246 -43t152 -131.5t52 -216.5v-737zM719 256v252h-129q-88 0 -139.5 -19t-70 -57.5t-18.5 -97.5v-8q0 -72 34.5 -99.5t113.5 -27.5q105 0 209 57zM888 1357q0 -18 -13.5 -29.5t-29.5 -11.5h-148q-16 0 -29.5 11.5t-13.5 29.5v180q0 16 13.5 28.5t29.5 12.5h148
q16 0 29.5 -12.5t13.5 -28.5v-180zM478 1357q0 -18 -13.5 -29.5t-29.5 -11.5h-148q-16 0 -29.5 11.5t-13.5 29.5v180q0 16 13.5 28.5t29.5 12.5h148q16 0 29.5 -12.5t13.5 -28.5v-180z" />
    <glyph glyph-name="atilde" unicode="&#xe3;" horiz-adv-x="1122" 
d="M989 41q0 -18 -12 -29.5t-29 -11.5h-174q-15 0 -28 12t-13 29v33q-146 -90 -289 -90q-152 0 -253 76.5t-101 265.5v8q0 117 51 196t161.5 118.5t287.5 39.5h129v90q0 96 -42.5 131t-137.5 35q-200 0 -334 -16h-10q-37 0 -37 35v131q0 33 39 43q164 32 342 32
q146 0 246 -43t152 -131.5t52 -216.5v-737zM719 256v252h-129q-88 0 -139.5 -19t-70 -57.5t-18.5 -97.5v-8q0 -72 34.5 -99.5t113.5 -27.5q105 0 209 57zM956 1513q0 -229 -228 -229q-35 0 -73 12t-70 35l-90 68q-58 43 -86 43q-57 0 -57 -70v-43q0 -33 -29 -33h-117
q-28 0 -28 33v43q0 230 229 230q80 0 141 -46l90 -67q53 -41 86 -41q58 0 58 68v43q0 32 28 32h117q29 0 29 -32v-46z" />
    <glyph glyph-name="aring" unicode="&#xe5;" horiz-adv-x="1122" 
d="M989 41q0 -18 -12 -29.5t-29 -11.5h-174q-15 0 -28 12t-13 29v33q-146 -90 -289 -90q-152 0 -253 76.5t-101 265.5v8q0 117 51 196t161.5 118.5t287.5 39.5h129v90q0 96 -42.5 131t-137.5 35q-200 0 -334 -16h-10q-37 0 -37 35v131q0 33 39 43q164 32 342 32
q146 0 246 -43t152 -131.5t52 -216.5v-737zM719 256v252h-129q-88 0 -139.5 -19t-70 -57.5t-18.5 -97.5v-8q0 -72 34.5 -99.5t113.5 -27.5q105 0 209 57zM787 1496q0 -61 -30 -113t-82 -82t-113 -30q-60 0 -113 30t-83.5 81.5t-30.5 113.5q0 93 66 160t161 67t160 -66.5
t65 -160.5zM660 1498q0 41 -29.5 68.5t-68.5 27.5t-66.5 -27.5t-27.5 -68.5q0 -40 27 -69t67 -29t69 29t29 69z" />
    <glyph glyph-name="ccedilla" unicode="&#xe7;" horiz-adv-x="958" 
d="M866 63q0 -24 -9 -35.5t-34 -17.5q-102 -26 -264 -26q-134 0 -240.5 55.5t-166.5 167.5t-60 274v191q0 162 60 274t166.5 167.5t240.5 55.5q91 0 155.5 -7.5t108.5 -18.5q25 -6 34 -17.5t9 -35.5v-134q0 -30 -37 -30h-6q-115 14 -264 14q-84 0 -140.5 -60.5t-56.5 -207.5
v-191q0 -145 56.5 -206.5t140.5 -61.5q93 0 153 4t111 10h6q37 0 37 -30v-134zM688 -84q0 -8 -8 -16l-244 -252q-19 -21 -25.5 -25t-21.5 -4h-176q-18 0 -18 14q0 13 8 21l192 246q18 20 26.5 25t27.5 5h217q22 0 22 -14z" />
    <glyph glyph-name="eacute" unicode="&#xe9;" horiz-adv-x="1176" 
d="M1077 535q0 -52 -41 -52h-667v-6q0 -107 56 -183.5t189 -76.5q176 0 377 21h6q37 0 37 -31v-135q0 -27 -8.5 -37.5t-34.5 -16.5q-97 -18 -186 -26t-211 -8q-84 0 -169.5 26t-160.5 84.5t-120.5 159t-45.5 244.5v151q0 241 129.5 380.5t362.5 139.5q153 0 263.5 -66
t167 -183t56.5 -271v-114zM805 676v8q0 77 -27 134.5t-75.5 87.5t-112.5 30q-98 0 -158.5 -66.5t-60.5 -185.5v-8h434zM933 1581q0 -8 -8 -16l-241 -254q-13 -14 -22.5 -20.5t-27.5 -6.5h-176q-18 0 -18 14q0 13 8 21l195 246q15 19 24.5 24.5t28.5 5.5h215q22 0 22 -14z
" />
    <glyph glyph-name="egrave" unicode="&#xe8;" horiz-adv-x="1176" 
d="M1077 535q0 -52 -41 -52h-667v-6q0 -107 56 -183.5t189 -76.5q176 0 377 21h6q37 0 37 -31v-135q0 -27 -8.5 -37.5t-34.5 -16.5q-97 -18 -186 -26t-211 -8q-84 0 -169.5 26t-160.5 84.5t-120.5 159t-45.5 244.5v151q0 241 129.5 380.5t362.5 139.5q153 0 263.5 -66
t167 -183t56.5 -271v-114zM805 676v8q0 77 -27 134.5t-75.5 87.5t-112.5 30q-98 0 -158.5 -66.5t-60.5 -185.5v-8h434zM720 1298q0 -14 -18 -14h-176q-16 0 -21.5 3t-26.5 24l-243 254q-8 8 -8 16q0 14 22 14h217q19 0 28 -5.5t25 -24.5l193 -246q8 -8 8 -21z" />
    <glyph glyph-name="ecircumflex" unicode="&#xea;" horiz-adv-x="1176" 
d="M1077 535q0 -52 -41 -52h-667v-6q0 -107 56 -183.5t189 -76.5q176 0 377 21h6q37 0 37 -31v-135q0 -27 -8.5 -37.5t-34.5 -16.5q-97 -18 -186 -26t-211 -8q-84 0 -169.5 26t-160.5 84.5t-120.5 159t-45.5 244.5v151q0 241 129.5 380.5t362.5 139.5q153 0 263.5 -66
t167 -183t56.5 -271v-114zM805 676v8q0 77 -27 134.5t-75.5 87.5t-112.5 30q-98 0 -158.5 -66.5t-60.5 -185.5v-8h434zM969 1298q0 -14 -19 -14h-170q-11 0 -18.5 3t-14.5 10l-14 14l-145 166l-145 -166q-13 -14 -22.5 -20.5t-27.5 -6.5h-170q-18 0 -18 14q0 13 8 21
l189 246q15 19 24.5 24.5t28.5 5.5h266q19 0 28 -5.5t25 -24.5l187 -246q8 -8 8 -21z" />
    <glyph glyph-name="edieresis" unicode="&#xeb;" horiz-adv-x="1176" 
d="M1077 535q0 -52 -41 -52h-667v-6q0 -107 56 -183.5t189 -76.5q176 0 377 21h6q37 0 37 -31v-135q0 -27 -8.5 -37.5t-34.5 -16.5q-97 -18 -186 -26t-211 -8q-84 0 -169.5 26t-160.5 84.5t-120.5 159t-45.5 244.5v151q0 241 129.5 380.5t362.5 139.5q153 0 263.5 -66
t167 -183t56.5 -271v-114zM805 676v8q0 77 -27 134.5t-75.5 87.5t-112.5 30q-98 0 -158.5 -66.5t-60.5 -185.5v-8h434zM907 1350q0 -18 -13.5 -29.5t-29.5 -11.5h-148q-16 0 -29.5 11.5t-13.5 29.5v180q0 16 13.5 28.5t29.5 12.5h148q16 0 29.5 -12.5t13.5 -28.5v-180z
M497 1350q0 -18 -13.5 -29.5t-29.5 -11.5h-148q-16 0 -29.5 11.5t-13.5 29.5v180q0 16 13.5 28.5t29.5 12.5h148q16 0 29.5 -12.5t13.5 -28.5v-180z" />
    <glyph glyph-name="iacute" unicode="&#xed;" horiz-adv-x="549" 
d="M410 43q0 -16 -12.5 -29.5t-28.5 -13.5h-189q-16 0 -28.5 13.5t-12.5 29.5v1071q0 17 12 29t29 12h189q17 0 29 -12t12 -29v-1071zM618 1581q0 -8 -8 -16l-241 -254q-13 -14 -22.5 -20.5t-27.5 -6.5h-176q-18 0 -18 14q0 13 8 21l195 246q15 19 24.5 24.5t28.5 5.5h215
q22 0 22 -14z" />
    <glyph glyph-name="igrave" unicode="&#xec;" horiz-adv-x="549" 
d="M410 43q0 -16 -12.5 -29.5t-28.5 -13.5h-189q-16 0 -28.5 13.5t-12.5 29.5v1071q0 17 12 29t29 12h189q17 0 29 -12t12 -29v-1071zM434 1298q0 -14 -18 -14h-176q-16 0 -21.5 3t-26.5 24l-243 254q-8 8 -8 16q0 14 22 14h217q19 0 28 -5.5t25 -24.5l193 -246q8 -8 8 -21z
" />
    <glyph glyph-name="icircumflex" unicode="&#xee;" horiz-adv-x="549" 
d="M410 43q0 -16 -12.5 -29.5t-28.5 -13.5h-189q-16 0 -28.5 13.5t-12.5 29.5v1071q0 17 12 29t29 12h189q17 0 29 -12t12 -29v-1071zM657 1298q0 -14 -19 -14h-170q-11 0 -18.5 3t-14.5 10l-14 14l-145 166l-145 -166q-13 -14 -22.5 -20.5t-27.5 -6.5h-170q-18 0 -18 14
q0 13 8 21l189 246q15 19 24.5 24.5t28.5 5.5h266q19 0 28 -5.5t25 -24.5l187 -246q8 -8 8 -21z" />
    <glyph glyph-name="idieresis" unicode="&#xef;" horiz-adv-x="549" 
d="M410 43q0 -16 -12.5 -29.5t-28.5 -13.5h-189q-16 0 -28.5 13.5t-12.5 29.5v1071q0 17 12 29t29 12h189q17 0 29 -12t12 -29v-1071zM596 1350q0 -18 -13.5 -29.5t-29.5 -11.5h-148q-16 0 -29.5 11.5t-13.5 29.5v180q0 16 13.5 28.5t29.5 12.5h148q16 0 29.5 -12.5
t13.5 -28.5v-180zM186 1350q0 -18 -13.5 -29.5t-29.5 -11.5h-148q-16 0 -29.5 11.5t-13.5 29.5v180q0 16 13.5 28.5t29.5 12.5h148q16 0 29.5 -12.5t13.5 -28.5v-180z" />
    <glyph glyph-name="ntilde" unicode="&#xf1;" horiz-adv-x="1212" 
d="M1079 43q0 -18 -11.5 -30.5t-29.5 -12.5h-188q-18 0 -29.5 13.5t-11.5 29.5v668q0 96 -11 142.5t-48 66.5t-115 20q-91 0 -232 -74v-823q0 -18 -11.5 -30.5t-29.5 -12.5h-188q-16 0 -28.5 13.5t-12.5 29.5v1071q0 17 12 29t29 12h178q19 0 30 -11t11 -30v-43
q91 58 159.5 78t172.5 20q205 0 279.5 -118.5t74.5 -339.5v-668zM988 1513q0 -229 -228 -229q-35 0 -73 12t-70 35l-90 68q-58 43 -86 43q-57 0 -57 -70v-43q0 -33 -29 -33h-117q-28 0 -28 33v43q0 230 229 230q80 0 141 -46l90 -67q53 -41 86 -41q58 0 58 68v43q0 32 28 32
h117q29 0 29 -32v-46z" />
    <glyph glyph-name="oacute" unicode="&#xf3;" horiz-adv-x="1176" 
d="M1077 494q0 -146 -56 -263t-167 -182t-266 -65q-157 0 -267 65t-166.5 182t-56.5 263v165q0 146 56.5 263t166.5 182t267 65q155 0 266 -65t167 -182t56 -263v-165zM807 494v165q0 128 -56.5 202.5t-162.5 74.5q-107 0 -163 -74.5t-56 -202.5v-165q0 -127 56.5 -202
t162.5 -75q105 0 162 74.5t57 202.5zM903 1581q0 -8 -8 -16l-241 -254q-13 -14 -22.5 -20.5t-27.5 -6.5h-176q-18 0 -18 14q0 13 8 21l195 246q15 19 24.5 24.5t28.5 5.5h215q22 0 22 -14z" />
    <glyph glyph-name="ograve" unicode="&#xf2;" horiz-adv-x="1176" 
d="M1077 494q0 -146 -56 -263t-167 -182t-266 -65q-157 0 -267 65t-166.5 182t-56.5 263v165q0 146 56.5 263t166.5 182t267 65q155 0 266 -65t167 -182t56 -263v-165zM807 494v165q0 128 -56.5 202.5t-162.5 74.5q-107 0 -163 -74.5t-56 -202.5v-165q0 -127 56.5 -202
t162.5 -75q105 0 162 74.5t57 202.5zM754 1298q0 -14 -18 -14h-176q-16 0 -21.5 3t-26.5 24l-243 254q-8 8 -8 16q0 14 22 14h217q19 0 28 -5.5t25 -24.5l193 -246q8 -8 8 -21z" />
    <glyph glyph-name="ocircumflex" unicode="&#xf4;" horiz-adv-x="1176" 
d="M1077 494q0 -146 -56 -263t-167 -182t-266 -65q-157 0 -267 65t-166.5 182t-56.5 263v165q0 146 56.5 263t166.5 182t267 65q155 0 266 -65t167 -182t56 -263v-165zM807 494v165q0 128 -56.5 202.5t-162.5 74.5q-107 0 -163 -74.5t-56 -202.5v-165q0 -127 56.5 -202
t162.5 -75q105 0 162 74.5t57 202.5zM967 1298q0 -14 -19 -14h-170q-11 0 -18.5 3t-14.5 10l-14 14l-145 166l-145 -166q-13 -14 -22.5 -20.5t-27.5 -6.5h-170q-18 0 -18 14q0 13 8 21l189 246q15 19 24.5 24.5t28.5 5.5h266q19 0 28 -5.5t25 -24.5l187 -246q8 -8 8 -21z
" />
    <glyph glyph-name="odieresis" unicode="&#xf6;" horiz-adv-x="1176" 
d="M1077 494q0 -146 -56 -263t-167 -182t-266 -65q-157 0 -267 65t-166.5 182t-56.5 263v165q0 146 56.5 263t166.5 182t267 65q155 0 266 -65t167 -182t56 -263v-165zM807 494v165q0 128 -56.5 202.5t-162.5 74.5q-107 0 -163 -74.5t-56 -202.5v-165q0 -127 56.5 -202
t162.5 -75q105 0 162 74.5t57 202.5zM906 1350q0 -18 -13.5 -29.5t-29.5 -11.5h-148q-16 0 -29.5 11.5t-13.5 29.5v180q0 16 13.5 28.5t29.5 12.5h148q16 0 29.5 -12.5t13.5 -28.5v-180zM496 1350q0 -18 -13.5 -29.5t-29.5 -11.5h-148q-16 0 -29.5 11.5t-13.5 29.5v180
q0 16 13.5 28.5t29.5 12.5h148q16 0 29.5 -12.5t13.5 -28.5v-180z" />
    <glyph glyph-name="otilde" unicode="&#xf5;" horiz-adv-x="1176" 
d="M1077 494q0 -146 -56 -263t-167 -182t-266 -65q-157 0 -267 65t-166.5 182t-56.5 263v165q0 146 56.5 263t166.5 182t267 65q155 0 266 -65t167 -182t56 -263v-165zM807 494v165q0 128 -56.5 202.5t-162.5 74.5q-107 0 -163 -74.5t-56 -202.5v-165q0 -127 56.5 -202
t162.5 -75q105 0 162 74.5t57 202.5zM972 1513q0 -229 -228 -229q-35 0 -73 12t-70 35l-90 68q-58 43 -86 43q-57 0 -57 -70v-43q0 -33 -29 -33h-117q-28 0 -28 33v43q0 230 229 230q80 0 141 -46l90 -67q53 -41 86 -41q58 0 58 68v43q0 32 28 32h117q29 0 29 -32v-46z" />
    <glyph glyph-name="uacute" unicode="&#xfa;" horiz-adv-x="1212" 
d="M1079 41q0 -18 -12 -29.5t-29 -11.5h-188q-17 0 -29 12t-12 29v47q-81 -53 -154 -77.5t-168 -24.5q-166 0 -251 86q-56 56 -79.5 148.5t-23.5 223.5v668q0 16 12.5 29.5t28.5 13.5h188q18 0 29.5 -12.5t11.5 -30.5v-668q0 -82 10.5 -126t37.5 -70q41 -37 127 -37
q48 0 105.5 23t125.5 59v819q0 16 11.5 29.5t29.5 13.5h188q18 0 29.5 -12.5t11.5 -30.5v-1071zM948 1581q0 -8 -8 -16l-241 -254q-13 -14 -22.5 -20.5t-27.5 -6.5h-176q-18 0 -18 14q0 13 8 21l195 246q15 19 24.5 24.5t28.5 5.5h215q22 0 22 -14z" />
    <glyph glyph-name="ugrave" unicode="&#xf9;" horiz-adv-x="1212" 
d="M1079 41q0 -18 -12 -29.5t-29 -11.5h-188q-17 0 -29 12t-12 29v47q-81 -53 -154 -77.5t-168 -24.5q-166 0 -251 86q-56 56 -79.5 148.5t-23.5 223.5v668q0 16 12.5 29.5t28.5 13.5h188q18 0 29.5 -12.5t11.5 -30.5v-668q0 -82 10.5 -126t37.5 -70q41 -37 127 -37
q48 0 105.5 23t125.5 59v819q0 16 11.5 29.5t29.5 13.5h188q18 0 29.5 -12.5t11.5 -30.5v-1071zM778 1298q0 -14 -18 -14h-176q-16 0 -21.5 3t-26.5 24l-243 254q-8 8 -8 16q0 14 22 14h217q19 0 28 -5.5t25 -24.5l193 -246q8 -8 8 -21z" />
    <glyph glyph-name="ucircumflex" unicode="&#xfb;" horiz-adv-x="1212" 
d="M1079 41q0 -18 -12 -29.5t-29 -11.5h-188q-17 0 -29 12t-12 29v47q-81 -53 -154 -77.5t-168 -24.5q-166 0 -251 86q-56 56 -79.5 148.5t-23.5 223.5v668q0 16 12.5 29.5t28.5 13.5h188q18 0 29.5 -12.5t11.5 -30.5v-668q0 -82 10.5 -126t37.5 -70q41 -37 127 -37
q48 0 105.5 23t125.5 59v819q0 16 11.5 29.5t29.5 13.5h188q18 0 29.5 -12.5t11.5 -30.5v-1071zM985 1298q0 -14 -19 -14h-170q-11 0 -18.5 3t-14.5 10l-14 14l-145 166l-145 -166q-13 -14 -22.5 -20.5t-27.5 -6.5h-170q-18 0 -18 14q0 13 8 21l189 246q15 19 24.5 24.5
t28.5 5.5h266q19 0 28 -5.5t25 -24.5l187 -246q8 -8 8 -21z" />
    <glyph glyph-name="udieresis" unicode="&#xfc;" horiz-adv-x="1212" 
d="M1079 41q0 -18 -12 -29.5t-29 -11.5h-188q-17 0 -29 12t-12 29v47q-81 -53 -154 -77.5t-168 -24.5q-166 0 -251 86q-56 56 -79.5 148.5t-23.5 223.5v668q0 16 12.5 29.5t28.5 13.5h188q18 0 29.5 -12.5t11.5 -30.5v-668q0 -82 10.5 -126t37.5 -70q41 -37 127 -37
q48 0 105.5 23t125.5 59v819q0 16 11.5 29.5t29.5 13.5h188q18 0 29.5 -12.5t11.5 -30.5v-1071zM938 1350q0 -18 -13.5 -29.5t-29.5 -11.5h-148q-16 0 -29.5 11.5t-13.5 29.5v180q0 16 13.5 28.5t29.5 12.5h148q16 0 29.5 -12.5t13.5 -28.5v-180zM528 1350
q0 -18 -13.5 -29.5t-29.5 -11.5h-148q-16 0 -29.5 11.5t-13.5 29.5v180q0 16 13.5 28.5t29.5 12.5h148q16 0 29.5 -12.5t13.5 -28.5v-180z" />
    <glyph glyph-name="dagger" unicode="&#x2020;" horiz-adv-x="870" 
d="M805 977q0 -33 -39 -33h-203v-915q0 -41 -33 -41h-208q-33 0 -33 41v915h-183q-38 0 -38 33v164q0 30 38 30h183v349q0 39 35 39h206q15 0 24 -11t9 -28v-349h203q39 0 39 -30v-164z" />
    <glyph glyph-name="degree" unicode="&#xb0;" horiz-adv-x="723" 
d="M668 1233q0 -64 -23 -118t-66.5 -97.5t-100 -66.5t-116.5 -23q-82 0 -152 41t-111.5 111t-41.5 153t41.5 153t111.5 111t152 41q64 0 119 -23t98 -66t66 -97.5t23 -118.5zM524 1233q0 34 -13 63.5t-34.5 51t-50 34.5t-64.5 13q-67 0 -113 -48t-46 -114q0 -65 46.5 -112.5
t112.5 -47.5q67 0 114.5 46.5t47.5 113.5z" />
    <glyph glyph-name="cent" unicode="&#xa2;" 
d="M1012 63q0 -24 -9 -35.5t-34 -17.5q-85 -20 -174 -24v-164q0 -17 -13 -29t-28 -12h-168q-17 0 -29 12t-12 29v184q-92 27 -161.5 89.5t-107.5 160.5t-38 225v191q0 127 38 225t107.5 160.5t161.5 89.5v180q0 17 11.5 29t29.5 12h168q17 0 29 -12t12 -29v-160
q89 -4 174 -24q25 -6 34 -17.5t9 -35.5v-134q0 -30 -37 -30h-6q-115 14 -264 14q-85 0 -141 -60.5t-56 -207.5v-191q0 -145 56 -206.5t141 -61.5q93 0 153 4t111 10h6q16 0 26.5 -7.5t10.5 -22.5v-134z" />
    <glyph glyph-name="sterling" unicode="&#xa3;" 
d="M1151 1288q0 -37 -35 -37h-4q-19 1 -146.5 11t-185.5 10q-118 0 -168.5 -38t-50.5 -142v-197h379q18 0 29.5 -10.5t11.5 -28.5v-154q0 -36 -39 -36h-381v-256q0 -98 -49 -183h596q17 0 29 -9t12 -25v-156q0 -17 -12.5 -27t-28.5 -10h-875q-36 0 -36 53v105q0 23 16 47
q27 39 48.5 96.5t21.5 108.5v256h-103q-16 0 -27.5 9.5t-11.5 26.5v154q0 16 12.5 27.5t28.5 11.5h101v197q0 105 25 179.5t82 127.5t152.5 79.5t237.5 26.5q70 0 177 -9.5t157 -18.5q26 -4 31.5 -12.5t5.5 -26.5v-150z" />
    <glyph glyph-name="section" unicode="&#xa7;" horiz-adv-x="1174" 
d="M1083 -6q0 -116 -51.5 -215.5t-171.5 -160t-313 -60.5q-211 0 -377 39q-41 8 -41 38v160q0 17 12 27t29 10h4q127 -12 202.5 -18.5t160.5 -6.5h14q88 1 137 23t68.5 61.5t19.5 96.5q0 60 -32.5 99.5t-133.5 98.5l-256 152q-151 90 -207.5 181t-56.5 218q0 132 57 211
q-57 87 -57 215q0 119 49.5 202t161.5 128t299 45q97 0 224.5 -12t179.5 -25q38 -8 38 -39v-162q0 -16 -10 -26t-28 -10h-3l-118.5 8.5t-155 9.5t-123.5 4h-6q-113 0 -162 -33.5t-49 -103.5q0 -52 33 -89.5t131 -92.5l246 -138q108 -59 171.5 -122.5t89 -133t25.5 -153.5
q0 -128 -53 -219q53 -83 53 -207zM842 422q0 53 -17.5 91t-61.5 74.5t-136 92.5l-162 96q-83 50 -111 76q-39 -46 -39 -123q0 -45 17 -80t55.5 -66.5t122.5 -82.5l158 -94q98 -59 149 -107q25 46 25 123z" />
    <glyph glyph-name="bullet" unicode="&#x2022;" horiz-adv-x="856" 
d="M764 752q0 -90 -45 -168t-121.5 -123t-169.5 -45q-140 0 -238 99t-98 237q0 67 26.5 129.5t72 108t106.5 71.5t131 26t132 -26.5t107 -71t71 -106t26 -131.5z" />
    <glyph glyph-name="paragraph" unicode="&#xb6;" horiz-adv-x="1319" 
d="M1196 -360q0 -17 -10 -28t-25 -11h-71q-15 0 -25 12t-10 27v1744h-125v-1744q0 -15 -10 -27t-25 -12h-72q-15 0 -25 12t-10 27v872h-202q-142 0 -254.5 53.5t-176 156.5t-63.5 247v96q0 144 63.5 247t176 156.5t254.5 53.5h577q33 0 33 -39v-1843z" />
    <glyph glyph-name="germandbls" unicode="&#xdf;" horiz-adv-x="1278" 
d="M1167 453q0 -119 -38.5 -207.5t-107 -147t-157.5 -86.5t-190 -28q-43 0 -115 10q-41 7 -41 39v151q0 16 7.5 23.5t27.5 7.5q109 0 180.5 14.5t115.5 66.5t44 157v39q0 96 -65.5 153t-194.5 57h-66q-16 0 -28.5 11t-12.5 26v127q0 17 11.5 27t29.5 10h66q84 0 136.5 27
t76.5 71.5t24 100.5v35q0 61 -23.5 105.5t-73.5 69.5t-130 25q-100 0 -154 -38.5t-73 -99.5t-19 -142v-1014q0 -17 -11 -30t-28 -13h-194q-18 0 -29.5 13.5t-11.5 29.5v1012q0 131 34.5 229.5t100 162t162 95t223.5 31.5q114 0 203.5 -24.5t155 -76t102.5 -135t37 -200.5
v-35q0 -90 -53.5 -169.5t-137.5 -121.5q99 -41 158 -125t59 -194v-39z" />
    <glyph glyph-name="registered" unicode="&#xae;" horiz-adv-x="1225" 
d="M1178 991q0 -153 -76 -282.5t-206.5 -205t-283.5 -75.5q-152 0 -282 75.5t-205.5 205.5t-75.5 282q0 151 76 282t205.5 206t281.5 75q153 0 283 -75t206.5 -205.5t76.5 -282.5zM1081 991q0 127 -63 235t-171 171t-235 63t-234.5 -63t-170 -171.5t-62.5 -234.5t62.5 -234
t170.5 -170.5t234 -62.5t234.5 62.5t171.5 170t63 234.5zM885 676q0 -23 -23 -23h-104q-14 0 -23 17l-143 241q-5 11 -21 11h-41h-22v-242q0 -11 -7 -19t-18 -8h-94q-10 0 -17 9t-7 18v608q0 50 45 55q54 9 172 9q139 0 208.5 -49.5t69.5 -165.5v-13q0 -135 -127 -180
l148 -252q4 -8 4 -16zM723 1124v13q0 50 -30 71t-101 21h-64h-24v-197q27 0 47 -0.5t41 -1.5q69 0 100 23t31 71z" />
    <glyph glyph-name="copyright" unicode="&#xa9;" horiz-adv-x="1536" 
d="M1444 766q0 -137 -53.5 -262t-146 -216.5t-216.5 -143.5t-262 -52q-137 0 -261 52.5t-216 144.5t-144.5 216t-52.5 261q0 138 52.5 263t145 218.5t215.5 146t261 52.5q139 0 262.5 -52.5t216 -145t146 -218.5t53.5 -264zM1343 766q0 156 -78 289t-211 212t-288 79
t-288.5 -79t-210.5 -212.5t-77 -288.5q0 -154 77 -286t210 -209.5t289 -77.5t289 77t210.5 209t77.5 287zM977 375q0 -22 -29 -29q-74 -18 -176 -18q-157 0 -245.5 94t-88.5 289v123q0 195 88.5 289t245.5 94q105 0 176 -19q29 -7 29 -27v-100q0 -24 -27 -24h-4
q-112 10 -174 10q-156 0 -156 -223v-123q0 -224 156 -224l54 2t46.5 2.5t34 3t39.5 3.5h4q27 0 27 -25v-98z" />
    <glyph glyph-name="trademark" unicode="&#x2122;" horiz-adv-x="1667" 
d="M1583 713q0 -21 -20 -21h-131q-21 0 -21 21v501q0 70 -10.5 102t-44.5 43t-117 11v-657q0 -10 -6 -15.5t-16 -5.5h-132q-20 0 -20 21v657q-78 0 -172 -8v-649q0 -21 -21 -21h-129q-22 0 -22 21v739q0 31 10.5 42.5t36.5 14.5q218 21 383 21q163 0 253 -21t134.5 -89.5
t44.5 -205.5v-501zM653 1403q0 -12 -9.5 -19.5t-20.5 -7.5h-181v-655q0 -10 -8.5 -19.5t-19.5 -9.5h-121q-12 0 -20.5 9.5t-8.5 19.5v655h-184q-9 0 -19 8t-10 19v90q0 12 8 20.5t21 8.5h543q14 0 22 -8t8 -21v-90z" />
    <glyph glyph-name="acute" unicode="&#xb4;" horiz-adv-x="850" 
d="M784 1581q0 -8 -8 -16l-241 -254q-13 -14 -22.5 -20.5t-27.5 -6.5h-176q-18 0 -18 14q0 13 8 21l195 246q15 19 24.5 24.5t28.5 5.5h215q22 0 22 -14z" />
    <glyph glyph-name="dieresis" unicode="&#xa8;" horiz-adv-x="850" 
d="M748 1350q0 -18 -13.5 -29.5t-29.5 -11.5h-148q-16 0 -29.5 11.5t-13.5 29.5v180q0 16 13.5 28.5t29.5 12.5h148q16 0 29.5 -12.5t13.5 -28.5v-180zM338 1350q0 -18 -13.5 -29.5t-29.5 -11.5h-148q-16 0 -29.5 11.5t-13.5 29.5v180q0 16 13.5 28.5t29.5 12.5h148
q16 0 29.5 -12.5t13.5 -28.5v-180z" />
    <glyph glyph-name="notequal" unicode="&#x2260;" horiz-adv-x="1124" 
d="M495 417l-194 -445h-136l195 445h-282v168h356l122 277h-478v168h551l196 444h134l-195 -444h282v-168h-356l-121 -277h477v-168h-551z" />
    <glyph glyph-name="AE" unicode="&#xc6;" horiz-adv-x="1802" 
d="M1679 55q0 -21 -9 -30t-32 -13q-69 -15 -128.5 -21.5t-198.5 -6.5q-147 0 -250 34.5t-163 127t-60 257.5v21h-412l-94 -389q-3 -14 -14.5 -24.5t-24.5 -10.5h-217q-16 0 -26.5 9.5t-10.5 25.5q1 2 1.5 4t0.5 6l336 1284q22 88 70 130.5t99 52.5t116 10h976q41 0 41 -43
v-144q0 -17 -12 -29t-29 -12h-518v-397h494q17 0 29 -12t12 -29v-147q0 -17 -13 -29t-28 -12h-494v-265q0 -99 36 -137.5t126 -38.5h356q19 0 30 -11t11 -30v-131zM838 657v641h-176q-15 0 -21.5 -6.5t-11.5 -25.5l-148 -609h357z" />
    <glyph glyph-name="Oslash" unicode="&#xd8;" horiz-adv-x="1393" 
d="M1343 1509q0 -7 -6 -16l-147 -205q90 -155 90 -389v-276q0 -218 -74 -361.5t-206 -210.5t-304 -67q-109 0 -202.5 26.5t-163.5 79.5l-60 -82q-18 -24 -41 -24h-155q-23 0 -23 22q0 7 6 17l148 204q-92 152 -92 396v276q0 217 73.5 360.5t205 211t304.5 67.5
q230 0 373 -111l59 84q16 21 39 21h154q22 0 22 -23zM909 1208q-72 82 -213 82q-151 0 -224 -94.5t-73 -296.5v-276q0 -66 7 -115zM993 623v276q0 58 -6 107l-500 -697q74 -78 209 -78q152 0 224.5 95.5t72.5 296.5z" />
    <glyph glyph-name="infinity" unicode="&#x221e;" horiz-adv-x="1460" 
d="M689 812q105 132 164 174q80 58 169 58q105 0 196.5 -76t91.5 -245q0 -118 -34 -185.5t-106 -108.5t-148 -41q-89 0 -169 57q-59 43 -164 175q-136 -171 -289 -171q-101 0 -173.5 76.5t-72.5 190.5q0 113 72.5 190t173.5 77q153 0 289 -171zM758 717q87 -135 159 -185
q46 -33 103 -33q76 0 127.5 56t51.5 158q0 106 -52.5 162t-130.5 56q-49 0 -92 -28q-58 -39 -166 -186zM620 716q-80 100 -128 128.5t-92 28.5q-58 0 -96.5 -41t-38.5 -113q0 -71 40 -113.5t97 -42.5q101 0 218 153z" />
    <glyph glyph-name="plusminus" unicode="&#xb1;" 
d="M1122 729q0 -16 -11.5 -24.5t-29.5 -8.5h-331v-329q0 -18 -9 -29.5t-24 -11.5h-144q-32 0 -32 41v329h-330q-18 0 -29.5 9t-11.5 24v143q0 33 41 33h330v332q0 41 32 41h144q16 0 24.5 -11.5t8.5 -29.5v-332h331q41 0 41 -33v-143zM1122 2q0 -16 -11.5 -24.5t-29.5 -8.5
h-870q-18 0 -29.5 9t-11.5 24v115q0 15 11.5 24t29.5 9h870q18 0 29.5 -8.5t11.5 -24.5v-115z" />
    <glyph glyph-name="lessequal" unicode="&#x2264;" horiz-adv-x="1124" 
d="M77 762v168l971 410v-180l-770 -315l770 -319v-179zM1046 106h-968v167h968v-167z" />
    <glyph glyph-name="greaterequal" unicode="&#x2265;" horiz-adv-x="1124" 
d="M1048 762l-971 -415v179l769 319l-769 315v180l971 -410v-168zM1046 106h-968v167h968v-167z" />
    <glyph glyph-name="yen" unicode="&#xa5;" 
d="M1231 1495q0 -8 -6 -20l-234 -465h191q16 0 28.5 -11t12.5 -26v-129q0 -18 -11.5 -27.5t-27.5 -9.5h-293l-103 -203v-24h394q16 0 28.5 -11t12.5 -26v-129q0 -18 -11.5 -27.5t-27.5 -9.5h-396v-336q0 -18 -10.5 -29.5t-27.5 -11.5h-211q-17 0 -27 12t-10 29v336h-398
q-38 0 -38 37v129q0 15 12 26t28 11h396v24l-103 203h-295q-38 0 -38 37v129q0 15 12 26t28 11h193l-233 465q-7 11 -7 20q0 12 10 19.5t23 7.5h234q20 0 36 -33l283 -602l283 602q17 33 39 33h231q33 0 33 -27z" />
    <glyph glyph-name="uni00B5" unicode="&#xb5;" horiz-adv-x="1202" 
d="M1079 86q0 -40 -55 -53q-185 -49 -416 -49q-132 0 -211 63v-399q0 -19 -10 -30t-27 -11h-198q-16 0 -27.5 11.5t-11.5 29.5v1464q0 16 11.5 29.5t29.5 13.5h190q18 0 29.5 -12.5t11.5 -30.5v-709q0 -196 213 -196q114 0 197 22v883q0 16 11.5 29.5t29.5 13.5h190
q17 0 30 -13t13 -30v-1026z" />
    <glyph glyph-name="partialdiff" unicode="&#x2202;" horiz-adv-x="1012" 
d="M426 1138l-135 60q70 157 168 225t192 68q76 0 137.5 -39.5t92.5 -90.5q47 -79 69.5 -187t22.5 -248q0 -288 -86.5 -512.5t-233.5 -331.5t-289 -107q-137 0 -222.5 91t-85.5 256q0 226 153 387q197 207 649 215q-4 168 -24 256t-68 135.5t-113 47.5q-62 0 -121 -49.5
t-106 -175.5zM854 796q-244 -14 -357.5 -68t-187 -176.5t-73.5 -248.5q0 -83 51 -137t119 -54q75 0 160 55q117 76 190.5 234.5t97.5 394.5z" />
    <glyph glyph-name="summation" unicode="&#x2211;" horiz-adv-x="1460" 
d="M139 1491h1237v-164h-988l607 -775l-649 -822h1040v-161h-1264v187l620 788l-603 772v175z" />
    <glyph glyph-name="product" unicode="&#x220f;" horiz-adv-x="1686" 
d="M161 1491h1362v-1922h-191v1748h-978v-1748h-193v1922z" />
    <glyph glyph-name="uniF006" unicode="&#xf006;" horiz-adv-x="1413" 
d="M505 916v-916h-180v916h-280v146h1324v-146h-242v-916h-180v916h-442z" />
    <glyph glyph-name="integral" unicode="&#x222b;" horiz-adv-x="561" 
d="M561 1755q0 -29 -12.5 -53t-34 -36.5t-47.5 -12.5q-36 0 -76 35q-20 20 -39 20q-41 0 -41 -63q0 -46 11 -146q18 -204 27 -371t9 -294l-2 -121l-14 -471q-6 -190 -49 -320q-22 -67 -68 -104t-106 -37q-54 0 -86.5 33.5t-32.5 87.5q0 44 25 71t65 27q42 0 70 -33
q13 -14 24 -22t25 -8q39 0 39 61q0 37 -10 119q-20 170 -29 395q-3 104 -6 229q-2 70 -2 154l16 553q6 191 66 317q19 40 63.5 69.5t87.5 29.5q31 0 61.5 -15t48 -41t17.5 -53z" />
    <glyph glyph-name="ordfeminine" unicode="&#xaa;" horiz-adv-x="686" 
d="M610 883q0 -28 -18 -33q-112 -31 -238 -31q-148 0 -218 53t-70 164v15q0 71 36 114t104.5 62.5t170.5 19.5h53v27q0 60 -23 83t-73 23q-83 0 -191 -10h-2q-10 0 -19 8t-9 21v78q0 23 28 30q98 25 193 25q135 0 205.5 -60.5t70.5 -197.5v-391zM430 958v183q-7 1 -14.5 1.5
t-24.5 0.5q-12 0 -14 -2q-76 0 -107.5 -20.5t-31.5 -69.5v-15q0 -47 26 -66.5t90 -19.5q11 0 28.5 2t28 3.5t19.5 2.5z" />
    <glyph glyph-name="ordmasculine" unicode="&#xba;" horiz-adv-x="731" 
d="M666 1141q0 -158 -76.5 -240t-222.5 -82q-145 0 -222 82t-77 240v69q0 158 77 240t222 82q146 0 222.5 -82t76.5 -240v-69zM483 1141v69q0 90 -27.5 129t-88.5 39q-62 0 -90.5 -39.5t-28.5 -128.5v-69q0 -88 28.5 -129t90.5 -41q61 0 88.5 40.5t27.5 129.5z" />
    <glyph glyph-name="uni2126" unicode="&#x2126;" horiz-adv-x="1573" 
d="M496 160q-108 67 -165 130q-87 96 -134 225.5t-47 286.5q0 196 79.5 360.5t231 252.5t347.5 88q336 0 516 -254q131 -186 131 -448q0 -168 -54 -297.5t-141 -222.5q-53 -58 -149 -121l364 6v-166h-575v177q80 40 124 78q72 61 122 145t75.5 179t25.5 198
q0 138 -49.5 277.5t-150 212.5t-243.5 73q-191 0 -296 -120q-146 -169 -146 -440q0 -217 91 -372.5t251 -227.5v-180h-577v168z" />
    <glyph glyph-name="ae" unicode="&#xe6;" horiz-adv-x="1782" 
d="M1677 549q0 -18 -13.5 -29.5t-29.5 -11.5h-643v-84q0 -114 64.5 -163.5t204.5 -49.5q41 0 103.5 2.5t126 6.5t107.5 9h2h7q34 0 34 -32v-115q0 -39 -38 -49q-86 -24 -193.5 -36.5t-191.5 -12.5q-217 0 -324 110q-152 -110 -377 -110q-124 0 -218.5 38t-149 119t-54.5 203
v23q0 115 58.5 186t175 103t288.5 32h105v55q0 110 -46.5 154.5t-142.5 44.5q-211 0 -321 -12h-2h-4q-35 0 -35 35v122q0 37 41 48q157 34 321 34q232 0 345 -135q121 135 329 135q161 0 266 -61t155 -170t50 -254v-135zM1415 664v69q0 99 -50.5 162t-160.5 63
q-107 0 -160 -64t-53 -161v-69h424zM729 223v312h-113q-94 0 -151 -16.5t-84 -53.5t-27 -98v-23q0 -86 47 -117.5t136 -31.5q119 0 192 28z" />
    <glyph glyph-name="oslash" unicode="&#xf8;" horiz-adv-x="1176" 
d="M1116 1206q0 -11 -8 -22l-133 -185q50 -65 76 -152.5t26 -187.5v-165q0 -146 -56 -263t-167 -182t-266 -65q-85 0 -155.5 19.5t-131.5 57.5l-82 -112q-15 -21 -33 -21h-114q-17 0 -17 17q0 11 8 22l136 189q-50 65 -75.5 150.5t-25.5 187.5v165q0 146 56.5 263t166.5 182
t267 65q166 0 284 -77l80 110q17 21 33 21h115q16 0 16 -17zM725 887q-55 49 -137 49q-107 0 -163 -74.5t-56 -202.5v-165q0 -52 8 -91zM807 494v165q0 56 -8 95l-350 -488q50 -49 139 -49q105 0 162 74.5t57 202.5z" />
    <glyph glyph-name="questiondown" unicode="&#xbf;" horiz-adv-x="895" 
d="M684 885q0 -18 -12 -29.5t-29 -11.5h-184q-17 0 -29 12t-12 29v231q0 16 11.5 27.5t29.5 11.5h184q18 0 29.5 -10.5t11.5 -28.5v-231zM834 -295q0 -27 -6.5 -39t-30.5 -18q-138 -37 -314 -37q-209 0 -315.5 72t-106.5 247v33q0 71 26 137.5t120 178.5l125 147
q55 65 74.5 95.5t19.5 72.5v78q0 15 12 27t29 12h170q17 0 28 -11t11 -28v-78q0 -97 -24.5 -156t-96.5 -145l-131 -152q-34 -40 -46.5 -83t-12.5 -95v-33q0 -42 27 -58.5t91 -16.5q65 0 161 8t147 14h8q35 0 35 -45v-127z" />
    <glyph glyph-name="exclamdown" unicode="&#xa1;" horiz-adv-x="524" 
d="M393 883q0 -17 -11 -28t-28 -11h-184q-17 0 -28 11t-11 28v231q0 18 11 29.5t28 11.5h184q18 0 28.5 -11.5t10.5 -29.5v-231zM401 -371q0 -16 -13.5 -27.5t-29.5 -11.5h-194q-17 0 -29 12t-12 27l31 1041q0 15 12 28t29 13h133q16 0 29.5 -12.5t13.5 -28.5z" />
    <glyph glyph-name="logicalnot" unicode="&#xac;" 
d="M1102 416q0 -17 -13 -29t-28 -12h-127q-17 0 -29 12t-12 29v530h-662q-41 0 -41 33v143q0 33 41 33h834q16 0 26.5 -9.5t10.5 -25.5v-704z" />
    <glyph glyph-name="radical" unicode="&#x221a;" horiz-adv-x="1124" 
d="M1124 1870l-311 -1948l-496 1022l-198 -92l-35 63l301 152l403 -823h5l258 1626h73z" />
    <glyph glyph-name="florin" unicode="&#x192;" 
d="M1202 1540v-6l-16 -119q-2 -15 -15.5 -25t-33.5 -10h-125q-75 0 -103 -24t-39 -92l-49 -355h283q16 0 25.5 -9.5t9.5 -22.5v-7l-19 -133q-3 -16 -17 -28.5t-30 -12.5h-280l-99 -690q-24 -175 -126.5 -249t-264.5 -74q-92 0 -178 14q-21 4 -29 11t-8 20v6l16 119
q2 15 16 24.5t34 9.5h125q74 0 103 25t38 92l98 692h-260q-15 0 -26 10t-11 25v6l19 133q3 16 16.5 27.5t30.5 11.5h260l49 355q25 176 127 248.5t264 72.5q92 0 178 -14q37 -8 37 -31z" />
    <glyph glyph-name="approxequal" unicode="&#x2248;" horiz-adv-x="1124" 
d="M51 738v205q106 120 278 120q60 0 125.5 -17t188.5 -70q69 -30 103.5 -38.5t69.5 -8.5q65 0 134.5 39t123.5 98v-212q-64 -60 -129.5 -87t-147.5 -27q-60 0 -114 13.5t-173 67t-198 53.5q-64 0 -120.5 -27.5t-140.5 -108.5zM51 376v205q106 120 278 120q60 0 125.5 -17
t188.5 -70q69 -29 103.5 -38t69.5 -9q65 0 134.5 39t123.5 98v-212q-64 -60 -129.5 -87t-147.5 -27q-60 0 -114 14t-173 67t-198 53q-64 0 -120.5 -27.5t-140.5 -108.5z" />
    <glyph glyph-name="uni2206" unicode="&#x2206;" horiz-adv-x="1253" 
d="M1227 0h-1200l628 1386zM991 82l-399 967l-440 -967h839z" />
    <glyph glyph-name="guillemotleft" unicode="&#xab;" horiz-adv-x="1411" 
d="M1335 158q0 -23 -30 -23h-195q-23 0 -34 5.5t-27 21.5l-332 364q-17 17 -17 52q0 34 17 51l332 364q12 14 25 20.5t36 6.5h195q30 0 30 -23q0 -8 -6 -14l-371 -405l371 -406q6 -6 6 -14zM748 158q0 -23 -31 -23h-195q-23 0 -34 5.5t-27 21.5l-332 364q-16 17 -16 52
q0 34 16 51l332 364q12 14 25 20.5t36 6.5h195q31 0 31 -23q0 -7 -7 -14l-370 -405l370 -406q7 -7 7 -14z" />
    <glyph glyph-name="guillemotright" unicode="&#xbb;" horiz-adv-x="1411" 
d="M1329 578q0 -35 -16 -52l-332 -364q-16 -16 -26.5 -21.5t-34.5 -5.5h-195q-31 0 -31 23q0 8 6 14l371 406l-371 405q-6 6 -6 14q0 23 31 23h195q24 0 36 -6.5t25 -20.5l332 -364q16 -17 16 -51zM741 578q0 -35 -16 -52l-332 -364q-17 -17 -27 -22t-34 -5h-195
q-31 0 -31 23q0 7 7 14l370 406l-370 405q-7 7 -7 14q0 23 31 23h195q24 0 35.5 -6t25.5 -21l332 -364q16 -17 16 -51z" />
    <glyph glyph-name="ellipsis" unicode="&#x2026;" horiz-adv-x="1440" 
d="M1331 41q0 -18 -12 -29.5t-29 -11.5h-184q-17 0 -29 12t-12 29v231q0 16 11.5 27.5t29.5 11.5h184q18 0 29.5 -10.5t11.5 -28.5v-231zM854 41q0 -18 -12 -29.5t-29 -11.5h-184q-17 0 -29 12t-12 29v231q0 16 11.5 27.5t29.5 11.5h184q18 0 29.5 -10.5t11.5 -28.5v-231z
M377 41q0 -17 -13 -29t-28 -12h-184q-17 0 -29 12t-12 29v231q0 16 11.5 27.5t29.5 11.5h184q16 0 28.5 -11.5t12.5 -27.5v-231z" />
    <glyph glyph-name="uni00A0" unicode="&#xa0;" 
 />
    <glyph glyph-name="Agrave" unicode="&#xc0;" horiz-adv-x="1323" 
d="M1284 35q0 -16 -10.5 -25.5t-26.5 -9.5h-217q-13 0 -24.5 10.5t-14.5 24.5l-94 389h-471l-94 -389q-3 -14 -14.5 -24.5t-24.5 -10.5h-217q-16 0 -26.5 9.5t-10.5 25.5q1 2 1.5 4t0.5 6l336 1284q54 209 285 209q230 0 284 -209l336 -1284q1 -3 1.5 -5t0.5 -5zM842 657
l-148 609q-5 19 -11 25.5t-21 6.5t-21.5 -6.5t-11.5 -25.5l-148 -609h361zM889 1640q0 -14 -18 -14h-176q-16 0 -21.5 3t-26.5 24l-243 254q-8 8 -8 16q0 14 22 14h217q19 0 28 -5.5t25 -24.5l193 -246q8 -8 8 -21z" />
    <glyph glyph-name="Atilde" unicode="&#xc3;" horiz-adv-x="1323" 
d="M1284 35q0 -16 -10.5 -25.5t-26.5 -9.5h-217q-13 0 -24.5 10.5t-14.5 24.5l-94 389h-471l-94 -389q-3 -14 -14.5 -24.5t-24.5 -10.5h-217q-16 0 -26.5 9.5t-10.5 25.5q1 2 1.5 4t0.5 6l336 1284q54 209 285 209q230 0 284 -209l336 -1284q1 -3 1.5 -5t0.5 -5zM842 657
l-148 609q-5 19 -11 25.5t-21 6.5t-21.5 -6.5t-11.5 -25.5l-148 -609h361zM1087 1842q0 -229 -228 -229q-35 0 -73 12t-70 35l-90 68q-58 43 -86 43q-57 0 -57 -70v-43q0 -33 -29 -33h-117q-28 0 -28 33v43q0 230 229 230q80 0 141 -46l90 -67q53 -41 86 -41q58 0 58 68v43
q0 32 28 32h117q29 0 29 -32v-46z" />
    <glyph glyph-name="Otilde" unicode="&#xd5;" horiz-adv-x="1393" 
d="M1280 623q0 -218 -74 -361.5t-206 -210.5t-304 -67q-173 0 -304.5 67.5t-205 211t-73.5 360.5v276q0 217 73.5 360.5t205 211t304.5 67.5q172 0 304 -67t206 -210.5t74 -361.5v-276zM993 623v276q0 202 -72.5 296.5t-224.5 94.5q-151 0 -224 -94.5t-73 -296.5v-276
q0 -201 73 -296.5t224 -95.5q152 0 224.5 95.5t72.5 296.5zM1095 1844q0 -229 -228 -229q-35 0 -73 12t-70 35l-90 68q-58 43 -86 43q-57 0 -57 -70v-43q0 -33 -29 -33h-117q-28 0 -28 33v43q0 230 229 230q80 0 141 -46l90 -67q53 -41 86 -41q58 0 58 68v43q0 32 28 32h117
q29 0 29 -32v-46z" />
    <glyph glyph-name="OE" unicode="&#x152;" horiz-adv-x="2028" 
d="M1905 55q0 -38 -41 -43q-24 -3 -57.5 -8.5t-97 -10.5t-103.5 -7t-131 -2q-133 0 -228 27.5t-155 103.5q-75 -70 -169.5 -100.5t-215.5 -30.5q-172 0 -304 67t-206 210.5t-74 361.5v276q0 218 74 361.5t206 210.5t304 67q241 0 385 -131q94 131 383 131q163 0 238.5 -7.5
t150.5 -21.5q41 -5 41 -43v-131q0 -15 -13 -28t-28 -13h-418q-90 0 -126 -38t-36 -138v-221h555q19 0 30 -11t11 -30v-147q0 -18 -12 -29.5t-29 -11.5h-555v-265q0 -99 36 -137.5t126 -38.5h418q17 0 29 -12t12 -29v-131zM1001 573v375q0 342 -294 342q-152 0 -224.5 -94.5
t-72.5 -296.5v-276q0 -201 72.5 -296.5t224.5 -95.5q294 0 294 342z" />
    <glyph glyph-name="oe" unicode="&#x153;" horiz-adv-x="1896" 
d="M1794 535q0 -52 -41 -52h-672v-12v-8q2 -63 26 -123t75 -96.5t129 -36.5q182 0 397 20h6q37 0 37 -30v-125q0 -27 -8.5 -37.5t-34.5 -16.5q-97 -18 -186 -26t-211 -8q-102 0 -199 34.5t-164 112.5q-128 -147 -356 -147q-157 0 -267 65t-166.5 182t-56.5 263v165
q0 146 56.5 263t166.5 182t267 65q229 0 358 -151q64 75 153.5 113t203.5 38q153 0 263 -68.5t167 -186.5t57 -265v-114zM1526 676v8q0 130 -59.5 194t-159.5 64q-63 0 -114.5 -26.5t-81.5 -80.5t-30 -130v-13v-16h445zM811 494v165q0 128 -56.5 202.5t-162.5 74.5
t-162.5 -74.5t-56.5 -202.5v-165q0 -128 57 -202.5t162 -74.5t162 74.5t57 202.5z" />
    <glyph glyph-name="endash" unicode="&#x2013;" horiz-adv-x="834" 
d="M764 524q0 -16 -11.5 -26.5t-27.5 -10.5h-616q-16 0 -27.5 10.5t-11.5 26.5v129q0 17 11 28t28 11h616q17 0 28 -11t11 -28v-129z" />
    <glyph glyph-name="emdash" unicode="&#x2014;" horiz-adv-x="1100" 
d="M1032 524q0 -16 -12 -26.5t-29 -10.5h-882q-16 0 -27.5 10.5t-11.5 26.5v129q0 17 11 28t28 11h882q18 0 29.5 -10.5t11.5 -28.5v-129z" />
    <glyph glyph-name="quotedblleft" unicode="&#x201c;" horiz-adv-x="852" 
d="M813 1538q0 -12 -2 -18l-104 -424q-9 -39 -41 -39h-193q-22 0 -22 22q0 11 2 17l139 424q11 39 39 39h164q18 0 18 -21zM401 1538q0 -12 -2 -18l-104 -424q-8 -39 -41 -39h-193q-22 0 -22 22q0 11 2 17l139 424q11 39 39 39h164q18 0 18 -21z" />
    <glyph glyph-name="quotedblright" unicode="&#x201d;" horiz-adv-x="852" 
d="M813 1536q0 -10 -2 -16l-139 -424q-11 -39 -39 -39h-164q-18 0 -18 20q0 13 2 19l104 424q8 39 41 39h193q22 0 22 -23zM401 1536q0 -10 -2 -16l-139 -424q-11 -39 -39 -39h-164q-18 0 -18 20q0 13 2 19l104 424q10 39 41 39h193q22 0 22 -23z" />
    <glyph glyph-name="quoteleft" unicode="&#x2018;" horiz-adv-x="440" 
d="M401 1538q0 -12 -2 -18l-104 -424q-8 -39 -41 -39h-193q-22 0 -22 22q0 11 2 17l139 424q11 39 39 39h164q18 0 18 -21z" />
    <glyph glyph-name="quoteright" unicode="&#x2019;" horiz-adv-x="440" 
d="M401 1536q0 -10 -2 -16l-139 -424q-11 -39 -39 -39h-164q-18 0 -18 20q0 13 2 19l104 424q10 39 41 39h193q22 0 22 -23z" />
    <glyph glyph-name="divide" unicode="&#xf7;" 
d="M778 1110q0 -18 -12 -29.5t-29 -11.5h-184q-17 0 -29 12t-12 29v211q0 16 11.5 27.5t29.5 11.5h184q18 0 29.5 -10.5t11.5 -28.5v-211zM1102 729q0 -15 -12.5 -24t-28.5 -9h-830q-16 0 -28.5 9t-12.5 24v143q0 33 41 33h830q41 0 41 -33v-143zM778 260q0 -17 -11.5 -28
t-29.5 -11h-184q-18 0 -29.5 11.5t-11.5 27.5v211q0 17 11.5 29t29.5 12h184q19 0 30 -11t11 -30v-211z" />
    <glyph glyph-name="lozenge" unicode="&#x25ca;" horiz-adv-x="1012" 
d="M549 1422l418 -713l-418 -709h-111l-391 709l391 713h111zM495 1325l-340 -616l340 -615l359 615z" />
    <glyph glyph-name="ydieresis" unicode="&#xff;" horiz-adv-x="1147" 
d="M1096 1120q0 -8 -2 -12l-342 -1196q-33 -118 -78 -187t-124.5 -102t-215.5 -33q-52 0 -115.5 8t-101.5 19q-43 11 -43 35v131q0 15 12 26t29 11h4q27 -1 114.5 -7t116.5 -6q45 0 75.5 11t51 39.5t35.5 81.5l16 61h-30q-57 0 -103 33.5t-76 136.5l-268 938q-2 6 -2 14
q0 33 39 33h207q14 0 25 -11t14 -26l207 -833q10 -45 28 -45h2h11h6l221 880q7 35 41 35h209q14 0 25.5 -10.5t11.5 -24.5zM908 1350q0 -18 -13.5 -29.5t-29.5 -11.5h-148q-16 0 -29.5 11.5t-13.5 29.5v180q0 16 13.5 28.5t29.5 12.5h148q16 0 29.5 -12.5t13.5 -28.5v-180z
M498 1350q0 -18 -13.5 -29.5t-29.5 -11.5h-148q-16 0 -29.5 11.5t-13.5 29.5v180q0 16 13.5 28.5t29.5 12.5h148q16 0 29.5 -12.5t13.5 -28.5v-180z" />
    <glyph glyph-name="Ydieresis" unicode="&#x178;" horiz-adv-x="1260" 
d="M1208 1491q0 -4 -4 -16l-311 -711q-52 -119 -125 -150v-573q0 -18 -11.5 -29.5t-27.5 -11.5h-205q-16 0 -27.5 11.5t-11.5 29.5v573q-73 31 -125 150l-309 711q-4 12 -4 16q0 14 8.5 22.5t24.5 8.5h227q27 0 39 -33l246 -610q16 -41 35 -41t37 41l245 610q12 33 39 33
h226q15 0 24.5 -8.5t9.5 -22.5zM961 1677q0 -18 -13.5 -29.5t-29.5 -11.5h-148q-16 0 -29.5 11.5t-13.5 29.5v180q0 16 13.5 28.5t29.5 12.5h148q16 0 29.5 -12.5t13.5 -28.5v-180zM551 1677q0 -18 -13.5 -29.5t-29.5 -11.5h-148q-16 0 -29.5 11.5t-13.5 29.5v180
q0 16 13.5 28.5t29.5 12.5h148q16 0 29.5 -12.5t13.5 -28.5v-180z" />
    <glyph glyph-name="fraction" unicode="&#x2215;" horiz-adv-x="602" 
d="M948 1505q0 -13 -8 -24l-858 -1452q-12 -22 -20 -28.5t-23 -6.5h-168q-21 0 -21 18q0 13 9 25l858 1450q13 21 20.5 28t24.5 7h166q20 0 20 -17z" />
    <glyph glyph-name="Euro" unicode="&#x20ac;" 
d="M1167 63q0 -32 -45 -47q-120 -32 -299 -32q-215 0 -394.5 124.5t-205.5 405.5h-78q-15 0 -28 12t-13 29v98q0 17 12 29t29 12h74v140h-74q-15 0 -28 12t-13 28v99q0 15 13 28t28 13h78q17 154 77 256t148 161t184 83t193 24q173 0 297 -33q45 -13 45 -47v-137
q0 -43 -39 -43h-6q-192 16 -293 16q-123 0 -208 -67t-109 -213h504q13 0 23 -9t10 -22q0 -3 -0.5 -5t-1.5 -5l-27 -99q-11 -40 -41 -40h-473v-140h422q14 0 23.5 -8.5t9.5 -21.5q0 -2 -1 -5l-2 -6l-26 -98q-11 -41 -41 -41h-381q23 -147 108 -217t209 -70q70 0 158.5 7
t136.5 10h6q39 0 39 -43v-138z" />
    <glyph glyph-name="guilsinglleft" unicode="&#x2039;" horiz-adv-x="823" 
d="M717 158q0 -23 -31 -23h-194q-23 0 -32 4t-30 23l-332 364q-16 17 -16 52q0 34 16 51l332 364q16 16 27.5 21.5t34.5 5.5h194q31 0 31 -23q0 -8 -6 -14l-371 -405l371 -406q6 -6 6 -14z" />
    <glyph glyph-name="guilsinglright" unicode="&#x203a;" horiz-adv-x="823" 
d="M741 578q0 -35 -16 -52l-332 -364q-17 -17 -27 -22t-34 -5h-195q-31 0 -31 23q0 7 7 14l370 406l-370 405q-7 7 -7 14q0 23 31 23h195q24 0 35.5 -6t25.5 -21l332 -364q16 -17 16 -51z" />
    <glyph glyph-name="uniF001" unicode="&#xf001;" horiz-adv-x="1346" 
d="M1212 1350q0 -18 -12 -29.5t-29 -11.5h-198q-16 0 -29.5 11.5t-13.5 29.5v180q0 16 13.5 28.5t29.5 12.5h198q17 0 29 -12t12 -29v-180zM1206 43q0 -18 -11.5 -30.5t-29.5 -12.5h-188q-18 0 -29.5 13.5t-11.5 29.5v1071q0 17 11.5 29t29.5 12h188q19 0 30 -11t11 -30
v-1071zM768 1413q0 -35 -31 -35h-92q-52 0 -76 -9.5t-34.5 -36.5t-10.5 -77v-100h197q17 0 29 -12t12 -29v-123q0 -16 -12.5 -27.5t-28.5 -11.5h-197v-909q0 -18 -11.5 -30.5t-29.5 -12.5h-186q-17 0 -30 13t-13 30v909l-182 29q-41 7 -41 39v94q0 17 11.5 29t29.5 12h182
v100q0 127 43 199.5t119.5 100.5t191.5 28q45 0 123 -16q37 -9 37 -33v-121z" />
    <glyph glyph-name="uniF001" unicode="&#xfb01;" horiz-adv-x="1346" 
d="M1212 1350q0 -18 -12 -29.5t-29 -11.5h-198q-16 0 -29.5 11.5t-13.5 29.5v180q0 16 13.5 28.5t29.5 12.5h198q17 0 29 -12t12 -29v-180zM1206 43q0 -18 -11.5 -30.5t-29.5 -12.5h-188q-18 0 -29.5 13.5t-11.5 29.5v1071q0 17 11.5 29t29.5 12h188q19 0 30 -11t11 -30
v-1071zM768 1413q0 -35 -31 -35h-92q-52 0 -76 -9.5t-34.5 -36.5t-10.5 -77v-100h197q17 0 29 -12t12 -29v-123q0 -16 -12.5 -27.5t-28.5 -11.5h-197v-909q0 -18 -11.5 -30.5t-29.5 -12.5h-186q-17 0 -30 13t-13 30v909l-182 29q-41 7 -41 39v94q0 17 11.5 29t29.5 12h182
v100q0 127 43 199.5t119.5 100.5t191.5 28q45 0 123 -16q37 -9 37 -33v-121z" />
    <glyph glyph-name="uniF002" unicode="&#xf002;" horiz-adv-x="1350" 
d="M1206 43q0 -17 -11 -30t-28 -13h-190q-18 0 -29.5 13.5t-11.5 29.5v1475q0 15 12 28t29 13h190q16 0 27.5 -12.5t11.5 -28.5v-1475zM768 1413q0 -35 -31 -35h-92q-52 0 -76 -9.5t-34.5 -36.5t-10.5 -77v-100h197q17 0 29 -12t12 -29v-123q0 -16 -12.5 -27.5t-28.5 -11.5
h-197v-909q0 -18 -11.5 -30.5t-29.5 -12.5h-186q-17 0 -30 13t-13 30v909l-182 29q-41 7 -41 39v94q0 17 11.5 29t29.5 12h182v100q0 127 43 199.5t119.5 100.5t191.5 28q45 0 123 -16q37 -9 37 -33v-121z" />
    <glyph glyph-name="uniF002" unicode="&#xfb02;" horiz-adv-x="1350" 
d="M1206 43q0 -17 -11 -30t-28 -13h-190q-18 0 -29.5 13.5t-11.5 29.5v1475q0 15 12 28t29 13h190q16 0 27.5 -12.5t11.5 -28.5v-1475zM768 1413q0 -35 -31 -35h-92q-52 0 -76 -9.5t-34.5 -36.5t-10.5 -77v-100h197q17 0 29 -12t12 -29v-123q0 -16 -12.5 -27.5t-28.5 -11.5
h-197v-909q0 -18 -11.5 -30.5t-29.5 -12.5h-186q-17 0 -30 13t-13 30v909l-182 29q-41 7 -41 39v94q0 17 11.5 29t29.5 12h182v100q0 127 43 199.5t119.5 100.5t191.5 28q45 0 123 -16q37 -9 37 -33v-121z" />
    <glyph glyph-name="daggerdbl" unicode="&#x2021;" horiz-adv-x="870" 
d="M805 547q0 -33 -39 -33h-203v-485q0 -41 -33 -41h-208q-33 0 -33 41v485h-183q-38 0 -38 33v164q0 30 38 30h183v203h-183q-38 0 -38 33v164q0 30 38 30h183v349q0 39 35 39h206q15 0 24 -11t9 -28v-349h203q39 0 39 -30v-164q0 -33 -39 -33h-203v-203h203q39 0 39 -30
v-164z" />
    <glyph glyph-name="periodcentered" unicode="&#x2219;" horiz-adv-x="530" 
d="M397 674q0 -18 -12 -29.5t-29 -11.5h-182q-15 0 -28 12t-13 29v231q0 16 12.5 27.5t28.5 11.5h182q18 0 29.5 -10.5t11.5 -28.5v-231z" />
    <glyph glyph-name="quotesinglbase" unicode="&#x201a;" horiz-adv-x="440" 
d="M416 287q0 -1 -4 -15l-179 -430q-9 -23 -16 -32t-22 -9h-142q-30 0 -30 29q0 8 2 12l125 430q12 39 40 39h197q13 0 21 -6.5t8 -17.5z" />
    <glyph glyph-name="quotedblbase" unicode="&#x201e;" horiz-adv-x="852" 
d="M846 287q0 -1 -4 -15l-178 -430q-7 -18 -15.5 -29.5t-23.5 -11.5h-142q-30 0 -30 29q0 8 2 12l125 430q12 39 41 39h196q29 0 29 -24zM416 287q0 -1 -4 -15l-179 -430q-9 -23 -16 -32t-22 -9h-142q-30 0 -30 29q0 8 2 12l125 430q12 39 40 39h197q13 0 21 -6.5t8 -17.5z
" />
    <glyph glyph-name="perthousand" unicode="&#x2030;" horiz-adv-x="2380" 
d="M2298 332q0 -114 -34 -191.5t-99 -115t-158 -37.5q-139 0 -216 86t-77 258v168q0 114 35 191.5t100 115t158 37.5t157.5 -37.5t99 -115.5t34.5 -191v-168zM1581 332q0 -173 -75.5 -258.5t-215.5 -85.5q-139 0 -216 86t-77 258v168q0 114 35 191.5t100 115t158 37.5
q140 0 215.5 -85t75.5 -259v-168zM1380 1505q0 -11 -8 -24l-854 -1444q-15 -26 -23.5 -34.5t-23.5 -8.5h-172q-20 0 -20 18q0 14 8 25l854 1444q14 23 24 32t25 9h172q18 0 18 -17zM666 1022q0 -114 -34 -191.5t-99 -115t-158 -37.5q-141 0 -217 86t-76 258v168
q0 172 75.5 257t217.5 85t216.5 -85t74.5 -257v-168zM2124 332v168q0 104 -29 147t-88 43q-60 0 -89.5 -42.5t-29.5 -147.5v-168q0 -106 29.5 -148.5t89.5 -42.5q59 0 88 43t29 148zM1407 332v168q0 104 -29 147t-88 43q-58 0 -88.5 -43.5t-30.5 -146.5v-168
q0 -104 30.5 -147.5t88.5 -43.5q59 0 88 43t29 148zM492 1022v168q0 104 -29 147t-88 43q-60 0 -89.5 -42.5t-29.5 -147.5v-168q0 -105 30 -149t89 -44q58 0 87.5 44.5t29.5 148.5z" />
    <glyph glyph-name="Acircumflex" unicode="&#xc2;" horiz-adv-x="1323" 
d="M1284 35q0 -16 -10.5 -25.5t-26.5 -9.5h-217q-13 0 -24.5 10.5t-14.5 24.5l-94 389h-471l-94 -389q-3 -14 -14.5 -24.5t-24.5 -10.5h-217q-16 0 -26.5 9.5t-10.5 25.5q1 2 1.5 4t0.5 6l336 1284q54 209 285 209q230 0 284 -209l336 -1284q1 -3 1.5 -5t0.5 -5zM842 657
l-148 609q-5 19 -11 25.5t-21 6.5t-21.5 -6.5t-11.5 -25.5l-148 -609h361zM1042 1640q0 -14 -19 -14h-170q-11 0 -18.5 3t-14.5 10l-14 14l-145 166l-145 -166q-13 -14 -22.5 -20.5t-27.5 -6.5h-170q-18 0 -18 14q0 13 8 21l189 246q15 19 24.5 24.5t28.5 5.5h266
q19 0 28 -5.5t25 -24.5l187 -246q8 -8 8 -21z" />
    <glyph glyph-name="Ecircumflex" unicode="&#xca;" horiz-adv-x="1180" 
d="M1057 55q0 -38 -41 -43q-24 -3 -57.5 -8.5t-97 -10.5t-103.5 -7t-131 -2q-147 0 -250 34.5t-163 127t-60 257.5v715q0 165 60 258t163 127.5t250 34.5q163 0 238.5 -7.5t150.5 -21.5q24 -3 32.5 -12t8.5 -31v-131q0 -15 -13 -28t-28 -13h-418q-90 0 -126 -38t-36 -138
v-221h555q19 0 30 -11t11 -30v-147q0 -18 -12 -29.5t-29 -11.5h-555v-265q0 -99 36 -137.5t126 -38.5h418q17 0 29 -12t12 -29v-131zM991 1642q0 -14 -19 -14h-170q-11 0 -18.5 3t-14.5 10l-14 14l-145 166l-145 -166q-13 -14 -22.5 -20.5t-27.5 -6.5h-170q-18 0 -18 14
q0 13 8 21l189 246q15 19 24.5 24.5t28.5 5.5h266q19 0 28 -5.5t25 -24.5l187 -246q8 -8 8 -21z" />
    <glyph glyph-name="Aacute" unicode="&#xc1;" horiz-adv-x="1323" 
d="M1284 35q0 -16 -10.5 -25.5t-26.5 -9.5h-217q-13 0 -24.5 10.5t-14.5 24.5l-94 389h-471l-94 -389q-3 -14 -14.5 -24.5t-24.5 -10.5h-217q-16 0 -26.5 9.5t-10.5 25.5q1 2 1.5 4t0.5 6l336 1284q54 209 285 209q230 0 284 -209l336 -1284q1 -3 1.5 -5t0.5 -5zM842 657
l-148 609q-5 19 -11 25.5t-21 6.5t-21.5 -6.5t-11.5 -25.5l-148 -609h361zM1006 1923q0 -8 -8 -16l-241 -254q-13 -14 -22.5 -20.5t-27.5 -6.5h-176q-18 0 -18 14q0 13 8 21l195 246q15 19 24.5 24.5t28.5 5.5h215q22 0 22 -14z" />
    <glyph glyph-name="Edieresis" unicode="&#xcb;" horiz-adv-x="1180" 
d="M1057 55q0 -38 -41 -43q-24 -3 -57.5 -8.5t-97 -10.5t-103.5 -7t-131 -2q-147 0 -250 34.5t-163 127t-60 257.5v715q0 165 60 258t163 127.5t250 34.5q163 0 238.5 -7.5t150.5 -21.5q24 -3 32.5 -12t8.5 -31v-131q0 -15 -13 -28t-28 -13h-418q-90 0 -126 -38t-36 -138
v-221h555q19 0 30 -11t11 -30v-147q0 -18 -12 -29.5t-29 -11.5h-555v-265q0 -99 36 -137.5t126 -38.5h418q17 0 29 -12t12 -29v-131zM918 1688q0 -18 -13.5 -29.5t-29.5 -11.5h-148q-16 0 -29.5 11.5t-13.5 29.5v180q0 16 13.5 28.5t29.5 12.5h148q16 0 29.5 -12.5
t13.5 -28.5v-180zM508 1688q0 -18 -13.5 -29.5t-29.5 -11.5h-148q-16 0 -29.5 11.5t-13.5 29.5v180q0 16 13.5 28.5t29.5 12.5h148q16 0 29.5 -12.5t13.5 -28.5v-180z" />
    <glyph glyph-name="Egrave" unicode="&#xc8;" horiz-adv-x="1180" 
d="M1057 55q0 -38 -41 -43q-24 -3 -57.5 -8.5t-97 -10.5t-103.5 -7t-131 -2q-147 0 -250 34.5t-163 127t-60 257.5v715q0 165 60 258t163 127.5t250 34.5q163 0 238.5 -7.5t150.5 -21.5q24 -3 32.5 -12t8.5 -31v-131q0 -15 -13 -28t-28 -13h-418q-90 0 -126 -38t-36 -138
v-221h555q19 0 30 -11t11 -30v-147q0 -18 -12 -29.5t-29 -11.5h-555v-265q0 -99 36 -137.5t126 -38.5h418q17 0 29 -12t12 -29v-131zM825 1640q0 -14 -18 -14h-176q-16 0 -21.5 3t-26.5 24l-243 254q-8 8 -8 16q0 14 22 14h217q19 0 28 -5.5t25 -24.5l193 -246q8 -8 8 -21z
" />
    <glyph glyph-name="Iacute" unicode="&#xcd;" horiz-adv-x="592" 
d="M438 41q0 -18 -12 -29.5t-29 -11.5h-202q-17 0 -29 12t-12 29v1442q0 16 11.5 27.5t29.5 11.5h202q18 0 29.5 -10.5t11.5 -28.5v-1442zM620 1923q0 -8 -8 -16l-241 -254q-13 -14 -22.5 -20.5t-27.5 -6.5h-176q-18 0 -18 14q0 13 8 21l195 246q15 19 24.5 24.5t28.5 5.5
h215q22 0 22 -14z" />
    <glyph glyph-name="Icircumflex" unicode="&#xce;" horiz-adv-x="592" 
d="M438 41q0 -18 -12 -29.5t-29 -11.5h-202q-17 0 -29 12t-12 29v1442q0 16 11.5 27.5t29.5 11.5h202q18 0 29.5 -10.5t11.5 -28.5v-1442zM680 1640q0 -14 -19 -14h-170q-11 0 -18.5 3t-14.5 10l-14 14l-145 166l-145 -166q-13 -14 -22.5 -20.5t-27.5 -6.5h-170
q-18 0 -18 14q0 13 8 21l189 246q15 19 24.5 24.5t28.5 5.5h266q19 0 28 -5.5t25 -24.5l187 -246q8 -8 8 -21z" />
    <glyph glyph-name="Idieresis" unicode="&#xcf;" horiz-adv-x="592" 
d="M438 41q0 -18 -12 -29.5t-29 -11.5h-202q-17 0 -29 12t-12 29v1442q0 16 11.5 27.5t29.5 11.5h202q18 0 29.5 -10.5t11.5 -28.5v-1442zM616 1688q0 -18 -13.5 -29.5t-29.5 -11.5h-148q-16 0 -29.5 11.5t-13.5 29.5v180q0 16 13.5 28.5t29.5 12.5h148q16 0 29.5 -12.5
t13.5 -28.5v-180zM206 1688q0 -18 -13.5 -29.5t-29.5 -11.5h-148q-16 0 -29.5 11.5t-13.5 29.5v180q0 16 13.5 28.5t29.5 12.5h148q16 0 29.5 -12.5t13.5 -28.5v-180z" />
    <glyph glyph-name="Igrave" unicode="&#xcc;" horiz-adv-x="592" 
d="M438 41q0 -18 -12 -29.5t-29 -11.5h-202q-17 0 -29 12t-12 29v1442q0 16 11.5 27.5t29.5 11.5h202q18 0 29.5 -10.5t11.5 -28.5v-1442zM473 1640q0 -14 -18 -14h-176q-16 0 -21.5 3t-26.5 24l-243 254q-8 8 -8 16q0 14 22 14h217q19 0 28 -5.5t25 -24.5l193 -246
q8 -8 8 -21z" />
    <glyph glyph-name="Oacute" unicode="&#xd3;" horiz-adv-x="1393" 
d="M1280 623q0 -218 -74 -361.5t-206 -210.5t-304 -67q-173 0 -304.5 67.5t-205 211t-73.5 360.5v276q0 217 73.5 360.5t205 211t304.5 67.5q172 0 304 -67t206 -210.5t74 -361.5v-276zM993 623v276q0 202 -72.5 296.5t-224.5 94.5q-151 0 -224 -94.5t-73 -296.5v-276
q0 -201 73 -296.5t224 -95.5q152 0 224.5 95.5t72.5 296.5zM999 1923q0 -8 -8 -16l-241 -254q-13 -14 -22.5 -20.5t-27.5 -6.5h-176q-18 0 -18 14q0 13 8 21l195 246q15 19 24.5 24.5t28.5 5.5h215q22 0 22 -14z" />
    <glyph glyph-name="Ocircumflex" unicode="&#xd4;" horiz-adv-x="1393" 
d="M1280 623q0 -218 -74 -361.5t-206 -210.5t-304 -67q-173 0 -304.5 67.5t-205 211t-73.5 360.5v276q0 217 73.5 360.5t205 211t304.5 67.5q172 0 304 -67t206 -210.5t74 -361.5v-276zM993 623v276q0 202 -72.5 296.5t-224.5 94.5q-151 0 -224 -94.5t-73 -296.5v-276
q0 -201 73 -296.5t224 -95.5q152 0 224.5 95.5t72.5 296.5zM1073 1642q0 -14 -19 -14h-170q-11 0 -18.5 3t-14.5 10l-14 14l-145 166l-145 -166q-13 -14 -22.5 -20.5t-27.5 -6.5h-170q-18 0 -18 14q0 13 8 21l189 246q15 19 24.5 24.5t28.5 5.5h266q19 0 28 -5.5t25 -24.5
l187 -246q8 -8 8 -21z" />
    <glyph glyph-name="Ograve" unicode="&#xd2;" horiz-adv-x="1393" 
d="M1280 623q0 -218 -74 -361.5t-206 -210.5t-304 -67q-173 0 -304.5 67.5t-205 211t-73.5 360.5v276q0 217 73.5 360.5t205 211t304.5 67.5q172 0 304 -67t206 -210.5t74 -361.5v-276zM993 623v276q0 202 -72.5 296.5t-224.5 94.5q-151 0 -224 -94.5t-73 -296.5v-276
q0 -201 73 -296.5t224 -95.5q152 0 224.5 95.5t72.5 296.5zM872 1640q0 -14 -18 -14h-176q-16 0 -21.5 3t-26.5 24l-243 254q-8 8 -8 16q0 14 22 14h217q19 0 28 -5.5t25 -24.5l193 -246q8 -8 8 -21z" />
    <glyph glyph-name="Uacute" unicode="&#xda;" horiz-adv-x="1413" 
d="M1270 563q0 -161 -40 -272t-114.5 -178t-177.5 -98t-231 -31t-231.5 31t-177.5 98.5t-114.5 179.5t-40.5 270v920q0 16 12.5 27.5t28.5 11.5h203q18 0 29.5 -10.5t11.5 -28.5v-920q0 -123 24.5 -197t85 -110.5t169.5 -36.5t169 36.5t84.5 110.5t24.5 197v920
q0 16 12.5 27.5t28.5 11.5h203q16 0 28.5 -11.5t12.5 -27.5v-920zM1048 1923q0 -8 -8 -16l-241 -254q-13 -14 -22.5 -20.5t-27.5 -6.5h-176q-18 0 -18 14q0 13 8 21l195 246q15 19 24.5 24.5t28.5 5.5h215q22 0 22 -14z" />
    <glyph glyph-name="Ucircumflex" unicode="&#xdb;" horiz-adv-x="1413" 
d="M1270 563q0 -161 -40 -272t-114.5 -178t-177.5 -98t-231 -31t-231.5 31t-177.5 98.5t-114.5 179.5t-40.5 270v920q0 16 12.5 27.5t28.5 11.5h203q18 0 29.5 -10.5t11.5 -28.5v-920q0 -123 24.5 -197t85 -110.5t169.5 -36.5t169 36.5t84.5 110.5t24.5 197v920
q0 16 12.5 27.5t28.5 11.5h203q16 0 28.5 -11.5t12.5 -27.5v-920zM1087 1640q0 -14 -19 -14h-170q-11 0 -18.5 3t-14.5 10l-14 14l-145 166l-145 -166q-13 -14 -22.5 -20.5t-27.5 -6.5h-170q-18 0 -18 14q0 13 8 21l189 246q15 19 24.5 24.5t28.5 5.5h266q19 0 28 -5.5
t25 -24.5l187 -246q8 -8 8 -21z" />
    <glyph glyph-name="Ugrave" unicode="&#xd9;" horiz-adv-x="1413" 
d="M1270 563q0 -161 -40 -272t-114.5 -178t-177.5 -98t-231 -31t-231.5 31t-177.5 98.5t-114.5 179.5t-40.5 270v920q0 16 12.5 27.5t28.5 11.5h203q18 0 29.5 -10.5t11.5 -28.5v-920q0 -123 24.5 -197t85 -110.5t169.5 -36.5t169 36.5t84.5 110.5t24.5 197v920
q0 16 12.5 27.5t28.5 11.5h203q16 0 28.5 -11.5t12.5 -27.5v-920zM868 1640q0 -14 -18 -14h-176q-16 0 -21.5 3t-26.5 24l-243 254q-8 8 -8 16q0 14 22 14h217q19 0 28 -5.5t25 -24.5l193 -246q8 -8 8 -21z" />
    <glyph glyph-name="dotlessi" unicode="&#x131;" horiz-adv-x="549" 
d="M410 43q0 -16 -12.5 -29.5t-28.5 -13.5h-189q-16 0 -28.5 13.5t-12.5 29.5v1071q0 17 12 29t29 12h189q17 0 29 -12t12 -29v-1071z" />
    <glyph glyph-name="circumflex" unicode="&#x2c6;" horiz-adv-x="850" 
d="M807 1298q0 -14 -19 -14h-170q-11 0 -18.5 3t-14.5 10l-14 14l-145 166l-145 -166q-13 -14 -22.5 -20.5t-27.5 -6.5h-170q-18 0 -18 14q0 13 8 21l189 246q15 19 24.5 24.5t28.5 5.5h266q19 0 28 -5.5t25 -24.5l187 -246q8 -8 8 -21z" />
    <glyph glyph-name="tilde" unicode="&#x2dc;" horiz-adv-x="1016" 
d="M887 1513q0 -229 -228 -229q-35 0 -73 12t-70 35l-90 68q-58 43 -86 43q-57 0 -57 -70v-43q0 -33 -29 -33h-117q-28 0 -28 33v43q0 230 229 230q80 0 141 -46l90 -67q53 -41 86 -41q58 0 58 68v43q0 32 28 32h117q29 0 29 -32v-46z" />
    <glyph glyph-name="macron" unicode="&#x2c9;" horiz-adv-x="850" 
d="M784 1393q0 -18 -12 -27.5t-29 -9.5h-634q-17 0 -29 10t-12 27v116q0 17 11 27t30 10h634q19 0 30 -9.5t11 -27.5v-116z" />
    <glyph glyph-name="breve" unicode="&#x2d8;" horiz-adv-x="850" 
d="M791 1581q0 -1 -1 -3t-2 -5q-17 -82 -62 -150t-119.5 -107.5t-180.5 -39.5q-154 0 -243.5 82.5t-119.5 214.5q0 4 -0.5 5.5t-1.5 2.5q0 14 21 14h154q20 0 26 -24q36 -135 164 -135t164 135q6 24 26 24h154q21 0 21 -14z" />
    <glyph glyph-name="dotaccent" unicode="&#x2d9;" horiz-adv-x="850" 
d="M559 1341q0 -17 -12 -29t-29 -12h-184q-17 0 -29 13t-12 28v195q0 16 11.5 27.5t29.5 11.5h184q18 0 29.5 -10.5t11.5 -28.5v-195z" />
    <glyph glyph-name="ring" unicode="&#x2da;" horiz-adv-x="850" 
d="M651 1450q0 -61 -30 -113t-82 -82t-113 -30q-60 0 -113 30t-83.5 81.5t-30.5 113.5q0 93 66 160t161 67t160 -66.5t65 -160.5zM524 1452q0 41 -29.5 68.5t-68.5 27.5t-66.5 -27.5t-27.5 -68.5q0 -40 27 -69t67 -29t69 29t29 69z" />
    <glyph glyph-name="cedilla" unicode="&#xb8;" horiz-adv-x="825" 
d="M606 -84q0 -8 -8 -16l-244 -252q-19 -21 -25.5 -25t-21.5 -4h-176q-18 0 -18 14q0 13 8 21l192 246q18 20 26.5 25t27.5 5h217q22 0 22 -14z" />
    <glyph glyph-name="hungarumlaut" unicode="&#x2dd;" horiz-adv-x="850" 
d="M936 1581q0 -8 -8 -16l-242 -254q-15 -16 -23 -21.5t-26 -5.5h-176q-19 0 -19 14q0 13 9 21l194 246q26 30 53 30h215q23 0 23 -14zM506 1581q0 -8 -8 -16l-242 -254q-14 -16 -23 -21.5t-26 -5.5h-176q-19 0 -19 14q0 13 8 21l195 246q15 19 24.5 24.5t28.5 5.5h215
q23 0 23 -14z" />
    <glyph glyph-name="ogonek" unicode="&#x2db;" horiz-adv-x="825" 
d="M672 -354q0 -18 -23 -23q-94 -24 -174 -24q-146 0 -231.5 70t-85.5 202q0 81 28 186q3 12 7.5 15.5t19.5 3.5h164q18 0 18 -15q0 -3 -0.5 -5t-1.5 -5q-14 -82 -14 -129q0 -145 145 -145q50 0 115 14q6 2 16 2q17 0 17 -16v-131z" />
    <glyph glyph-name="caron" unicode="&#x2c7;" horiz-adv-x="850" 
d="M813 1581q0 -12 -8 -20l-193 -246q-16 -20 -25 -25.5t-28 -5.5h-266q-19 0 -28.5 6.5t-24.5 24.5l-195 246q-8 8 -8 20q0 14 18 14h176q24 0 50 -28l145 -162l145 162q21 21 26 24.5t21 3.5h177q18 0 18 -14z" />
    <glyph glyph-name="Lslash" unicode="&#x141;" horiz-adv-x="1057" 
d="M154 403v168l-105 -131q-9 -12 -20 -12q-15 0 -15 14v209q0 23 15 41l125 158v633q0 17 11 28t28 11h204q17 0 29 -12t12 -29v-361l125 150q11 14 23 14t12 -16v-207q0 -27 -16 -45l-144 -174v-439q0 -100 35.5 -138t124.5 -38h377q17 0 29 -12t12 -29v-131q0 -21 -9 -30
t-32 -13q-47 -11 -160.5 -19.5t-187.5 -8.5q-147 0 -250 34.5t-163 127t-60 257.5z" />
    <glyph glyph-name="lslash" unicode="&#x142;" horiz-adv-x="557" 
d="M571 1006q0 -21 -14 -37l-141 -174v-752q0 -17 -11 -30t-28 -13h-195q-16 0 -28.5 13.5t-12.5 29.5v492l-125 -144q-12 -12 -20 -12q-10 0 -10 12v236q0 18 12 32l143 175v684q0 15 13 28t28 13h195q16 0 27.5 -12.5t11.5 -28.5v-424l125 147q10 10 16 10q7 0 10.5 -6
t3.5 -14v-225z" />
    <glyph glyph-name="Scaron" unicode="&#x160;" horiz-adv-x="1167" 
d="M1075 412q0 -179 -127.5 -303.5t-410.5 -124.5q-203 0 -363 36q-39 10 -39 41v148q0 16 11.5 27.5t27.5 11.5h4q56 -6 125 -10.5t132 -7.5t106 -3q130 0 183.5 45.5t53.5 139.5q0 58 -36 99t-138 101l-270 162q-92 56 -146 114.5t-75 122.5t-21 138q0 120 50.5 205.5
t165 134.5t296.5 49q98 0 220.5 -12t172.5 -25q37 -7 37 -39v-151q0 -17 -9.5 -27t-25.5 -10h-4q-225 20 -403 20q-215 0 -215 -145q0 -51 34.5 -88.5t133.5 -93.5l246 -138q161 -88 222.5 -187.5t61.5 -229.5zM956 1925q0 -12 -8 -20l-193 -246q-16 -20 -25 -25.5t-28 -5.5
h-266q-19 0 -28.5 6.5t-24.5 24.5l-195 246q-8 8 -8 20q0 14 18 14h176q24 0 50 -28l145 -162l145 162q21 21 26 24.5t21 3.5h177q18 0 18 -14z" />
    <glyph glyph-name="scaron" unicode="&#x161;" horiz-adv-x="1001" 
d="M909 303q0 -90 -45 -162.5t-136.5 -114.5t-219.5 -42q-69 0 -175 9.5t-192 31.5q-39 10 -39 47v123q0 12 10 22t25 10h8q182 -22 344 -22q86 0 116 25.5t30 72.5q0 30 -21 53t-69 52l-281 172q-79 49 -125.5 122t-46.5 160q0 307 389 307q120 0 198.5 -10.5t166.5 -30.5
q37 -9 37 -47v-118q0 -39 -33 -39h-8q-174 24 -338 24q-75 0 -108.5 -19t-33.5 -67q0 -23 15.5 -37t66.5 -47l269 -164q82 -50 125 -101t57 -102t14 -108zM886 1581q0 -12 -8 -20l-193 -246q-16 -20 -25 -25.5t-28 -5.5h-266q-19 0 -28.5 6.5t-24.5 24.5l-195 246
q-8 8 -8 20q0 14 18 14h176q24 0 50 -28l145 -162l145 162q21 21 26 24.5t21 3.5h177q18 0 18 -14z" />
    <glyph glyph-name="Zcaron" unicode="&#x17d;" horiz-adv-x="1204" 
d="M1122 41q0 -18 -12 -29.5t-29 -11.5h-895q-104 0 -104 76v112q0 39 27 78l649 973q6 9 6 18q0 17 -21 17h-569q-16 0 -27.5 9.5t-11.5 27.5v172q0 17 11 28t28 11h825q48 0 78.5 -20t30.5 -58v-119q0 -41 -29 -84l-639 -956q-8 -12 -8 -23q0 -12 19 -12h630q19 0 30 -9.5
t11 -27.5v-172zM1022 1923q0 -12 -8 -20l-193 -246q-16 -20 -25 -25.5t-28 -5.5h-266q-19 0 -28.5 6.5t-24.5 24.5l-195 246q-8 8 -8 20q0 14 18 14h176q24 0 50 -28l145 -162l145 162q21 21 26 24.5t21 3.5h177q18 0 18 -14z" />
    <glyph glyph-name="zcaron" unicode="&#x17e;" horiz-adv-x="1004" 
d="M922 41q0 -17 -13 -29t-28 -12h-717q-34 0 -58 24t-24 58v88q0 30 27 66l495 682q6 9 6 12q0 6 -12 6h-463q-15 0 -26 8.5t-11 24.5v145q0 17 12 29t29 12h697q33 0 57.5 -24.5t24.5 -59.5v-117q0 -32 -11 -47l-477 -653l-4 -6q0 -8 12 -8h447q16 0 26.5 -9t10.5 -24
v-166zM919 1581q0 -12 -8 -20l-193 -246q-16 -20 -25 -25.5t-28 -5.5h-266q-19 0 -28.5 6.5t-24.5 24.5l-195 246q-8 8 -8 20q0 14 18 14h176q24 0 50 -28l145 -162l145 162q21 21 26 24.5t21 3.5h177q18 0 18 -14z" />
    <glyph glyph-name="brokenbar" unicode="&#xa6;" horiz-adv-x="561" 
d="M418 743q0 -17 -11 -30t-28 -13h-195q-16 0 -28.5 13.5t-12.5 29.5v707q0 17 12 29t29 12h195q18 0 28.5 -11.5t10.5 -29.5v-707zM418 -389q0 -17 -11 -30t-28 -13h-195q-16 0 -28.5 13.5t-12.5 29.5v706q0 17 12 29t29 12h195q18 0 28.5 -11.5t10.5 -29.5v-706z" />
    <glyph glyph-name="Eth" unicode="&#xd0;" horiz-adv-x="1366" 
d="M1253 610q0 -200 -75.5 -341t-219 -213t-348.5 -72q-49 0 -147.5 4t-159.5 9.5t-97 10.5q-53 9 -53 64v596h-119q-17 0 -28 11t-11 28v153q0 18 10.5 27.5t28.5 9.5h119v553q0 54 53 63q34 6 100 11.5t160.5 9.5t143.5 4q205 0 348.5 -72t219 -213.5t75.5 -341.5v-301z
M970 610v301q0 146 -45 232t-125 120.5t-190 34.5q-48 0 -63 -0.5t-48 -2t-61 -3.5v-395h145q39 0 39 -37v-153q0 -17 -11 -28t-28 -11h-145v-439q50 -2 90 -4t82 -2q110 0 189.5 34.5t125 120t45.5 232.5z" />
    <glyph glyph-name="eth" unicode="&#xf0;" horiz-adv-x="1176" 
d="M1077 518q0 -174 -55.5 -293.5t-165 -180t-266.5 -60.5q-249 0 -370.5 140.5t-121.5 393.5v82q0 173 56.5 292.5t166.5 180t267 60.5q95 0 149 -29q-65 101 -256 199l-155 -119q-18 -13 -27 -13q-8 0 -23 13l-59 65q-6 6 -6 17q0 19 20 32l93 70q-61 21 -105 31
q-33 8 -33 31q0 6 2 10l43 119q9 22 29 22q10 0 16 -2q130 -32 230 -72l174 133q10 9 27 9t24 -11l60 -63q8 -8 8 -16q0 -13 -21 -29l-121 -92q150 -83 243 -197t135 -270.5t42 -370.5v-82zM805 518v82q0 158 -51 231.5t-166 73.5q-76 0 -124 -33t-70.5 -100.5t-22.5 -171.5
v-82q0 -156 51.5 -230.5t167.5 -74.5q113 0 164 73t51 232z" />
    <glyph glyph-name="Yacute" unicode="&#xdd;" horiz-adv-x="1260" 
d="M1208 1491q0 -4 -4 -16l-311 -711q-52 -119 -125 -150v-573q0 -18 -11.5 -29.5t-27.5 -11.5h-205q-16 0 -27.5 11.5t-11.5 29.5v573q-73 31 -125 150l-309 711q-4 12 -4 16q0 14 8.5 22.5t24.5 8.5h227q27 0 39 -33l246 -610q16 -41 35 -41t37 41l245 610q12 33 39 33
h226q15 0 24.5 -8.5t9.5 -22.5zM985 1923q0 -8 -8 -16l-241 -254q-13 -14 -22.5 -20.5t-27.5 -6.5h-176q-18 0 -18 14q0 13 8 21l195 246q15 19 24.5 24.5t28.5 5.5h215q22 0 22 -14z" />
    <glyph glyph-name="yacute" unicode="&#xfd;" horiz-adv-x="1147" 
d="M1096 1120q0 -8 -2 -12l-342 -1196q-33 -118 -78 -187t-124.5 -102t-215.5 -33q-52 0 -115.5 8t-101.5 19q-43 11 -43 35v131q0 15 12 26t29 11h4q27 -1 114.5 -7t116.5 -6q45 0 75.5 11t51 39.5t35.5 81.5l16 61h-30q-57 0 -103 33.5t-76 136.5l-268 938q-2 6 -2 14
q0 33 39 33h207q14 0 25 -11t14 -26l207 -833q10 -45 28 -45h2h11h6l221 880q7 35 41 35h209q14 0 25.5 -10.5t11.5 -24.5zM964 1581q0 -8 -8 -16l-241 -254q-13 -14 -22.5 -20.5t-27.5 -6.5h-176q-18 0 -18 14q0 13 8 21l195 246q15 19 24.5 24.5t28.5 5.5h215q22 0 22 -14
z" />
    <glyph glyph-name="Thorn" unicode="&#xde;" horiz-adv-x="1282" 
d="M1210 858q0 -137 -46.5 -230t-128.5 -149.5t-188.5 -82t-234.5 -25.5q-31 0 -74.5 2t-101.5 4v-336q0 -19 -10 -30t-27 -11h-206q-16 0 -27.5 11.5t-11.5 29.5v1442q0 17 11 28t28 11h206q18 0 27.5 -10.5t9.5 -28.5v-129q70 4 170 4q128 0 236 -24t191 -79t130 -146.5
t47 -225.5v-25zM926 858v25q0 64 -19.5 109.5t-59.5 72.5t-98.5 39t-136.5 12q-114 0 -176 -4v-496q62 -4 176 -4q106 0 176 25.5t104 80t34 140.5z" />
    <glyph glyph-name="thorn" unicode="&#xfe;" horiz-adv-x="1182" 
d="M1090 502q0 -120 -29.5 -215.5t-90.5 -163.5t-152.5 -103.5t-209.5 -35.5q-50 0 -107.5 3.5t-97.5 12.5v-362q0 -19 -10 -30t-26 -11h-193q-15 0 -28 12t-13 29v1880q0 16 11.5 28.5t27.5 12.5h195q16 0 26 -11.5t10 -29.5v-363q109 14 205 14q116 0 207.5 -35
t151.5 -101t91.5 -162t31.5 -222v-147zM819 502v147q0 115 -28 181t-81 92t-132 26q-47 0 -175 -16v-711q99 -16 181 -16q119 0 177 64.5t58 232.5z" />
    <glyph glyph-name="minus" unicode="&#x2212;" 
d="M1122 729q0 -16 -11.5 -24.5t-29.5 -8.5h-870q-18 0 -29.5 9t-11.5 24v143q0 33 41 33h870q41 0 41 -33v-143z" />
    <glyph glyph-name="multiply" unicode="&#xd7;" 
d="M1065 1087q0 -16 -16 -32l-256 -256l256 -254q14 -14 14 -31q0 -12 -10 -22l-101 -101q-10 -10 -20 -10q-15 0 -31 16l-256 254l-254 -254q-16 -16 -33 -16q-10 0 -20 10l-100 101q-11 9 -11 20q0 18 17 33l254 254l-256 256q-17 15 -17 32q0 12 11 21l100 100
q11 11 20 11q16 0 33 -17l256 -256l256 256q17 17 33 17q9 0 20 -11l101 -100q10 -10 10 -21z" />
    <glyph glyph-name="onesuperior" unicode="&#xb9;" horiz-adv-x="610" 
d="M426 707q0 -23 -20 -23h-142q-20 0 -20 23v636l-138 -57q-12 -4 -14 -4q-10 0 -10 12v125q0 16 16 21l170 73q12 9 23 9h112q23 0 23 -21v-794z" />
    <glyph glyph-name="twosuperior" unicode="&#xb2;" horiz-adv-x="707" 
d="M629 1315q0 -65 -31.5 -113.5t-105.5 -99.5l-101 -68q-86 -58 -112.5 -96.5t-26.5 -91.5v-4h340q10 0 19.5 -8t9.5 -17v-108q0 -11 -9.5 -18t-19.5 -7h-483q-12 0 -20.5 8.5t-8.5 18.5v94q0 114 45 190.5t145 143.5l113 75q40 27 53 48t13 53q0 40 -29 55.5t-109 15.5
q-83 0 -190 -14h-4q-25 0 -25 25v84q0 17 27 24q37 13 96.5 23t120.5 10q149 0 221 -53t72 -170z" />
    <glyph glyph-name="threesuperior" unicode="&#xb3;" horiz-adv-x="707" 
d="M625 1307q0 -120 -99 -183q97 -57 97 -174v-20q0 -114 -80.5 -180t-223.5 -66q-52 0 -112 8.5t-105 24.5q-20 8 -20 24v82q0 25 22 25h5q95 -10 139 -10q105 0 151.5 18.5t46.5 73.5v20q0 41 -21.5 72t-76.5 31h-201q-26 0 -26 26v88q0 27 26 27h193q57 0 81.5 27.5
t24.5 66.5v10q0 54 -41.5 70t-119.5 16h-41q-24 0 -73 -5.5l-58 -6.5h-4q-23 0 -23 25v84q0 18 25 26q93 31 208 31q306 0 306 -217v-14z" />
    <glyph glyph-name="onehalf" unicode="&#xbd;" horiz-adv-x="1630" 
d="M1548 623q0 -65 -31.5 -113.5t-105.5 -99.5l-100 -68q-87 -59 -113.5 -93.5t-26.5 -86.5v-4h340q11 0 20 -7t9 -18v-108q0 -12 -9 -18.5t-20 -6.5h-483q-10 0 -19.5 8.5t-9.5 18.5v94q0 109 45.5 183.5t145.5 141.5l113 76q41 28 53 47.5t12 53.5q0 40 -29 55.5
t-108 15.5q-82 0 -191 -14h-4q-24 0 -24 25v83q0 18 26 25q106 33 217 33q151 0 222 -53.5t71 -169.5zM1286 1505q0 -13 -8 -24l-858 -1452q-12 -22 -20 -28.5t-23 -6.5h-174q-21 0 -21 18q0 14 8 25l859 1450q13 21 20.5 28t24.5 7h172q20 0 20 -17zM426 707q0 -23 -20 -23
h-142q-20 0 -20 23v636l-138 -57q-12 -4 -14 -4q-10 0 -10 12v125q0 16 16 21l170 73q12 9 23 9h112q23 0 23 -21v-794z" />
    <glyph glyph-name="onequarter" unicode="&#xbc;" horiz-adv-x="1573" 
d="M1491 219q0 -10 -8.5 -18t-20.5 -8h-67v-164q0 -12 -8.5 -20.5t-18.5 -8.5h-129q-9 0 -17 9t-8 20v164h-317q-11 0 -17 4t-6 14v104q0 27 13 45l344 469q9 13 24 13h95q17 0 31 -12.5t14 -32.5v-461h67q13 0 21 -6.5t8 -18.5v-92zM1286 1505q0 -13 -8 -24l-858 -1452
q-12 -22 -20 -28.5t-23 -6.5h-174q-21 0 -21 18q0 14 8 25l859 1450q13 21 20.5 28t24.5 7h172q20 0 20 -17zM426 707q0 -23 -20 -23h-142q-20 0 -20 23v636l-138 -57q-12 -4 -14 -4q-10 0 -10 12v125q0 16 16 21l170 73q12 9 23 9h112q23 0 23 -21v-794zM1221 336v268
q0 6 -2 6q-4 0 -7 -6l-174 -237q-8 -10 -8 -19q0 -12 14 -12h177z" />
    <glyph glyph-name="threequarters" unicode="&#xbe;" horiz-adv-x="1753" 
d="M1630 219q0 -10 -8.5 -18t-19.5 -8h-68v-164q0 -12 -8.5 -20.5t-18.5 -8.5h-129q-10 0 -17 9t-7 20v164h-318q-10 0 -16 4t-6 14v104q0 28 12 45l344 469q9 13 25 13h94q17 0 31 -12.5t14 -32.5v-461h68q12 0 20 -6.5t8 -18.5v-92zM1425 1505q0 -13 -8 -24l-858 -1452
q-13 -23 -20.5 -29t-22.5 -6h-174q-20 0 -20 18q0 14 8 25l858 1450q13 21 20.5 28t24.5 7h172q20 0 20 -17zM625 1307q0 -120 -99 -183q97 -57 97 -174v-20q0 -114 -80.5 -180t-223.5 -66q-52 0 -112 8.5t-105 24.5q-20 8 -20 24v82q0 25 22 25h5q95 -10 139 -10
q105 0 151.5 18.5t46.5 73.5v20q0 41 -21.5 72t-76.5 31h-201q-26 0 -26 26v88q0 27 26 27h193q57 0 81.5 27.5t24.5 66.5v10q0 54 -41.5 70t-119.5 16h-41q-24 0 -73 -5.5l-58 -6.5h-4q-23 0 -23 25v84q0 18 25 26q93 31 208 31q306 0 306 -217v-14zM1360 336v268q0 6 -2 6
q-3 0 -6 -6l-174 -237q-9 -11 -9 -19q0 -3 4.5 -7.5t10.5 -4.5h176z" />
    <glyph glyph-name="uni00AD" unicode="&#xad;" horiz-adv-x="657" 
d="M569 565q0 -16 -11.5 -26.5t-27.5 -10.5h-401q-17 0 -29 11t-12 26v129q0 16 11.5 27.5t29.5 11.5h401q17 0 28 -11t11 -28v-129z" />
    <glyph glyph-name="uni00AF" unicode="&#xaf;" horiz-adv-x="1071" 
d="M1135 1642q0 -32 -41 -32h-1117q-40 0 -40 32v80q0 33 40 33h1117q41 0 41 -33v-80z" />
    <glyph glyph-name="uni00B7" unicode="&#xb7;" horiz-adv-x="530" 
d="M397 674q0 -18 -12 -29.5t-29 -11.5h-182q-15 0 -28 12t-13 29v231q0 16 12.5 27.5t28.5 11.5h182q18 0 29.5 -10.5t11.5 -28.5v-231z" />
    <glyph glyph-name="uni2044" unicode="&#x2044;" horiz-adv-x="602" 
d="M948 1505q0 -13 -8 -24l-858 -1452q-12 -22 -20 -28.5t-23 -6.5h-168q-21 0 -21 18q0 13 9 25l858 1450q13 21 20.5 28t24.5 7h166q20 0 20 -17z" />
    <glyph glyph-name="currency" unicode="&#xa4;" 
d="M1169 1151q0 -17 -14 -31l-174 -172q53 -86 53 -186q0 -106 -55 -195l170 -172q14 -14 14 -30q0 -13 -10 -23l-96 -98q-11 -11 -23 -11q-15 0 -30 15l-177 176q-82 -49 -180 -49q-103 0 -186 51l-174 -172q-22 -16 -33 -16q-9 0 -21 10l-96 98q-10 13 -10 25q0 16 14 30
l172 170q-55 94 -55 191q0 98 49 180l-172 172q-14 14 -14 31q0 14 10 24l98 99q12 10 21 10q15 0 33 -16l168 -168q90 55 196 55q99 0 189 -53l172 172q14 14 30 14q13 0 23 -10l98 -98q10 -12 10 -23zM838 766q0 52 -25.5 94.5t-69 67t-94.5 24.5t-94.5 -24.5t-69.5 -66.5
t-26 -95q0 -77 57 -134t133 -57q78 0 133.5 56.5t55.5 134.5z" />
    </font>
</defs>
</svg>
