<?xml version="1.0" standalone="no"?>
<!DOCTYPE svg PUBLIC "-//W3C//DTD SVG 1.1//EN" "http://www.w3.org/Graphics/SVG/1.1/DTD/svg11.dtd" >
<svg>
<metadata>
Created by FontForge 20090622 at Fri Oct 14 11:07:02 2016
 By deploy user
Digitized data (C) 2004 Agfa Monotype Corporation. Neo Sans(TM) is a trademark of Agfa Monotype Corporation and may be registered in certain jurisdictions.  All rights reserved. Neo Sans is designed by Sebastian Lester.
</metadata>
<defs>
<font id="NeoSans-Bold" horiz-adv-x="1321" >
  <font-face 
    font-family="Neo Sans"
    font-weight="700"
    font-stretch="normal"
    units-per-em="2048"
    panose-1="2 11 8 4 2 2 2 2 2 4"
    ascent="1638"
    descent="-410"
    x-height="1174"
    cap-height="1522"
    bbox="-190 -442 2365 2073"
    underline-thickness="102"
    underline-position="-154"
    unicode-range="U+0020-U+F006"
  />
<missing-glyph horiz-adv-x="1024" 
d="M51 0v1536h922v-1536h-922zM179 128h666v1280h-666v-1280z" />
    <glyph glyph-name=".notdef" horiz-adv-x="1024" 
d="M51 0v1536h922v-1536h-922zM179 128h666v1280h-666v-1280z" />
    <glyph glyph-name=".null" horiz-adv-x="0" 
 />
    <glyph glyph-name="nonmarkingreturn" horiz-adv-x="532" 
 />
    <glyph glyph-name="space" unicode=" " horiz-adv-x="532" 
 />
    <glyph glyph-name="exclam" unicode="!" horiz-adv-x="559" 
d="M451 1532v-2l-41 -1022q0 -16 -12.5 -29.5t-28.5 -13.5h-174q-18 0 -31.5 13.5t-13.5 29.5l-41 1022v2q0 15 14 27t31 12h256q15 0 28 -12t13 -27zM440 41q0 -18 -11.5 -29.5t-27.5 -11.5h-241q-17 0 -29 12t-12 29v258q0 16 11.5 27.5t29.5 11.5h241q17 0 28 -11t11 -28
v-258z" />
    <glyph glyph-name="quotedbl" unicode="&#x22;" horiz-adv-x="967" 
d="M920 1548q0 -6 -5 -16l-153 -449q-15 -39 -39 -39h-207q-18 0 -18 21q0 12 2 18l110 449q8 39 41 39h244q25 0 25 -23zM471 1548q0 -4 -4 -16l-154 -449q-9 -23 -16.5 -31t-22.5 -8h-206q-19 0 -19 21q0 12 2 18l111 449q8 39 41 39h243q25 0 25 -23z" />
    <glyph glyph-name="numbersign" unicode="#" horiz-adv-x="1432" 
d="M1333 1104v-4l-24 -156q-3 -22 -31 -22h-174l-31 -330h172q14 0 25.5 -8.5t11.5 -20.5v-4l-22 -145q-1 -10 -11.5 -20.5t-21.5 -10.5h-172l-29 -344q-4 -39 -37 -39h-209q-32 0 -32 35v4l28 344h-231l-31 -344q-2 -16 -12.5 -27.5t-24.5 -11.5h-211q-13 0 -23 11t-10 24
v4l29 344h-174q-29 0 -29 27v4l25 153q3 25 29 25h170l28 330h-174q-28 0 -28 24v4l24 158q2 11 11.5 16.5t21.5 5.5h164l30 353q2 16 13.5 27.5t25.5 11.5h211q14 0 22.5 -10.5t8.5 -24.5v-4l-31 -353h232l32 353q6 39 39 39h209q31 0 31 -35v-4l-33 -353h178
q14 0 24.5 -6.5t10.5 -19.5zM825 922h-231l-31 -330h232z" />
    <glyph glyph-name="dollar" unicode="$" 
d="M1178 430q0 -73 -21 -140.5t-66.5 -125.5t-117 -100.5t-176.5 -65.5v-193q0 -15 -13 -28t-28 -13h-226q-15 0 -28 13t-13 28v183q-140 8 -260 39q-39 12 -39 41v200q0 16 11.5 27.5t27.5 11.5h4q63 -7 201 -15.5t187 -8.5q103 0 143.5 34.5t40.5 108.5q0 45 -27 76
t-108 80l-283 168q-91 54 -145 115.5t-76.5 129t-22.5 146.5q0 325 346 385v176q0 15 13 28t28 13h226q15 0 28 -13t13 -28v-168q90 -6 171 -16.5t128 -22.5q39 -12 39 -39v-203q0 -16 -11 -26t-26 -10h-4q-75 7 -137.5 11t-144.5 7.5t-153 3.5q-83 0 -120 -26t-37 -83
q0 -38 27 -68t110 -75l260 -141q100 -54 163 -119t89.5 -137t26.5 -160z" />
    <glyph glyph-name="percent" unicode="%" horiz-adv-x="1718" 
d="M1640 340q0 -176 -77 -264t-224 -88q-96 0 -164 38.5t-103.5 117t-35.5 196.5v154q0 118 35.5 196t103.5 117t164 39q147 0 224 -88t77 -264v-154zM1430 1505q0 -12 -9 -24l-852 -1438q-15 -26 -23.5 -34.5t-23.5 -8.5h-211q-22 0 -22 23q0 8 6 20l852 1438q25 41 51 41
h211q21 0 21 -17zM684 1028q0 -174 -78 -263t-225 -89q-146 0 -224.5 89t-78.5 263v154q0 174 78 262t225 88q99 0 165.5 -38.5t102 -115.5t35.5 -196v-154zM1436 340v154q0 99 -24.5 136.5t-72.5 37.5t-73 -38t-25 -136v-154q0 -98 25 -136t73 -38t72.5 37.5t24.5 136.5z
M477 1028v154q0 99 -24 136.5t-72 37.5t-73 -38t-25 -136v-154q0 -97 25 -136.5t73 -39.5q49 0 72.5 38.5t23.5 137.5z" />
    <glyph glyph-name="ampersand" unicode="&#x26;" horiz-adv-x="1499" 
d="M1462 25q0 -25 -24 -25h-291q-19 0 -35 16l-61 66q-161 -100 -381 -100q-258 0 -413 97t-155 304v18q0 84 32.5 155t91.5 129t149 114l-17 18q-106 120 -144 197.5t-38 152.5v19q0 159 122 256.5t364 97.5q223 0 344.5 -97t121.5 -257v-19q0 -87 -35 -156.5t-89 -117.5
t-146 -109l-63 -41l266 -280q18 44 26.5 102.5t8.5 151.5v16q0 17 9.5 29t27.5 12h190q18 0 28.5 -11.5t10.5 -29.5v-16q0 -126 -25.5 -234t-93.5 -213l209 -221q10 -10 10 -24zM823 1167v19q0 58 -41 91.5t-120 33.5q-88 0 -135.5 -33.5t-47.5 -91.5v-19q0 -50 21 -93
t94 -118l16 -16l54 33q95 60 127 99t32 95zM874 266l-313 334q-69 -41 -94 -87.5t-25 -111.5v-18q0 -78 61.5 -121t166.5 -43q118 0 204 47z" />
    <glyph glyph-name="quotesingle" unicode="'" horiz-adv-x="518" 
d="M471 1548q0 -4 -4 -16l-154 -449q-9 -23 -16.5 -31t-22.5 -8h-206q-19 0 -19 21q0 12 2 18l111 449q8 39 41 39h243q25 0 25 -23z" />
    <glyph glyph-name="parenleft" unicode="(" horiz-adv-x="739" 
d="M672 -377q0 -20 -25 -20h-205q-49 0 -69 28q-134 189 -201.5 407t-67.5 505v37q0 287 67 505.5t202 407.5q20 29 69 29h205q25 0 25 -21q0 -11 -10 -33q-63 -114 -112 -246.5t-79.5 -295t-30.5 -346.5v-37q0 -272 60.5 -484.5t161.5 -402.5q10 -20 10 -33z" />
    <glyph glyph-name="parenright" unicode=")" horiz-adv-x="739" 
d="M635 543q0 -145 -17.5 -275.5t-51 -238.5t-84 -208t-115.5 -190q-22 -28 -70 -28h-205q-24 0 -24 20q0 13 10 33q62 116 111 247.5t79.5 293.5t30.5 346v37q0 184 -30.5 347t-79.5 294t-111 247q-10 22 -10 33q0 21 24 21h205q49 0 70 -29q65 -90 116 -190t84 -208.5
t50.5 -239t17.5 -275.5v-37z" />
    <glyph glyph-name="asterisk" unicode="*" horiz-adv-x="981" 
d="M911 1167q0 -20 -30 -30l-236 -70l148 -201q10 -17 10 -28q0 -18 -12 -25l-107 -78q-9 -6 -18 -6q-20 0 -33 21l-141 204l-142 -204q-13 -21 -33 -21q-9 0 -18 6l-109 78q-14 8 -14 25q0 8 12 28l148 201l-234 70q-32 11 -32 32q0 7 2 11l41 129q6 20 26 20q7 0 23 -4
l235 -78l-6 244q0 43 33 43h135q31 0 31 -43l-2 -244l231 78q16 4 23 4q20 0 26 -20l41 -129q2 -4 2 -13z" />
    <glyph glyph-name="plus" unicode="+" 
d="M1174 709q0 -33 -41 -33h-349v-346q0 -41 -32 -41h-185q-32 0 -32 41v346h-347q-41 0 -41 33v184q0 15 12.5 24t28.5 9h347v348q0 41 32 41h185q32 0 32 -41v-348h349q16 0 28.5 -9t12.5 -24v-184z" />
    <glyph glyph-name="comma" unicode="," horiz-adv-x="561" 
d="M473 313q0 -6 -4 -14l-197 -459q-10 -23 -17 -32t-22 -9h-180q-13 0 -24 9t-11 22q1 3 1.5 5t0.5 5l132 459q9 39 41 39h249q31 0 31 -25z" />
    <glyph glyph-name="hyphen" unicode="-" horiz-adv-x="618" 
d="M549 541q0 -17 -12.5 -27t-28.5 -10h-397q-17 0 -29 10t-12 27v164q0 17 11.5 27.5t29.5 10.5h397q16 0 28.5 -10.5t12.5 -27.5v-164z" />
    <glyph glyph-name="period" unicode="." horiz-adv-x="561" 
d="M442 41q0 -18 -12 -29.5t-29 -11.5h-239q-16 0 -29.5 11.5t-13.5 29.5v258q0 17 13 28t30 11h239q18 0 29.5 -10.5t11.5 -28.5v-258z" />
    <glyph glyph-name="slash" unicode="/" horiz-adv-x="829" 
d="M801 1489q0 -2 -0.5 -3.5l-1.5 -4.5l-432 -1438q-13 -43 -41 -43h-260q-15 0 -27 11t-12 24q1 2 1.5 4t0.5 4l434 1438q11 41 41 41h260q13 0 25 -10t12 -23z" />
    <glyph glyph-name="zero" unicode="0" 
d="M1212 672q0 -358 -141 -524t-412 -166q-269 0 -409.5 166t-140.5 524v176q0 359 140.5 525.5t409.5 166.5q553 0 553 -692v-176zM862 672v176q0 152 -25.5 241.5t-71 124.5t-106.5 35q-62 0 -106 -34.5t-69 -123t-25 -243.5v-176q0 -157 25 -244.5t68.5 -121.5t106.5 -34
t107.5 34.5t70 123.5t25.5 242z" />
    <glyph glyph-name="one" unicode="1" 
d="M868 41q0 -18 -11.5 -29.5t-27.5 -11.5h-268q-15 0 -28 12t-13 29v1130l-229 -94q-15 -6 -25 -6q-22 0 -22 27v233q0 20 20 29l334 153q18 9 47 9h184q17 0 28 -11t11 -28v-1442z" />
    <glyph glyph-name="two" unicode="2" 
d="M1167 1149q0 -121 -59.5 -214t-175.5 -171l-174 -117q-110 -74 -168.5 -121.5t-93.5 -103.5t-35 -123v-8h647q16 0 28.5 -11.5t12.5 -27.5v-211q0 -17 -13 -29t-28 -12h-911q-17 0 -29 12t-12 29v209q0 106 36 204.5t99 178t143 137.5l189 133q128 91 153.5 111.5t40 49
t14.5 77.5q0 68 -47.5 95.5t-169.5 27.5t-403 -27h-4q-17 0 -27 12t-10 29v160q0 26 39 39q96 28 210 45.5t226 17.5q141 0 241.5 -24t161 -72t90 -121.5t29.5 -173.5z" />
    <glyph glyph-name="three" unicode="3" 
d="M1159 434q0 -152 -66 -253.5t-186 -150t-282 -48.5q-115 0 -225 15t-199 42q-39 11 -39 39v164q0 16 10.5 26.5t26.5 10.5h4q209 -19 407 -19q106 0 154.5 44t48.5 130v37q0 176 -166 176h-360q-16 0 -27.5 12.5t-11.5 28.5v174q0 17 11 28t28 11h352q92 0 133 51t41 127
v29q0 75 -44.5 114.5t-158.5 39.5q-126 0 -403 -25h-4q-16 0 -26.5 9.5t-10.5 27.5v164q0 25 41 39q209 63 418 63q262 0 398 -98.5t136 -321.5v-28q0 -60 -23 -121t-64.5 -111.5t-94.5 -81.5q84 -43 133 -124.5t49 -182.5v-37z" />
    <glyph glyph-name="four" unicode="4" 
d="M1241 383q0 -18 -12 -29.5t-29 -11.5h-135v-301q0 -18 -11.5 -29.5t-27.5 -11.5h-272q-16 0 -27.5 11.5t-11.5 29.5v301h-592q-17 0 -29 12t-12 29v199q0 32 22 63l648 848q23 29 53 29h219q17 0 29 -12t12 -29v-869h135q19 0 30 -11t11 -30v-188zM725 612v451
q0 12 -8 12q-2 0 -6 -4l-322 -438q-4 -4 -4 -12q0 -9 12 -9h328z" />
    <glyph glyph-name="five" unicode="5" 
d="M1159 483q0 -162 -63 -273.5t-188 -169.5t-302 -58q-94 0 -202 15.5t-201 43.5q-41 12 -41 45v162q0 16 10.5 26.5t26.5 10.5h4q120 -13 220.5 -19t147.5 -6q95 0 146 25.5t70.5 74.5t19.5 123v17q0 70 -26 111t-89.5 59t-175.5 18h-317q-12 0 -20.5 8.5t-8.5 20.5v2
l63 764q3 16 15.5 27.5t25.5 11.5h797q18 0 29.5 -10.5t11.5 -28.5v-205q0 -17 -11.5 -28t-29.5 -11h-557l-25 -283h60q291 0 450.5 -102.5t159.5 -353.5v-17z" />
    <glyph glyph-name="six" unicode="6" 
d="M1206 502q0 -156 -62 -273.5t-184 -182t-294 -64.5q-254 0 -401.5 152.5t-147.5 449.5v313q0 170 39 293t113.5 200.5t178.5 113.5t238 36q130 0 232.5 -11.5t171.5 -29.5q45 -11 45 -45v-178q0 -43 -37 -43h-11q-74 12 -175 20.5t-197 8.5q-92 0 -148 -28t-82 -92.5
t-26 -178.5v-15q50 9 117.5 17t123.5 8q147 0 260.5 -45t179.5 -147.5t66 -264.5v-14zM864 502v14q0 118 -58.5 165.5t-160.5 47.5q-68 0 -186 -20v-125q0 -132 26 -207t70 -102t111 -27q94 0 146 56t52 198z" />
    <glyph glyph-name="seven" unicode="7" 
d="M1161 1305q0 -27 -33 -95l-538 -1171q-17 -39 -51 -39h-281q-37 0 -37 25q0 10 6 22l557 1170q2 4 2 10q0 12 -14 12h-567q-17 0 -30 11t-13 28v205q0 17 13 28t30 11h887q26 0 47.5 -19.5t21.5 -48.5v-149z" />
    <glyph glyph-name="eight" unicode="8" 
d="M1214 436q0 -146 -67.5 -248t-190 -154t-284.5 -52h-23q-161 0 -284.5 52t-191 154t-67.5 248v27q0 98 47 183.5t128 144.5q-166 112 -166 307v22q0 141 65 234.5t186 139.5t283 46h23q252 0 394 -105t142 -315v-22q0 -193 -168 -307q81 -58 127.5 -142.5t46.5 -185.5
v-27zM879 1087v11q0 87 -50 136.5t-157 49.5h-23q-107 0 -157 -50t-50 -136v-11q0 -81 48 -129.5t139 -48.5h63q91 0 139 48.5t48 129.5zM877 446v21q0 81 -45.5 139t-139.5 58h-63q-94 0 -139.5 -59t-45.5 -138v-21q0 -90 53 -148t152 -58h23q99 0 152 57t53 149z" />
    <glyph glyph-name="nine" unicode="9" 
d="M1206 625q0 -169 -39.5 -293t-112.5 -200t-178 -113t-239 -37q-130 0 -226.5 11t-177.5 30q-45 11 -45 45v178q0 43 37 43h11q167 -29 372 -29q138 0 197 66.5t59 232.5v14q-127 -24 -241 -24q-147 0 -260.5 45t-179.5 147.5t-66 264.5v14q0 239 140.5 379.5t399.5 140.5
q256 0 402.5 -152t146.5 -450v-313zM864 813v125q0 195 -53.5 265.5t-153.5 70.5q-93 0 -145.5 -57t-52.5 -197v-14q0 -116 59 -164.5t160 -48.5q69 0 186 20z" />
    <glyph glyph-name="colon" unicode=":" horiz-adv-x="563" 
d="M442 823q0 -17 -11.5 -28t-29.5 -11h-239q-17 0 -30 11t-13 28v258q0 18 12.5 29.5t30.5 11.5h239q19 0 30 -11t11 -30v-258zM442 41q0 -18 -12 -29.5t-29 -11.5h-239q-16 0 -29.5 11.5t-13.5 29.5v258q0 17 13 28t30 11h239q18 0 29.5 -10.5t11.5 -28.5v-258z" />
    <glyph glyph-name="semicolon" unicode=";" horiz-adv-x="563" 
d="M442 823q0 -17 -13 -28t-30 -11h-239q-18 0 -29.5 11.5t-11.5 27.5v258q0 17 11.5 29t29.5 12h239q18 0 30.5 -11.5t12.5 -29.5v-258zM442 309q0 -6 -4 -14l-194 -459q-20 -41 -41 -41h-180q-12 0 -23.5 9.5t-11.5 21.5q1 3 1.5 5t0.5 5l131 459q10 39 41 39h250
q15 0 22.5 -6.5t7.5 -18.5z" />
    <glyph glyph-name="less" unicode="&#x3c;" 
d="M1098 307q0 -9 -7.5 -17.5t-17.5 -8.5h-285q-21 0 -49 22l-477 424q-41 35 -41 74t41 73l477 424q27 23 49 23h285q10 0 17.5 -8.5t7.5 -18.5q0 -12 -13 -24l-530 -469l530 -469q13 -12 13 -25z" />
    <glyph glyph-name="equal" unicode="=" 
d="M1130 971q0 -33 -40 -33h-859q-41 0 -41 33v184q0 33 41 33h859q40 0 40 -33v-184zM1130 446q0 -32 -40 -32h-859q-41 0 -41 32v185q0 15 12.5 24t28.5 9h859q40 0 40 -33v-185z" />
    <glyph glyph-name="greater" unicode="&#x3e;" 
d="M1098 801q0 -36 -43 -74l-475 -424q-27 -22 -50 -22h-284q-25 0 -25 26q0 13 12 25l531 469l-531 469q-12 12 -12 24q0 27 25 27h284q23 0 50 -23l475 -424q43 -37 43 -73z" />
    <glyph glyph-name="question" unicode="?" horiz-adv-x="981" 
d="M883 1188q0 -67 -36 -140t-122 -182l-92 -118l-61 -79t-32 -45t-17 -33.5t-5 -29.5v-57q0 -18 -15.5 -28.5t-33.5 -10.5h-205q-16 0 -27.5 11.5t-11.5 29.5v55q0 89 16 144.5t70 125.5l99 130q54 70 74 115.5t20 90.5v21q0 76 -101 76q-51 0 -93 -2.5t-83.5 -7
t-115.5 -13.5h-7q-34 0 -34 43v182q0 23 7.5 35.5t28.5 18.5q147 43 328 43q223 0 336 -77.5t113 -262.5v-35zM537 39q0 -16 -12.5 -27.5t-28.5 -11.5h-242q-18 0 -29.5 11.5t-11.5 27.5v258q0 15 12 28t29 13h242q15 0 28 -13t13 -28v-258z" />
    <glyph glyph-name="at" unicode="@" horiz-adv-x="1585" 
d="M1518 739q0 -177 -55.5 -304t-155.5 -201t-238.5 -107t-310.5 -33q-104 0 -185.5 33.5t-126.5 100.5t-45 163q1 9 1.5 17t0.5 20l19 238q9 116 61.5 193t140 113t203.5 36q125 0 273 -31q49 -10 49 -55v-9l-57 -612q138 24 199 137t61 301q0 97 -29.5 180.5t-90.5 149
t-154 102.5t-216 37q-134 0 -239.5 -33t-180 -98t-117.5 -159t-55 -213l-30 -328q-4 -50 -4 -70q0 -121 56 -212t171 -142t282 -51q68 0 170 8t132 8h2h8q10 0 13 -3.5t3 -16.5v-80q0 -24 -24 -27q-175 -20 -304 -20q-198 0 -351 62.5t-238.5 184.5t-85.5 293v6q0 39 2 60
l32 338q15 148 72.5 265.5t154.5 201.5t230.5 128t302.5 44q160 0 284 -50t205.5 -135.5t123 -196.5t41.5 -233zM905 803q-58 10 -104 10q-74 0 -104.5 -33t-41.5 -123l-22 -227q-2 -12 -2 -35q0 -58 32.5 -82t108.5 -24q59 0 86 2z" />
    <glyph glyph-name="A" unicode="A" horiz-adv-x="1370" 
d="M1331 33q0 -33 -35 -33h-286q-34 0 -41 37l-74 336h-420l-74 -336q-7 -37 -41 -37h-286q-35 0 -35 33q1 2 1.5 4t0.5 6l305 1270q33 134 122 180.5t218 46.5q84 0 148.5 -17.5t115.5 -67.5t74 -142l305 -1270q1 -3 1.5 -5t0.5 -5zM838 653l-125 566q-6 30 -27 30t-29 -30
l-125 -566h306z" />
    <glyph glyph-name="B" unicode="B" horiz-adv-x="1370" 
d="M1276 440q0 -130 -49.5 -220t-137 -142t-202 -74t-256.5 -22q-91 0 -202.5 6.5t-172.5 17.5q-43 8 -67 21t-35 39t-11 73v1245q0 69 24.5 97t84.5 37q64 9 170.5 15.5t195.5 6.5q205 0 347 -40t221.5 -135.5t79.5 -252.5v-37q0 -99 -46 -180t-126 -121q56 -28 96 -71.5
t63 -103t23 -128.5v-31zM928 1059v31q0 86 -64.5 124.5t-218.5 38.5q-127 0 -156 -2v-354h230q209 0 209 162zM936 449v22q0 82 -51.5 132t-165.5 50h-230v-383q52 0 89.5 -0.5t78.5 -1.5q150 0 214.5 45t64.5 136z" />
    <glyph glyph-name="C" unicode="C" horiz-adv-x="1149" 
d="M1065 63q0 -19 -9.5 -28.5t-35.5 -18.5q-104 -34 -305 -34q-124 0 -230.5 34.5t-191.5 110.5t-134.5 204t-49.5 302v258q0 175 49.5 302t135 203.5t191.5 110t230 33.5q99 0 186.5 -11.5t118.5 -23.5q45 -12 45 -45v-198q0 -41 -39 -41h-6q-103 8 -160 12t-143 4
q-77 0 -133 -31t-88.5 -107.5t-32.5 -207.5v-258q0 -131 32.5 -207.5t88.5 -107.5t133 -31q28 0 77 2t85.5 4t81.5 5.5t59 4.5h6q39 0 39 -41v-199z" />
    <glyph glyph-name="D" unicode="D" horiz-adv-x="1397" 
d="M1292 629q0 -161 -44.5 -283t-129.5 -203t-206.5 -121t-272.5 -40q-122 0 -248 10t-188 20q-60 9 -60 72v1354q0 62 60 71q38 7 105 14t160.5 12t170.5 5q155 0 275 -40.5t204.5 -120.5t129 -201.5t44.5 -284.5v-264zM942 629v264q0 133 -36 210.5t-102.5 108.5
t-164.5 31q-89 0 -145 -4v-956q56 -4 145 -4q98 0 164.5 31t102.5 108.5t36 210.5z" />
    <glyph glyph-name="E" unicode="E" horiz-adv-x="1188" 
d="M1073 51q0 -37 -41 -43q-73 -10 -164 -18t-233 -8q-110 0 -197 18.5t-155 65.5t-107 135t-39 221v680q0 176 66.5 273t175.5 131t258 34q142 0 239.5 -8.5t155.5 -18.5q41 -6 41 -40v-191q0 -17 -12 -29t-29 -12h-416q-73 0 -102 -30t-29 -109v-187h531q17 0 29 -12
t12 -29v-194q0 -17 -13 -29t-28 -12h-531v-217q0 -78 29 -108.5t102 -30.5h416q17 0 29 -12t12 -29v-191z" />
    <glyph glyph-name="F" unicode="F" horiz-adv-x="1190" 
d="M1073 1280q0 -18 -12 -29.5t-29 -11.5h-416q-73 0 -102 -30t-29 -109v-185h531q17 0 29 -12t12 -29v-194q0 -17 -13 -29t-28 -12h-531v-598q0 -18 -12 -29.5t-29 -11.5h-266q-15 0 -28 12t-13 29v1059q0 176 66.5 273t175.5 131t258 34q142 0 239.5 -8.5t155.5 -18.5
q41 -6 41 -41v-190z" />
    <glyph glyph-name="G" unicode="G" 
d="M1188 1245q0 -15 -7.5 -20.5t-23.5 -5.5h-6q-15 1 -172.5 8.5t-253.5 7.5q-133 0 -200.5 -79t-67.5 -269v-256q0 -191 68 -269.5t161 -78.5q85 0 158 6v471q0 16 11.5 28.5t27.5 12.5h262q15 0 28 -13t13 -28v-688q0 -23 -9 -33t-32 -14q-208 -43 -459 -43
q-134 0 -268 60t-225 205.5t-91 385.5v254q0 245 89 390.5t228 204t306 58.5q134 0 233 -13.5t195 -33.5q35 -7 35 -31v-217z" />
    <glyph glyph-name="H" unicode="H" horiz-adv-x="1493" 
d="M1350 41q0 -17 -13 -29t-28 -12h-269q-15 0 -28 12t-13 29v592h-505v-592q0 -17 -13 -29t-28 -12h-269q-15 0 -28 12t-13 29v1442q0 16 12.5 27.5t28.5 11.5h269q16 0 28.5 -11.5t12.5 -27.5v-545h505v545q0 16 12.5 27.5t28.5 11.5h269q16 0 28.5 -11.5t12.5 -27.5
v-1442z" />
    <glyph glyph-name="I" unicode="I" horiz-adv-x="637" 
d="M494 41q0 -18 -11.5 -29.5t-27.5 -11.5h-275q-15 0 -26 12t-11 29v1442q0 16 10.5 27.5t26.5 11.5h275q17 0 28 -11t11 -28v-1442z" />
    <glyph glyph-name="J" unicode="J" horiz-adv-x="637" 
d="M494 -12q0 -195 -97.5 -275t-269.5 -80q-60 0 -131 9q-31 3 -31 34v209q0 29 23 29h102q34 0 43.5 15.5t9.5 58.5v1495q0 16 12.5 27.5t28.5 11.5h269q16 0 28.5 -11.5t12.5 -27.5v-1495z" />
    <glyph glyph-name="K" unicode="K" horiz-adv-x="1389" 
d="M1335 1499q0 -11 -10 -29l-487 -692l489 -735q8 -11 8 -23q0 -20 -28 -20h-353q-26 0 -45 29l-415 676v-664q0 -17 -13 -29t-28 -12h-269q-15 0 -28 12t-13 29v1442q0 16 12.5 27.5t28.5 11.5h269q16 0 28.5 -11.5t12.5 -27.5v-652l450 666q16 25 45 25h314q32 0 32 -23z
" />
    <glyph glyph-name="L" unicode="L" horiz-adv-x="1063" 
d="M1018 51q0 -35 -41 -43q-126 -26 -334 -26q-110 0 -197.5 18.5t-156 65t-107.5 135t-39 221.5v1059q0 15 13 28t28 13h269q15 0 28 -13t13 -28v-1059q0 -78 29 -108.5t102 -30.5h352q15 0 28 -13t13 -28v-191z" />
    <glyph glyph-name="M" unicode="M" horiz-adv-x="1671" 
d="M1528 29q0 -29 -35 -29h-270q-14 0 -23.5 12.5t-9.5 28.5v854q0 16 -10 16q-9 0 -17 -14l-184 -338q-20 -35 -61 -35h-164q-40 0 -62 35l-184 338q-8 14 -16 14q-11 0 -11 -16v-854q0 -18 -9.5 -29.5t-22.5 -11.5h-271q-35 0 -35 29v1423q0 32 21 51t53 19h193
q60 0 90 -56l313 -583q13 -27 23 -27q9 0 22 27l313 583q30 56 91 56h192q33 0 53.5 -19.5t20.5 -52.5v-1421z" />
    <glyph glyph-name="N" unicode="N" horiz-adv-x="1493" 
d="M1350 78q0 -33 -23.5 -55.5t-56.5 -22.5h-201q-36 0 -59.5 12.5t-46.5 50.5l-467 807q-12 17 -19 17q-10 0 -10 -17v-829q0 -18 -12 -29.5t-29 -11.5h-242q-15 0 -28 12t-13 29v1403q0 32 23 55t55 23h207q30 0 49 -15t37 -49l485 -844q12 -16 17 -16q10 0 10 18v867
q0 16 11.5 27.5t29.5 11.5h242q16 0 28.5 -11.5t12.5 -27.5v-1405z" />
    <glyph glyph-name="O" unicode="O" horiz-adv-x="1430" 
d="M1321 639q0 -337 -166.5 -497t-439.5 -160q-271 0 -438.5 160t-167.5 497v244q0 337 166.5 497t439.5 160q133 0 243 -37t191 -115t126.5 -205t45.5 -300v-244zM969 639v244q0 183 -61.5 266.5t-192.5 83.5q-85 0 -141.5 -36.5t-83.5 -114.5t-27 -199v-244
q0 -122 27 -199t82 -114t143 -37q131 0 192.5 83.5t61.5 266.5z" />
    <glyph glyph-name="P" unicode="P" horiz-adv-x="1333" 
d="M1266 1028q0 -137 -50.5 -234.5t-136.5 -154.5t-193.5 -82t-230.5 -25q-24 0 -53 1.5t-62.5 3t-50.5 2.5v-498q0 -18 -12 -29.5t-28 -11.5h-265q-16 0 -28.5 11.5t-12.5 27.5v1376q0 50 21.5 70t71.5 28q65 11 179 19t236 8q268 0 441.5 -113.5t173.5 -379.5v-19z
M918 1028v19q0 73 -29 116.5t-87.5 64.5t-146.5 21q-91 0 -166 -6v-418q46 -4 166 -4q136 0 199.5 51t63.5 156z" />
    <glyph glyph-name="Q" unicode="Q" horiz-adv-x="1430" 
d="M1321 639q0 -191 -55.5 -325t-153.5 -211t-231 -105v-41q0 -30 13 -40.5t38 -10.5h184q49 0 49 -33v-168q0 -33 -47 -45q-110 -27 -227 -27q-98 0 -175 31t-121 103.5t-44 187.5v43q-97 21 -178 68.5t-140 126t-91.5 192t-32.5 254.5v244q0 337 166.5 497t439.5 160
q133 0 243 -37t191 -115t126.5 -205t45.5 -300v-244zM969 639v244q0 183 -61.5 266.5t-192.5 83.5q-85 0 -141.5 -36.5t-83.5 -114.5t-27 -199v-244q0 -122 27 -199t82 -114t143 -37q131 0 192.5 83.5t61.5 266.5z" />
    <glyph glyph-name="R" unicode="R" horiz-adv-x="1393" 
d="M1319 25q0 -25 -31 -25h-313q-15 0 -22.5 9.5t-18.5 31.5l-275 518l-22 -2q-22 0 -74 2t-71 2v-520q0 -17 -13 -29t-28 -12h-267q-15 0 -28 12t-13 29v1374q0 50 21.5 70t71.5 28q169 27 415 27q139 0 249.5 -24.5t193 -80.5t128.5 -149.5t46 -224.5v-27
q0 -154 -72 -257.5t-192 -151.5l309 -578q6 -12 6 -22zM920 1034v27q0 92 -68.5 137t-200.5 45q-87 0 -159 -6v-393q44 -4 145 -4q158 0 220.5 44t62.5 150z" />
    <glyph glyph-name="S" unicode="S" horiz-adv-x="1204" 
d="M1118 430q0 -86 -30.5 -164.5t-96.5 -143t-175 -102.5t-257 -38q-214 0 -387 45q-41 12 -41 41v200q0 39 37 39h6q75 -7 205 -15.5t184 -8.5q105 0 143.5 33t38.5 110q0 45 -28 77t-107 79l-282 168q-91 54 -145.5 116t-75.5 130t-21 145q0 184 122 291.5t402 107.5
q111 0 243 -14t191 -31q31 -7 31 -37v-207q0 -34 -35 -34h-4q-59 4 -93.5 7t-94.5 6.5t-125.5 6t-120.5 2.5q-85 0 -122.5 -26.5t-37.5 -82.5q0 -42 27 -69.5t111 -73.5l262 -141q101 -54 163.5 -119t87.5 -137.5t25 -159.5z" />
    <glyph glyph-name="T" unicode="T" horiz-adv-x="1202" 
d="M1151 1272q0 -17 -13 -28t-30 -11h-332v-1192q0 -18 -12 -29.5t-29 -11.5h-268q-17 0 -29 12t-12 29v1192h-334q-16 0 -28.5 11.5t-12.5 27.5v211q0 16 12.5 27.5t28.5 11.5h1016q17 0 30 -11t13 -28v-211z" />
    <glyph glyph-name="U" unicode="U" horiz-adv-x="1456" 
d="M1319 571q0 -171 -44.5 -285t-125 -181t-188 -95t-234.5 -28q-128 0 -233.5 27.5t-186.5 95.5t-125.5 183.5t-44.5 282.5v912q0 16 12.5 27.5t28.5 11.5h268q18 0 29.5 -10.5t11.5 -28.5v-912q0 -107 22 -171.5t75 -95t143 -30.5t143.5 30.5t76 94.5t22.5 172v912
q0 16 11.5 27.5t29.5 11.5h266q17 0 30 -11t13 -28v-912z" />
    <glyph glyph-name="V" unicode="V" horiz-adv-x="1405" 
d="M1348 1489q0 -2 -0.5 -4.5t-1.5 -5.5l-306 -1270q-31 -134 -120 -180.5t-218 -46.5q-127 0 -217 47t-123 180l-305 1270q0 4 -0.5 6t-1.5 4q0 14 11.5 23.5t25.5 9.5h285q15 0 26.5 -10.5t14.5 -26.5l256 -1182q3 -16 9 -23.5t19 -7.5q23 0 29 31l256 1182
q3 14 13.5 25.5t25.5 11.5h287q16 0 25.5 -9.5t9.5 -23.5z" />
    <glyph glyph-name="W" unicode="W" horiz-adv-x="1821" 
d="M1786 1495v-4l-191 -1341q-11 -85 -56.5 -120.5t-131.5 -35.5h-117q-153 0 -188 139l-162 612q-4 17 -18 17q-13 0 -17 -17l-162 -612q-35 -139 -188 -139h-117q-85 0 -130.5 35.5t-57.5 120.5l-191 1341v4q0 27 33 27h279q13 0 21.5 -11t10.5 -28l117 -1098
q3 -27 12 -27t15 27l147 563q27 99 127 99h203q100 0 127 -99l147 -563q8 -27 15 -27q9 0 12 27l117 1098q2 17 11 28t22 11h278q33 0 33 -27z" />
    <glyph glyph-name="X" unicode="X" horiz-adv-x="1440" 
d="M1374 20q0 -20 -26 -20h-326q-20 0 -31 7t-22 24l-267 432l-239 -422q-23 -41 -51 -41h-303q-31 0 -31 27q0 6 4 14l428 739l-432 703q-4 8 -4 12q0 10 9.5 18.5t20.5 8.5h330q25 0 51 -39l254 -414l230 414q22 39 51 39h303q13 0 22 -8t9 -19q0 -4 -4 -12l-422 -723
l440 -719q6 -12 6 -21z" />
    <glyph glyph-name="Y" unicode="Y" horiz-adv-x="1325" 
d="M1282 1491q0 -10 -2 -14l-309 -709q-28 -67 -60.5 -104t-72.5 -54v-569q0 -17 -13 -29t-28 -12h-269q-15 0 -28 12t-13 29v569q-41 19 -72.5 54t-62.5 104l-309 709q-2 4 -2 14q0 14 8.5 22.5t24.5 8.5h295q27 0 41 -35l221 -578q7 -18 13 -24t18 -6q11 0 17.5 6.5
t12.5 23.5l221 578q14 35 41 35h295q16 0 24.5 -8.5t8.5 -22.5z" />
    <glyph glyph-name="Z" unicode="Z" horiz-adv-x="1260" 
d="M1157 41q0 -18 -12 -29.5t-29 -11.5h-930q-84 0 -84 63v164q0 44 31 90l572 865q8 11 8 20q0 17 -23 17h-510q-16 0 -28.5 11.5t-12.5 26.5v226q0 16 12.5 27.5t28.5 11.5h883q34 0 58 -15.5t24 -42.5q1 -5 1.5 -13.5t0.5 -35.5q0 -62 -0.5 -89t-1.5 -48q0 -28 -17 -53
l-577 -885q-10 -13 -10 -23q0 -14 22 -14h553q19 0 30 -9.5t11 -27.5v-225z" />
    <glyph glyph-name="bracketleft" unicode="[" horiz-adv-x="766" 
d="M705 -356q0 -17 -13 -29t-28 -12h-500q-15 0 -25 12t-10 27v1841q0 15 10 27t25 12h498q16 0 28 -12t12 -29v-178q0 -18 -12 -29.5t-28 -11.5h-197v-1399h199q15 0 28 -13t13 -28v-178z" />
    <glyph glyph-name="backslash" unicode="\" horiz-adv-x="829" 
d="M803 25q0 -13 -12 -24t-27 -11h-260q-28 0 -39 43l-436 1448q0 3 -0.5 4.5t-1.5 3.5q0 13 12 23t27 10h258q30 0 43 -41l434 -1448q1 -2 1.5 -3.5t0.5 -4.5z" />
    <glyph glyph-name="bracketright" unicode="]" horiz-adv-x="766" 
d="M637 -358q0 -17 -10 -28t-25 -11h-500q-15 0 -28 12t-13 29v178q0 15 13 28t28 13h199v1399h-197q-15 0 -28 12t-13 29v178q0 15 13 28t28 13h498q15 0 25 -11t10 -28v-1841z" />
    <glyph glyph-name="asciicircum" unicode="^" 
d="M1180 1176q0 -19 -25 -19h-266q-24 0 -34 5.5t-30 25.5l-163 182l-164 -182q-17 -18 -28.5 -24.5t-35.5 -6.5h-266q-25 0 -25 19q0 11 11 24l227 303q17 23 30.5 30t39.5 7h421q28 0 40.5 -7t29.5 -30l227 -303q11 -13 11 -24z" />
    <glyph glyph-name="underscore" unicode="_" horiz-adv-x="1108" 
d="M1174 -211q0 -15 -12.5 -24t-28.5 -9h-1156q-40 0 -40 33v98q0 33 40 33h1156q41 0 41 -33v-98z" />
    <glyph glyph-name="grave" unicode="`" horiz-adv-x="907" 
d="M600 1305q0 -15 -18 -15h-220q-12 0 -19.5 2.5t-15 9t-14.5 13.5l-250 250q-8 8 -8 16q0 14 23 14h270q21 0 30 -5.5t25 -24.5l189 -240q8 -11 8 -20z" />
    <glyph glyph-name="a" unicode="a" horiz-adv-x="1151" 
d="M1028 41q0 -18 -12 -29.5t-29 -11.5h-229q-17 0 -29 12t-12 29v33q-64 -46 -132 -69t-153 -23q-149 0 -249.5 83.5t-100.5 268.5v18q0 180 120 263t384 83h110v74q0 84 -37 112.5t-116 28.5q-193 0 -340 -14h-10q-37 0 -37 37v166q0 36 39 45q179 43 354 43
q230 0 354.5 -100.5t124.5 -317.5v-731zM702 276v226h-116q-104 0 -142 -35t-38 -115v-18q0 -61 30 -82t99 -21q75 0 167 45z" />
    <glyph glyph-name="b" unicode="b" horiz-adv-x="1223" 
d="M1137 506q0 -166 -59.5 -283.5t-175 -179t-279.5 -61.5q-114 0 -221.5 13.5t-215.5 39.5q-39 9 -51 21t-12 38v1436q0 16 13.5 28.5t29.5 12.5h248q15 0 28 -13t13 -28v-354q103 14 168 14q170 0 285 -63.5t172 -182t57 -278.5v-160zM805 506v160q0 120 -40 184.5
t-142 64.5q-40 0 -80 -2t-88 -8v-639q78 -12 168 -12q69 0 110 32t56.5 86t15.5 134z" />
    <glyph glyph-name="c" unicode="c" horiz-adv-x="971" 
d="M885 59q0 -22 -9 -31t-34 -16q-124 -30 -273 -30q-219 0 -348 136t-129 382v172q0 162 58.5 279.5t166.5 178t252 60.5q153 0 273 -31q25 -7 34 -16t9 -31v-182q0 -15 -12 -25t-27 -10h-4q-133 14 -250 14q-168 0 -168 -237v-172q0 -128 46 -183t122 -55q64 0 130 4
t120 10h4q17 0 28 -9.5t11 -24.5v-183z" />
    <glyph glyph-name="d" unicode="d" horiz-adv-x="1223" 
d="M1100 94q0 -26 -12.5 -38.5t-51.5 -20.5q-105 -25 -213.5 -39t-222.5 -14q-165 0 -280.5 61.5t-174.5 179t-59 283.5v160q0 160 57 278.5t172 182t285 63.5q38 0 75.5 -3t92.5 -11v354q0 15 12 28t29 13h248q16 0 29.5 -12.5t13.5 -28.5v-1436zM768 266v639
q-82 10 -168 10q-102 0 -142 -64.5t-40 -184.5v-160q0 -122 40.5 -187t141.5 -65q90 0 168 12z" />
    <glyph glyph-name="e" unicode="e" horiz-adv-x="1208" 
d="M1116 532q0 -49 -43 -49h-653v-4q0 -223 211 -223q70 0 207 6.5t186 11.5h6q39 0 39 -32v-156q0 -25 -9.5 -37.5t-33.5 -17.5q-195 -49 -420 -49q-100 0 -189.5 28t-163 90t-117.5 164.5t-44 243.5v143q0 166 62 287t179 186.5t277 65.5q163 0 277.5 -69t171.5 -191.5
t57 -278.5v-119zM793 688v8q0 113 -48.5 170.5t-136.5 57.5q-87 0 -137.5 -59t-50.5 -169v-8h373z" />
    <glyph glyph-name="f" unicode="f" horiz-adv-x="868" 
d="M807 1372q0 -35 -43 -35h-100q-31 0 -45.5 -7t-18.5 -27t-4 -62v-67h168q15 0 28 -13t13 -28v-166q0 -17 -13 -29t-28 -12h-168v-885q0 -18 -12 -29.5t-29 -11.5h-252q-15 0 -28 12t-13 29v885l-164 26q-18 3 -30.5 14.5t-12.5 28.5v135q0 18 13 31t30 13h164v65
q0 207 81.5 278.5t262.5 71.5q64 0 162 -16q39 -6 39 -41v-160z" />
    <glyph glyph-name="g" unicode="g" horiz-adv-x="1227" 
d="M1182 1004q0 -21 -8 -29t-29 -17l-64 -20q19 -26 32 -70.5t13 -81.5v-16q0 -101 -33.5 -173t-98 -118t-157.5 -69t-216 -23q-138 0 -213 31q-29 -19 -29 -47q0 -25 12 -37t49 -21l232 -51q195 -43 292.5 -80t142 -95t44.5 -155v-16q0 -169 -132.5 -251.5t-404.5 -82.5
q-169 0 -285.5 39t-175.5 114t-59 181v16q0 135 123 230q-52 30 -78 83t-26 107q0 102 90 174q-45 39 -69.5 108.5t-24.5 135.5v16q0 182 126.5 285t385.5 103h509q23 0 37.5 -16.5t14.5 -37.5v-116zM803 770v16q0 70 -40.5 109t-141.5 39q-103 0 -145 -39t-42 -109v-16
q0 -143 187 -143q101 0 141.5 36t40.5 107zM813 -84v16q0 22 -15.5 38t-60.5 32t-135 37l-151 33q-41 -57 -41 -140v-16q0 -37 18.5 -59t64.5 -33.5t121 -11.5q117 0 158 26.5t41 77.5z" />
    <glyph glyph-name="h" unicode="h" horiz-adv-x="1253" 
d="M1130 43q0 -17 -13 -30t-30 -13h-247q-18 0 -29.5 13.5t-11.5 29.5v682q0 109 -30 149.5t-122 40.5q-71 0 -192 -65v-807q0 -16 -12.5 -29.5t-28.5 -13.5h-248q-17 0 -30 13t-13 30v1487q0 15 12 28t29 13h250q15 0 28 -13t13 -28v-432q77 50 148 71t165 21
q206 0 284 -122.5t78 -342.5v-682z" />
    <glyph glyph-name="i" unicode="i" horiz-adv-x="594" 
d="M471 1348q0 -18 -12 -29.5t-29 -11.5h-266q-17 0 -29 12t-12 29v190q0 17 11.5 29t29.5 12h266q19 0 30 -11t11 -30v-190zM463 41q0 -17 -13 -29t-28 -12h-250q-15 0 -28 12t-13 29v1092q0 15 13 28t28 13h250q15 0 28 -13t13 -28v-1092z" />
    <glyph glyph-name="j" unicode="j" horiz-adv-x="594" 
d="M471 1348q0 -18 -13.5 -29.5t-29.5 -11.5h-264q-17 0 -29 12t-12 29v190q0 17 11.5 29t29.5 12h264q18 0 30.5 -11.5t12.5 -29.5v-190zM463 -66q0 -193 -82 -271.5t-242 -78.5q-82 0 -164 15q-41 6 -41 41v161q0 37 43 37h91q40 0 51.5 20t11.5 76v1196q0 18 11 31t28 13
h254q17 0 28 -13t11 -31v-1196z" />
    <glyph glyph-name="k" unicode="k" horiz-adv-x="1204" 
d="M1143 1151q0 -9 -8 -21l-381 -518l379 -569q4 -4 4 -16q0 -27 -27 -27h-309q-32 0 -51 29l-295 481v-467q0 -16 -12.5 -29.5t-28.5 -13.5h-248q-17 0 -30 13t-13 30v1487q0 16 13.5 28.5t29.5 12.5h248q15 0 28 -13t13 -28v-856l311 469q21 31 53 31h293q31 0 31 -23z
" />
    <glyph glyph-name="l" unicode="l" horiz-adv-x="578" 
d="M455 43q0 -17 -11 -30t-28 -13h-250q-17 0 -30 13t-13 30v1487q0 16 13.5 28.5t29.5 12.5h250q16 0 27.5 -12.5t11.5 -28.5v-1487z" />
    <glyph glyph-name="m" unicode="m" horiz-adv-x="1792" 
d="M1669 43q0 -17 -13 -30t-30 -13h-248q-16 0 -28.5 13.5t-12.5 29.5v698q0 99 -26.5 134.5t-98.5 35.5q-79 0 -157 -37q6 -60 6 -133v-698q0 -16 -12.5 -29.5t-28.5 -13.5h-248q-17 0 -30 13t-13 30v698q0 99 -24.5 134.5t-94.5 35.5q-54 0 -155 -53v-815
q0 -16 -12.5 -29.5t-28.5 -13.5h-248q-17 0 -30 13t-13 30v1090q0 15 12 28t29 13h233q17 0 29 -12t12 -29v-46q153 103 303 103q82 0 141.5 -24t100.5 -76q97 55 167.5 77.5t166.5 22.5q130 0 208.5 -54.5t111 -153.5t32.5 -241v-698z" />
    <glyph glyph-name="n" unicode="n" horiz-adv-x="1253" 
d="M1130 43q0 -17 -13 -30t-30 -13h-247q-18 0 -29.5 13.5t-11.5 29.5v682q0 109 -30 149.5t-122 40.5q-71 0 -192 -65v-807q0 -16 -12.5 -29.5t-28.5 -13.5h-248q-17 0 -30 13t-13 30v1090q0 15 12 28t29 13h229q17 0 29 -12t12 -29v-50q87 61 161 84t173 23
q206 0 284 -122.5t78 -342.5v-682z" />
    <glyph glyph-name="o" unicode="o" horiz-adv-x="1206" 
d="M1116 514q0 -248 -133.5 -390t-378.5 -142q-162 0 -278.5 64.5t-176 185t-59.5 282.5v143q0 162 59 282.5t176 185.5t279 65q245 0 378.5 -143t133.5 -390v-143zM786 514v143q0 124 -46 187t-136 63q-89 0 -136.5 -62.5t-47.5 -187.5v-143q0 -124 48 -188t136 -64
q89 0 135.5 64t46.5 188z" />
    <glyph glyph-name="p" unicode="p" horiz-adv-x="1223" 
d="M1137 506q0 -161 -57 -279.5t-172 -181.5t-285 -63q-65 0 -168 14v-354q0 -17 -13 -29t-28 -12h-248q-16 0 -29.5 11.5t-13.5 29.5v1435q0 26 12 38.5t51 21.5q96 23 209.5 38t227.5 15q124 0 219.5 -34.5t161.5 -102t99.5 -164.5t33.5 -223v-160zM805 506v160
q0 121 -40 185t-142 64q-51 0 -90.5 -2t-77.5 -8v-639q98 -12 168 -12q69 0 110 32.5t56.5 86.5t15.5 133z" />
    <glyph glyph-name="q" unicode="q" horiz-adv-x="1223" 
d="M1100 -358q0 -18 -13.5 -29.5t-29.5 -11.5h-248q-17 0 -29 12t-12 29v354q-103 -14 -168 -14q-170 0 -285 63t-172 181.5t-57 279.5v160q0 122 33 220t100.5 167t162.5 103t218 34q66 0 149 -7t151.5 -19t135.5 -27q40 -9 52 -21.5t12 -38.5v-1435zM768 266v639
q-65 10 -168 10q-102 0 -142 -64t-40 -185v-160q0 -121 40 -186.5t142 -65.5q70 0 168 12z" />
    <glyph glyph-name="r" unicode="r" horiz-adv-x="811" 
d="M766 954q0 -15 -9 -27t-22 -12h-16q-134 0 -264 -71v-801q0 -16 -12.5 -29.5t-28.5 -13.5h-248q-17 0 -30 13t-13 30v1090q0 15 12 28t29 13h244q15 0 28 -13t13 -28v-41q55 46 129.5 72t146.5 26q17 0 29 -12t12 -29v-195z" />
    <glyph glyph-name="s" unicode="s" horiz-adv-x="1030" 
d="M944 326q0 -152 -111.5 -248t-326.5 -96q-90 0 -189 11t-184 34q-39 10 -39 47v166q0 15 11 27t28 12h8q110 -14 209 -21.5t139 -7.5q70 0 95.5 18.5t25.5 61.5q0 23 -17.5 43.5t-57.5 42.5l-267 153q-85 49 -133.5 127t-48.5 176q0 104 46.5 175t139.5 107t234 36
q80 0 140 -5.5t112 -16t112 -25.5q39 -9 39 -47v-166q0 -39 -35 -39h-6q-69 10 -169.5 18.5t-170.5 8.5q-60 0 -84 -12.5t-24 -47.5q0 -20 13 -34t50 -38l254 -145q119 -69 163 -145t44 -170z" />
    <glyph glyph-name="t" unicode="t" horiz-adv-x="862" 
d="M799 39q0 -34 -39 -41q-99 -16 -162 -16q-88 0 -150.5 14.5t-106.5 53t-65.5 108t-21.5 174.5v594l-164 26q-18 3 -30.5 14.5t-12.5 28.5v135q0 18 13 31t30 13h164v167q0 34 41 41l250 43h6q16 0 26.5 -9t10.5 -25v-217h168q15 0 28 -13t13 -28v-166q0 -17 -13 -29
t-28 -12h-168v-596q0 -42 4.5 -62.5t18.5 -27.5t44 -7h101q43 0 43 -34v-160z" />
    <glyph glyph-name="u" unicode="u" horiz-adv-x="1253" 
d="M1130 41q0 -18 -12 -29.5t-28 -11.5h-230q-15 0 -28 12t-13 29v49q-80 -57 -158 -81.5t-176 -24.5q-107 0 -178.5 35t-111 96.5t-56 144.5t-16.5 189v681q0 18 13 31t30 13h248q16 0 28.5 -13.5t12.5 -30.5v-681q0 -110 30 -150.5t121 -40.5q42 0 83.5 15.5t109.5 50.5
v806q0 17 11.5 30.5t29.5 13.5h247q17 0 30 -13t13 -31v-1089z" />
    <glyph glyph-name="v" unicode="v" horiz-adv-x="1198" 
d="M1155 1139q0 -9 -2 -13l-258 -929q-24 -86 -69.5 -133.5t-103 -64.5t-124.5 -17q-107 0 -183 45t-112 170l-256 929q-2 4 -2 13q0 14 9.5 24.5t23.5 10.5h270q32 0 43 -44l176 -802q8 -43 31 -43q25 0 33 43l176 802q11 44 43 44h270q13 0 24 -10t11 -25z" />
    <glyph glyph-name="w" unicode="w" horiz-adv-x="1731" 
d="M1671 1139v-9l-182 -987q-15 -81 -62 -112t-118 -31h-125q-138 0 -172 131l-138 535q-2 10 -10 10t-10 -10l-137 -535q-35 -131 -172 -131h-125q-71 0 -118 31t-62 112l-183 987v9q0 15 8.5 25t22.5 10h248q21 0 30.5 -7t12.5 -28l121 -779q3 -26 12 -26q10 0 16 26
l138 541q13 53 39 72.5t75 19.5h168q51 0 76.5 -20t38.5 -72l137 -541q6 -26 17 -26q9 0 12 26l121 779q3 21 12.5 28t30.5 7h247q14 0 22.5 -10.5t8.5 -24.5z" />
    <glyph glyph-name="x" unicode="x" horiz-adv-x="1264" 
d="M1198 29q0 -12 -8.5 -20.5t-20.5 -8.5h-309q-17 0 -28 10t-25 33l-203 317l-190 -319q-25 -41 -54 -41h-274q-23 0 -23 25q0 10 5 16l358 569l-348 520q-4 10 -4 13q0 12 9.5 21.5t20.5 9.5h306q16 0 27 -10.5t26 -33.5l182 -282l168 282q26 44 53 44h275q11 0 17.5 -7.5
t6.5 -19.5q0 -10 -4 -17l-338 -536l371 -551q4 -8 4 -14z" />
    <glyph glyph-name="y" unicode="y" horiz-adv-x="1212" 
d="M1167 1137q0 -4 -0.5 -6t-1.5 -5l-344 -1206q-35 -122 -81.5 -191.5t-132.5 -106t-234 -36.5q-56 0 -134.5 11t-113.5 22q-22 8 -32.5 14.5t-10.5 22.5v166q0 16 11.5 27.5t29.5 11.5h4q34 -2 122 -9.5t134 -7.5q58 0 87.5 23t47.5 84l19 63h-31q-69 0 -112.5 35
t-78.5 156l-270 921q-2 7 -2 15q0 33 41 33h272q31 0 39 -39l185 -770q8 -39 24 -39h2h8h9l190 809q8 39 43 39h272q16 0 27.5 -10.5t11.5 -26.5z" />
    <glyph glyph-name="z" unicode="z" horiz-adv-x="1055" 
d="M967 41q0 -17 -13 -29t-28 -12h-768q-27 0 -48.5 20.5t-21.5 47.5v131q0 38 29 77l444 607q6 9 6 14q0 10 -14 10h-412q-16 0 -25.5 9.5t-9.5 23.5v193q0 15 13 28t28 13h748q29 0 48.5 -21.5t19.5 -48.5v-152q0 -38 -23 -71l-424 -580q-6 -9 -6 -14q0 -8 14 -8h406
q16 0 26.5 -9t10.5 -24v-205z" />
    <glyph glyph-name="braceleft" unicode="{" horiz-adv-x="834" 
d="M772 -356q0 -19 -12 -30t-29 -11h-119q-157 0 -245.5 34t-128 116t-39.5 229v268q0 136 -117 211v194q59 39 87 89.5t28 121.5v277q0 147 39.5 229t128 116t245.5 34h119q17 0 29 -12t12 -29v-178q0 -18 -12 -29.5t-29 -11.5h-119q-49 0 -63.5 -21.5t-14.5 -97.5v-277
q0 -73 -17.5 -130t-56 -102t-96.5 -75q89 -45 129.5 -122.5t40.5 -186.5v-268q0 -74 16 -96.5t64 -22.5h119q17 0 29 -12t12 -29v-178z" />
    <glyph glyph-name="bar" unicode="|" horiz-adv-x="594" 
d="M465 -354q0 -16 -12.5 -29.5t-28.5 -13.5h-252q-17 0 -30 13t-13 30v1835q0 16 13.5 28.5t29.5 12.5h252q15 0 28 -13t13 -28v-1835z" />
    <glyph glyph-name="braceright" unicode="}" horiz-adv-x="834" 
d="M752 461q-117 -75 -117 -211v-268q0 -148 -40 -229.5t-128.5 -115.5t-245.5 -34h-119q-15 0 -28 12t-13 29v178q0 15 13 28t28 13h119q34 0 50.5 8.5t23 35t6.5 75.5v268q0 109 40 186t130 123q-90 47 -130 123t-40 184v277q0 75 -14 97t-64 22h-119q-15 0 -28 12t-13 29
v178q0 15 13 28t28 13h119q157 0 245.5 -34t128.5 -115.5t40 -229.5v-277q0 -71 28 -121.5t87 -89.5v-194z" />
    <glyph glyph-name="asciitilde" unicode="~" 
d="M1180 983q0 -161 -73 -235t-220 -74q-52 0 -95.5 15.5t-91.5 43.5l-145 88q-43 27 -88 27q-38 0 -51 -21.5t-13 -60.5v-37q0 -18 -10 -29.5t-26 -11.5h-183q-41 0 -41 41v37q0 176 75.5 250t217.5 74q93 0 150 -35l184 -111q49 -29 88 -29q34 0 47 15t13 53v51
q0 41 38 41h183q41 0 41 -41v-51z" />
    <glyph glyph-name="Adieresis" unicode="&#xc4;" horiz-adv-x="1370" 
d="M1331 33q0 -33 -35 -33h-286q-34 0 -41 37l-74 336h-420l-74 -336q-7 -37 -41 -37h-286q-35 0 -35 33q1 2 1.5 4t0.5 6l305 1270q33 134 122 180.5t218 46.5q84 0 148.5 -17.5t115.5 -67.5t74 -142l305 -1270q1 -3 1.5 -5t0.5 -5zM838 653l-125 566q-6 30 -27 30t-29 -30
l-125 -566h306zM1047 1681q0 -18 -14 -29.5t-31 -11.5h-192q-16 0 -29.5 11.5t-13.5 29.5v190q0 18 12.5 29.5t30.5 11.5h192q19 0 32 -11.5t13 -29.5v-190zM603 1681q0 -18 -13.5 -29.5t-29.5 -11.5h-193q-16 0 -30.5 12t-14.5 29v190q0 17 14 29t31 12h193
q18 0 30.5 -11.5t12.5 -29.5v-190z" />
    <glyph glyph-name="Aring" unicode="&#xc5;" horiz-adv-x="1370" 
d="M1331 33q0 -33 -35 -33h-286q-34 0 -41 37l-74 336h-420l-74 -336q-7 -37 -41 -37h-286q-35 0 -35 33q1 2 1.5 4t0.5 6l305 1270q33 134 122 180.5t218 46.5q84 0 148.5 -17.5t115.5 -67.5t74 -142l305 -1270q1 -3 1.5 -5t0.5 -5zM838 653l-125 566q-6 30 -27 30t-29 -30
l-125 -566h306zM924 1833q0 -101 -70 -170t-169 -69q-98 0 -169 70t-71 169q0 100 71 170t169 70q63 0 119 -32t88 -88.5t32 -119.5zM775 1833q0 38 -26 64t-64 26t-64 -26t-26 -64t26 -64t64 -26t64 26t26 64z" />
    <glyph glyph-name="Ccedilla" unicode="&#xc7;" horiz-adv-x="1149" 
d="M1065 63q0 -19 -9.5 -28.5t-35.5 -18.5q-104 -34 -305 -34q-124 0 -230.5 34.5t-191.5 110.5t-134.5 204t-49.5 302v258q0 175 49.5 302t135 203.5t191.5 110t230 33.5q99 0 186.5 -11.5t118.5 -23.5q45 -12 45 -45v-198q0 -41 -39 -41h-6q-103 8 -160 12t-143 4
q-77 0 -133 -31t-88.5 -107.5t-32.5 -207.5v-258q0 -131 32.5 -207.5t88.5 -107.5t133 -31q28 0 77 2t85.5 4t81.5 5.5t59 4.5h6q39 0 39 -41v-199zM881 -86q0 -8 -9 -16l-251 -250q-16 -16 -23.5 -20.5t-26.5 -4.5h-219q-18 0 -18 15q0 9 8 20l190 240q18 20 26.5 25
t29.5 5h270q23 0 23 -14z" />
    <glyph glyph-name="Eacute" unicode="&#xc9;" horiz-adv-x="1188" 
d="M1073 51q0 -37 -41 -43q-73 -10 -164 -18t-233 -8q-110 0 -197 18.5t-155 65.5t-107 135t-39 221v680q0 176 66.5 273t175.5 131t258 34q142 0 239.5 -8.5t155.5 -18.5q41 -6 41 -40v-191q0 -17 -12 -29t-29 -12h-416q-73 0 -102 -30t-29 -109v-187h531q17 0 29 -12
t12 -29v-194q0 -17 -13 -29t-28 -12h-531v-217q0 -78 29 -108.5t102 -30.5h416q17 0 29 -12t12 -29v-191zM977 1919q0 -8 -8 -16l-250 -250q-24 -25 -49 -25h-219q-19 0 -19 15q0 9 8 20l191 240q15 19 24.5 24.5t30.5 5.5h268q23 0 23 -14z" />
    <glyph glyph-name="Ntilde" unicode="&#xd1;" horiz-adv-x="1493" 
d="M1350 78q0 -33 -23.5 -55.5t-56.5 -22.5h-201q-36 0 -59.5 12.5t-46.5 50.5l-467 807q-12 17 -19 17q-10 0 -10 -17v-829q0 -18 -12 -29.5t-29 -11.5h-242q-15 0 -28 12t-13 29v1403q0 32 23 55t55 23h207q30 0 49 -15t37 -49l485 -844q12 -16 17 -16q10 0 10 18v867
q0 16 11.5 27.5t29.5 11.5h242q16 0 28.5 -11.5t12.5 -27.5v-1405zM1143 1858q0 -129 -64.5 -187.5t-185.5 -58.5q-33 0 -71.5 11.5t-73.5 33.5l-86 59q-52 37 -84 37q-47 0 -47 -55v-39q0 -35 -31 -35h-145q-31 0 -31 35v39q0 126 65.5 185t186.5 59q77 0 143 -43l88 -58
q57 -36 82 -36q24 0 35.5 12.5t11.5 42.5v39q0 33 33 33h144q30 0 30 -33v-41z" />
    <glyph glyph-name="Odieresis" unicode="&#xd6;" horiz-adv-x="1430" 
d="M1321 639q0 -337 -166.5 -497t-439.5 -160q-271 0 -438.5 160t-167.5 497v244q0 337 166.5 497t439.5 160q133 0 243 -37t191 -115t126.5 -205t45.5 -300v-244zM969 639v244q0 183 -61.5 266.5t-192.5 83.5q-85 0 -141.5 -36.5t-83.5 -114.5t-27 -199v-244
q0 -122 27 -199t82 -114t143 -37q131 0 192.5 83.5t61.5 266.5zM1077 1681q0 -18 -14 -29.5t-31 -11.5h-192q-16 0 -29.5 11.5t-13.5 29.5v190q0 18 12.5 29.5t30.5 11.5h192q19 0 32 -11.5t13 -29.5v-190zM633 1681q0 -18 -13.5 -29.5t-29.5 -11.5h-193q-16 0 -30.5 12
t-14.5 29v190q0 17 14 29t31 12h193q18 0 30.5 -11.5t12.5 -29.5v-190z" />
    <glyph glyph-name="Udieresis" unicode="&#xdc;" horiz-adv-x="1456" 
d="M1319 571q0 -171 -44.5 -285t-125 -181t-188 -95t-234.5 -28q-128 0 -233.5 27.5t-186.5 95.5t-125.5 183.5t-44.5 282.5v912q0 16 12.5 27.5t28.5 11.5h268q18 0 29.5 -10.5t11.5 -28.5v-912q0 -107 22 -171.5t75 -95t143 -30.5t143.5 30.5t76 94.5t22.5 172v912
q0 16 11.5 27.5t29.5 11.5h266q17 0 30 -11t13 -28v-912zM1090 1681q0 -18 -14 -29.5t-31 -11.5h-192q-16 0 -29.5 11.5t-13.5 29.5v190q0 18 12.5 29.5t30.5 11.5h192q19 0 32 -11.5t13 -29.5v-190zM646 1681q0 -18 -13.5 -29.5t-29.5 -11.5h-193q-16 0 -30.5 12t-14.5 29
v190q0 17 14 29t31 12h193q18 0 30.5 -11.5t12.5 -29.5v-190z" />
    <glyph glyph-name="aacute" unicode="&#xe1;" horiz-adv-x="1151" 
d="M1028 41q0 -18 -12 -29.5t-29 -11.5h-229q-17 0 -29 12t-12 29v33q-64 -46 -132 -69t-153 -23q-149 0 -249.5 83.5t-100.5 268.5v18q0 180 120 263t384 83h110v74q0 84 -37 112.5t-116 28.5q-193 0 -340 -14h-10q-37 0 -37 37v166q0 36 39 45q179 43 354 43
q230 0 354.5 -100.5t124.5 -317.5v-731zM702 276v226h-116q-104 0 -142 -35t-38 -115v-18q0 -61 30 -82t99 -21q75 0 167 45zM953 1581q0 -8 -8 -16l-250 -250q-24 -25 -49 -25h-219q-19 0 -19 15q0 9 8 20l191 240q15 19 24.5 24.5t30.5 5.5h268q23 0 23 -14z" />
    <glyph glyph-name="agrave" unicode="&#xe0;" horiz-adv-x="1151" 
d="M1028 41q0 -18 -12 -29.5t-29 -11.5h-229q-17 0 -29 12t-12 29v33q-64 -46 -132 -69t-153 -23q-149 0 -249.5 83.5t-100.5 268.5v18q0 180 120 263t384 83h110v74q0 84 -37 112.5t-116 28.5q-193 0 -340 -14h-10q-37 0 -37 37v166q0 36 39 45q179 43 354 43
q230 0 354.5 -100.5t124.5 -317.5v-731zM702 276v226h-116q-104 0 -142 -35t-38 -115v-18q0 -61 30 -82t99 -21q75 0 167 45zM751 1305q0 -15 -18 -15h-220q-12 0 -19.5 2.5t-15 9t-14.5 13.5l-250 250q-8 8 -8 16q0 14 23 14h270q21 0 30 -5.5t25 -24.5l189 -240
q8 -11 8 -20z" />
    <glyph glyph-name="acircumflex" unicode="&#xe2;" horiz-adv-x="1151" 
d="M1028 41q0 -18 -12 -29.5t-29 -11.5h-229q-17 0 -29 12t-12 29v33q-64 -46 -132 -69t-153 -23q-149 0 -249.5 83.5t-100.5 268.5v18q0 180 120 263t384 83h110v74q0 84 -37 112.5t-116 28.5q-193 0 -340 -14h-10q-37 0 -37 37v166q0 36 39 45q179 43 354 43
q230 0 354.5 -100.5t124.5 -317.5v-731zM702 276v226h-116q-104 0 -142 -35t-38 -115v-18q0 -61 30 -82t99 -21q75 0 167 45zM993 1305q0 -15 -18 -15h-211q-17 0 -25.5 4.5t-23.5 20.5l-129 143l-131 -143q-22 -25 -50 -25h-211q-18 0 -18 15q0 9 8 20l183 240
q15 19 24.5 24.5t30.5 5.5h327q22 0 32 -5.5t24 -24.5l180 -240q8 -11 8 -20z" />
    <glyph glyph-name="adieresis" unicode="&#xe4;" horiz-adv-x="1151" 
d="M1028 41q0 -18 -12 -29.5t-29 -11.5h-229q-17 0 -29 12t-12 29v33q-64 -46 -132 -69t-153 -23q-149 0 -249.5 83.5t-100.5 268.5v18q0 180 120 263t384 83h110v74q0 84 -37 112.5t-116 28.5q-193 0 -340 -14h-10q-37 0 -37 37v166q0 36 39 45q179 43 354 43
q230 0 354.5 -100.5t124.5 -317.5v-731zM702 276v226h-116q-104 0 -142 -35t-38 -115v-18q0 -61 30 -82t99 -21q75 0 167 45zM950 1352q0 -18 -14 -29.5t-31 -11.5h-192q-16 0 -29.5 11.5t-13.5 29.5v190q0 18 12.5 29.5t30.5 11.5h192q19 0 32 -11.5t13 -29.5v-190z
M506 1352q0 -18 -13.5 -29.5t-29.5 -11.5h-193q-16 0 -30.5 12t-14.5 29v190q0 17 14 29t31 12h193q18 0 30.5 -11.5t12.5 -29.5v-190z" />
    <glyph glyph-name="atilde" unicode="&#xe3;" horiz-adv-x="1151" 
d="M1028 41q0 -18 -12 -29.5t-29 -11.5h-229q-17 0 -29 12t-12 29v33q-64 -46 -132 -69t-153 -23q-149 0 -249.5 83.5t-100.5 268.5v18q0 180 120 263t384 83h110v74q0 84 -37 112.5t-116 28.5q-193 0 -340 -14h-10q-37 0 -37 37v166q0 36 39 45q179 43 354 43
q230 0 354.5 -100.5t124.5 -317.5v-731zM702 276v226h-116q-104 0 -142 -35t-38 -115v-18q0 -61 30 -82t99 -21q75 0 167 45zM1001 1528q0 -129 -64.5 -187.5t-185.5 -58.5q-33 0 -71.5 11.5t-73.5 33.5l-86 59q-52 37 -84 37q-47 0 -47 -55v-39q0 -35 -31 -35h-145
q-31 0 -31 35v39q0 126 65.5 185t186.5 59q77 0 143 -43l88 -58q57 -36 82 -36q24 0 35.5 12.5t11.5 42.5v39q0 33 33 33h144q30 0 30 -33v-41z" />
    <glyph glyph-name="aring" unicode="&#xe5;" horiz-adv-x="1151" 
d="M1028 41q0 -18 -12 -29.5t-29 -11.5h-229q-17 0 -29 12t-12 29v33q-64 -46 -132 -69t-153 -23q-149 0 -249.5 83.5t-100.5 268.5v18q0 180 120 263t384 83h110v74q0 84 -37 112.5t-116 28.5q-193 0 -340 -14h-10q-37 0 -37 37v166q0 36 39 45q179 43 354 43
q230 0 354.5 -100.5t124.5 -317.5v-731zM702 276v226h-116q-104 0 -142 -35t-38 -115v-18q0 -61 30 -82t99 -21q75 0 167 45zM819 1517q0 -101 -70 -170t-169 -69q-98 0 -169 70t-71 169q0 100 71 170t169 70q63 0 119 -32t88 -88.5t32 -119.5zM670 1517q0 38 -26 64t-64 26
t-64 -26t-26 -64t26 -64t64 -26t64 26t26 64z" />
    <glyph glyph-name="ccedilla" unicode="&#xe7;" horiz-adv-x="971" 
d="M885 59q0 -22 -9 -31t-34 -16q-124 -30 -273 -30q-219 0 -348 136t-129 382v172q0 162 58.5 279.5t166.5 178t252 60.5q153 0 273 -31q25 -7 34 -16t9 -31v-182q0 -15 -12 -25t-27 -10h-4q-133 14 -250 14q-168 0 -168 -237v-172q0 -128 46 -183t122 -55q64 0 130 4
t120 10h4q17 0 28 -9.5t11 -24.5v-183zM707 -86q0 -8 -9 -16l-252 -250q-10 -10 -16 -15t-13.5 -7.5t-19.5 -2.5h-219q-20 0 -20 15q0 7 10 20l190 240q16 19 26 24.5t30 5.5h270q23 0 23 -14z" />
    <glyph glyph-name="eacute" unicode="&#xe9;" horiz-adv-x="1208" 
d="M1116 532q0 -49 -43 -49h-653v-4q0 -223 211 -223q70 0 207 6.5t186 11.5h6q39 0 39 -32v-156q0 -25 -9.5 -37.5t-33.5 -17.5q-195 -49 -420 -49q-100 0 -189.5 28t-163 90t-117.5 164.5t-44 243.5v143q0 166 62 287t179 186.5t277 65.5q163 0 277.5 -69t171.5 -191.5
t57 -278.5v-119zM793 688v8q0 113 -48.5 170.5t-136.5 57.5q-87 0 -137.5 -59t-50.5 -169v-8h373zM962 1581q0 -8 -8 -16l-250 -250q-24 -25 -49 -25h-219q-19 0 -19 15q0 9 8 20l191 240q15 19 24.5 24.5t30.5 5.5h268q23 0 23 -14z" />
    <glyph glyph-name="egrave" unicode="&#xe8;" horiz-adv-x="1208" 
d="M1116 532q0 -49 -43 -49h-653v-4q0 -223 211 -223q70 0 207 6.5t186 11.5h6q39 0 39 -32v-156q0 -25 -9.5 -37.5t-33.5 -17.5q-195 -49 -420 -49q-100 0 -189.5 28t-163 90t-117.5 164.5t-44 243.5v143q0 166 62 287t179 186.5t277 65.5q163 0 277.5 -69t171.5 -191.5
t57 -278.5v-119zM793 688v8q0 113 -48.5 170.5t-136.5 57.5q-87 0 -137.5 -59t-50.5 -169v-8h373zM835 1305q0 -15 -18 -15h-220q-12 0 -19.5 2.5t-15 9t-14.5 13.5l-250 250q-8 8 -8 16q0 14 23 14h270q21 0 30 -5.5t25 -24.5l189 -240q8 -11 8 -20z" />
    <glyph glyph-name="ecircumflex" unicode="&#xea;" horiz-adv-x="1208" 
d="M1116 532q0 -49 -43 -49h-653v-4q0 -223 211 -223q70 0 207 6.5t186 11.5h6q39 0 39 -32v-156q0 -25 -9.5 -37.5t-33.5 -17.5q-195 -49 -420 -49q-100 0 -189.5 28t-163 90t-117.5 164.5t-44 243.5v143q0 166 62 287t179 186.5t277 65.5q163 0 277.5 -69t171.5 -191.5
t57 -278.5v-119zM793 688v8q0 113 -48.5 170.5t-136.5 57.5q-87 0 -137.5 -59t-50.5 -169v-8h373zM1012 1305q0 -15 -18 -15h-211q-17 0 -25.5 4.5t-23.5 20.5l-129 143l-131 -143q-22 -25 -50 -25h-211q-18 0 -18 15q0 9 8 20l183 240q15 19 24.5 24.5t30.5 5.5h327
q22 0 32 -5.5t24 -24.5l180 -240q8 -11 8 -20z" />
    <glyph glyph-name="edieresis" unicode="&#xeb;" horiz-adv-x="1208" 
d="M1116 532q0 -49 -43 -49h-653v-4q0 -223 211 -223q70 0 207 6.5t186 11.5h6q39 0 39 -32v-156q0 -25 -9.5 -37.5t-33.5 -17.5q-195 -49 -420 -49q-100 0 -189.5 28t-163 90t-117.5 164.5t-44 243.5v143q0 166 62 287t179 186.5t277 65.5q163 0 277.5 -69t171.5 -191.5
t57 -278.5v-119zM793 688v8q0 113 -48.5 170.5t-136.5 57.5q-87 0 -137.5 -59t-50.5 -169v-8h373zM963 1348q0 -18 -14 -29.5t-31 -11.5h-192q-16 0 -29.5 11.5t-13.5 29.5v190q0 18 12.5 29.5t30.5 11.5h192q19 0 32 -11.5t13 -29.5v-190zM519 1348q0 -18 -13.5 -29.5
t-29.5 -11.5h-193q-16 0 -30.5 12t-14.5 29v190q0 17 14 29t31 12h193q18 0 30.5 -11.5t12.5 -29.5v-190z" />
    <glyph glyph-name="iacute" unicode="&#xed;" horiz-adv-x="594" 
d="M463 43q0 -17 -13 -30t-30 -13h-246q-17 0 -30 13t-13 30v1087q0 18 13 31t30 13h246q17 0 30 -13t13 -31v-1087zM476 1581q0 -8 -8 -16l-250 -250q-24 -25 -49 -25h-219q-19 0 -19 15q0 9 8 20l191 240q15 19 24.5 24.5t30.5 5.5h268q23 0 23 -14z" />
    <glyph glyph-name="igrave" unicode="&#xec;" horiz-adv-x="594" 
d="M463 43q0 -17 -13 -30t-30 -13h-246q-17 0 -30 13t-13 30v1087q0 18 13 31t30 13h246q17 0 30 -13t13 -31v-1087zM673 1305q0 -15 -18 -15h-220q-12 0 -19.5 2.5t-15 9t-14.5 13.5l-250 250q-8 8 -8 16q0 14 23 14h270q21 0 30 -5.5t25 -24.5l189 -240q8 -11 8 -20z" />
    <glyph glyph-name="icircumflex" unicode="&#xee;" horiz-adv-x="594" 
d="M463 43q0 -17 -13 -30t-30 -13h-246q-17 0 -30 13t-13 30v1087q0 18 13 31t30 13h246q17 0 30 -13t13 -31v-1087zM706 1305q0 -15 -18 -15h-211q-17 0 -25.5 4.5t-23.5 20.5l-129 143l-131 -143q-22 -25 -50 -25h-211q-18 0 -18 15q0 9 8 20l183 240q15 19 24.5 24.5
t30.5 5.5h327q22 0 32 -5.5t24 -24.5l180 -240q8 -11 8 -20z" />
    <glyph glyph-name="idieresis" unicode="&#xef;" horiz-adv-x="594" 
d="M463 43q0 -17 -13 -30t-30 -13h-246q-17 0 -30 13t-13 30v1087q0 18 13 31t30 13h246q17 0 30 -13t13 -31v-1087zM662 1348q0 -18 -14 -29.5t-31 -11.5h-192q-16 0 -29.5 11.5t-13.5 29.5v190q0 18 12.5 29.5t30.5 11.5h192q19 0 32 -11.5t13 -29.5v-190zM218 1348
q0 -18 -13.5 -29.5t-29.5 -11.5h-193q-16 0 -30.5 12t-14.5 29v190q0 17 14 29t31 12h193q18 0 30.5 -11.5t12.5 -29.5v-190z" />
    <glyph glyph-name="ntilde" unicode="&#xf1;" horiz-adv-x="1253" 
d="M1130 43q0 -17 -13 -30t-30 -13h-247q-18 0 -29.5 13.5t-11.5 29.5v682q0 109 -30 149.5t-122 40.5q-71 0 -192 -65v-807q0 -16 -12.5 -29.5t-28.5 -13.5h-248q-17 0 -30 13t-13 30v1090q0 15 12 28t29 13h229q17 0 29 -12t12 -29v-50q87 61 161 84t173 23
q206 0 284 -122.5t78 -342.5v-682zM1030 1528q0 -129 -64.5 -187.5t-185.5 -58.5q-33 0 -71.5 11.5t-73.5 33.5l-86 59q-52 37 -84 37q-47 0 -47 -55v-39q0 -35 -31 -35h-145q-31 0 -31 35v39q0 126 65.5 185t186.5 59q77 0 143 -43l88 -58q57 -36 82 -36q24 0 35.5 12.5
t11.5 42.5v39q0 33 33 33h144q30 0 30 -33v-41z" />
    <glyph glyph-name="oacute" unicode="&#xf3;" horiz-adv-x="1206" 
d="M1116 514q0 -248 -133.5 -390t-378.5 -142q-162 0 -278.5 64.5t-176 185t-59.5 282.5v143q0 162 59 282.5t176 185.5t279 65q245 0 378.5 -143t133.5 -390v-143zM786 514v143q0 124 -46 187t-136 63q-89 0 -136.5 -62.5t-47.5 -187.5v-143q0 -124 48 -188t136 -64
q89 0 135.5 64t46.5 188zM953 1581q0 -8 -8 -16l-250 -250q-24 -25 -49 -25h-219q-19 0 -19 15q0 9 8 20l191 240q15 19 24.5 24.5t30.5 5.5h268q23 0 23 -14z" />
    <glyph glyph-name="ograve" unicode="&#xf2;" horiz-adv-x="1206" 
d="M1116 514q0 -248 -133.5 -390t-378.5 -142q-162 0 -278.5 64.5t-176 185t-59.5 282.5v143q0 162 59 282.5t176 185.5t279 65q245 0 378.5 -143t133.5 -390v-143zM786 514v143q0 124 -46 187t-136 63q-89 0 -136.5 -62.5t-47.5 -187.5v-143q0 -124 48 -188t136 -64
q89 0 135.5 64t46.5 188zM792 1305q0 -15 -18 -15h-220q-12 0 -19.5 2.5t-15 9t-14.5 13.5l-250 250q-8 8 -8 16q0 14 23 14h270q21 0 30 -5.5t25 -24.5l189 -240q8 -11 8 -20z" />
    <glyph glyph-name="ocircumflex" unicode="&#xf4;" horiz-adv-x="1206" 
d="M1116 514q0 -248 -133.5 -390t-378.5 -142q-162 0 -278.5 64.5t-176 185t-59.5 282.5v143q0 162 59 282.5t176 185.5t279 65q245 0 378.5 -143t133.5 -390v-143zM786 514v143q0 124 -46 187t-136 63q-89 0 -136.5 -62.5t-47.5 -187.5v-143q0 -124 48 -188t136 -64
q89 0 135.5 64t46.5 188zM1010 1305q0 -15 -18 -15h-211q-17 0 -25.5 4.5t-23.5 20.5l-129 143l-131 -143q-22 -25 -50 -25h-211q-18 0 -18 15q0 9 8 20l183 240q15 19 24.5 24.5t30.5 5.5h327q22 0 32 -5.5t24 -24.5l180 -240q8 -11 8 -20z" />
    <glyph glyph-name="odieresis" unicode="&#xf6;" horiz-adv-x="1206" 
d="M1116 514q0 -248 -133.5 -390t-378.5 -142q-162 0 -278.5 64.5t-176 185t-59.5 282.5v143q0 162 59 282.5t176 185.5t279 65q245 0 378.5 -143t133.5 -390v-143zM786 514v143q0 124 -46 187t-136 63q-89 0 -136.5 -62.5t-47.5 -187.5v-143q0 -124 48 -188t136 -64
q89 0 135.5 64t46.5 188zM963 1348q0 -18 -14 -29.5t-31 -11.5h-192q-16 0 -29.5 11.5t-13.5 29.5v190q0 18 12.5 29.5t30.5 11.5h192q19 0 32 -11.5t13 -29.5v-190zM519 1348q0 -18 -13.5 -29.5t-29.5 -11.5h-193q-16 0 -30.5 12t-14.5 29v190q0 17 14 29t31 12h193
q18 0 30.5 -11.5t12.5 -29.5v-190z" />
    <glyph glyph-name="otilde" unicode="&#xf5;" horiz-adv-x="1206" 
d="M1116 514q0 -248 -133.5 -390t-378.5 -142q-162 0 -278.5 64.5t-176 185t-59.5 282.5v143q0 162 59 282.5t176 185.5t279 65q245 0 378.5 -143t133.5 -390v-143zM786 514v143q0 124 -46 187t-136 63q-89 0 -136.5 -62.5t-47.5 -187.5v-143q0 -124 48 -188t136 -64
q89 0 135.5 64t46.5 188zM1010 1528q0 -129 -64.5 -187.5t-185.5 -58.5q-33 0 -71.5 11.5t-73.5 33.5l-86 59q-52 37 -84 37q-47 0 -47 -55v-39q0 -35 -31 -35h-145q-31 0 -31 35v39q0 126 65.5 185t186.5 59q77 0 143 -43l88 -58q57 -36 82 -36q24 0 35.5 12.5t11.5 42.5
v39q0 33 33 33h144q30 0 30 -33v-41z" />
    <glyph glyph-name="uacute" unicode="&#xfa;" horiz-adv-x="1253" 
d="M1130 41q0 -18 -12 -29.5t-28 -11.5h-230q-15 0 -28 12t-13 29v49q-80 -57 -158 -81.5t-176 -24.5q-107 0 -178.5 35t-111 96.5t-56 144.5t-16.5 189v681q0 18 13 31t30 13h248q16 0 28.5 -13.5t12.5 -30.5v-681q0 -110 30 -150.5t121 -40.5q42 0 83.5 15.5t109.5 50.5
v806q0 17 11.5 30.5t29.5 13.5h247q17 0 30 -13t13 -31v-1089zM1003 1581q0 -8 -8 -16l-250 -250q-24 -25 -49 -25h-219q-19 0 -19 15q0 9 8 20l191 240q15 19 24.5 24.5t30.5 5.5h268q23 0 23 -14z" />
    <glyph glyph-name="ugrave" unicode="&#xf9;" horiz-adv-x="1253" 
d="M1130 41q0 -18 -12 -29.5t-28 -11.5h-230q-15 0 -28 12t-13 29v49q-80 -57 -158 -81.5t-176 -24.5q-107 0 -178.5 35t-111 96.5t-56 144.5t-16.5 189v681q0 18 13 31t30 13h248q16 0 28.5 -13.5t12.5 -30.5v-681q0 -110 30 -150.5t121 -40.5q42 0 83.5 15.5t109.5 50.5
v806q0 17 11.5 30.5t29.5 13.5h247q17 0 30 -13t13 -31v-1089zM814 1305q0 -15 -18 -15h-220q-12 0 -19.5 2.5t-15 9t-14.5 13.5l-250 250q-8 8 -8 16q0 14 23 14h270q21 0 30 -5.5t25 -24.5l189 -240q8 -11 8 -20z" />
    <glyph glyph-name="ucircumflex" unicode="&#xfb;" horiz-adv-x="1253" 
d="M1130 41q0 -18 -12 -29.5t-28 -11.5h-230q-15 0 -28 12t-13 29v49q-80 -57 -158 -81.5t-176 -24.5q-107 0 -178.5 35t-111 96.5t-56 144.5t-16.5 189v681q0 18 13 31t30 13h248q16 0 28.5 -13.5t12.5 -30.5v-681q0 -110 30 -150.5t121 -40.5q42 0 83.5 15.5t109.5 50.5
v806q0 17 11.5 30.5t29.5 13.5h247q17 0 30 -13t13 -31v-1089zM1032 1305q0 -15 -18 -15h-211q-17 0 -25.5 4.5t-23.5 20.5l-129 143l-131 -143q-22 -25 -50 -25h-211q-18 0 -18 15q0 9 8 20l183 240q15 19 24.5 24.5t30.5 5.5h327q22 0 32 -5.5t24 -24.5l180 -240
q8 -11 8 -20z" />
    <glyph glyph-name="udieresis" unicode="&#xfc;" horiz-adv-x="1253" 
d="M1130 41q0 -18 -12 -29.5t-28 -11.5h-230q-15 0 -28 12t-13 29v49q-80 -57 -158 -81.5t-176 -24.5q-107 0 -178.5 35t-111 96.5t-56 144.5t-16.5 189v681q0 18 13 31t30 13h248q16 0 28.5 -13.5t12.5 -30.5v-681q0 -110 30 -150.5t121 -40.5q42 0 83.5 15.5t109.5 50.5
v806q0 17 11.5 30.5t29.5 13.5h247q17 0 30 -13t13 -31v-1089zM989 1348q0 -18 -14 -29.5t-31 -11.5h-192q-16 0 -29.5 11.5t-13.5 29.5v190q0 18 12.5 29.5t30.5 11.5h192q19 0 32 -11.5t13 -29.5v-190zM545 1348q0 -18 -13.5 -29.5t-29.5 -11.5h-193q-16 0 -30.5 12
t-14.5 29v190q0 17 14 29t31 12h193q18 0 30.5 -11.5t12.5 -29.5v-190z" />
    <glyph glyph-name="dagger" unicode="&#x2020;" horiz-adv-x="901" 
d="M840 952q0 -32 -39 -32h-189v-891q0 -41 -32 -41h-271q-15 0 -24 11.5t-9 29.5v891h-176q-39 0 -39 32v213q0 31 39 31h176v336q0 17 9.5 28t25.5 11h269q14 0 23 -11.5t9 -27.5v-336h189q39 0 39 -31v-213z" />
    <glyph glyph-name="degree" unicode="&#xb0;" horiz-adv-x="739" 
d="M684 1225q0 -64 -23.5 -121t-68 -102t-101 -69t-120.5 -24q-129 0 -222.5 92.5t-93.5 223.5t93 223t223 92q64 0 121.5 -24t101 -68t67 -101.5t23.5 -121.5zM518 1225q0 41 -20 75t-53 54t-74 20q-40 0 -74 -20t-54 -54t-20 -75q0 -59 43.5 -103.5t104.5 -44.5
q62 0 104.5 43.5t42.5 104.5z" />
    <glyph glyph-name="cent" unicode="&#xa2;" 
d="M1057 59q0 -22 -9 -31t-34 -16q-71 -18 -162 -26v-150q0 -17 -12 -29t-29 -12h-207q-15 0 -28 13t-13 28v172q-91 31 -159.5 98.5t-104 166t-35.5 227.5v172q0 98 20.5 177.5t59.5 141.5t95 106t124 66v168q0 17 12 29t29 12h207q19 0 30 -11t11 -30v-145q85 -7 162 -27
q25 -7 34 -16t9 -31v-182q0 -15 -12 -25t-27 -10h-4q-133 14 -250 14q-168 0 -168 -237v-172q0 -128 46 -183t122 -55q64 0 130 4t120 10h4q17 0 28 -9.5t11 -24.5v-183z" />
    <glyph glyph-name="sterling" unicode="&#xa3;" 
d="M1182 1257q0 -36 -33 -36h-6q-206 24 -338 24q-72 0 -110.5 -13.5t-57.5 -48.5t-19 -100v-172h347q16 0 28.5 -11.5t12.5 -27.5v-198q0 -17 -11 -28t-28 -11h-349v-205q0 -85 -40 -156h561q18 0 29.5 -10t11.5 -26v-199q0 -16 -12.5 -27.5t-28.5 -11.5h-906q-38 0 -38 49
v144q0 13 7 28t11 21q26 34 47 87t21 101v205h-103q-17 0 -28 11t-11 28v198q0 16 12.5 27.5t28.5 11.5h101v170q0 161 52 262t168 149t304 48q50 0 117 -6t128 -15.5t93 -17.5q26 -6 32.5 -13.5t6.5 -27.5v-203z" />
    <glyph glyph-name="section" unicode="&#xa7;" horiz-adv-x="1206" 
d="M1124 2q0 -116 -55 -216.5t-179.5 -164t-322.5 -63.5q-106 0 -208 11.5t-191 33.5q-41 12 -41 41v206q0 16 12 27.5t29 11.5h4l138 -13.5t122.5 -10t122.5 -4.5h12q106 1 149.5 33t43.5 108q0 44 -32.5 77t-113.5 77l-272 149q-102 55 -159.5 117.5t-79 134t-21.5 168.5
q0 41 18.5 107t42.5 104q-26 32 -42.5 86t-16.5 108q0 188 121.5 299t400.5 111q111 0 243 -14t191 -31q41 -12 41 -39v-209q0 -12 -7 -20t-19 -8h-2q-292 16 -447 16q-63 0 -100 -8t-53.5 -30.5t-16.5 -66.5q0 -37 32 -67t116 -76l262 -141q102 -55 164.5 -118.5t88 -134
t25.5 -157.5q0 -56 -16 -116.5t-37 -100.5q53 -86 53 -217zM834 451q0 46 -17 77.5t-54 60t-126 77.5l-148 79q-74 42 -100 64q-35 -36 -35 -104q0 -41 13 -68t52 -56t111 -67l144 -76q64 -33 135 -90q25 45 25 103z" />
    <glyph glyph-name="bullet" unicode="&#x2022;" horiz-adv-x="856" 
d="M770 752q0 -94 -46 -172t-125.5 -124t-170.5 -46t-170.5 46t-125.5 124t-46 172q0 92 46 171t125 125t171 46t171 -46t125 -125t46 -171z" />
    <glyph glyph-name="paragraph" unicode="&#xb6;" horiz-adv-x="1350" 
d="M1233 -360q0 -17 -10 -28t-25 -11h-88q-15 0 -25 12t-10 27v1726h-129v-1726q0 -17 -10 -28t-25 -11h-88q-15 0 -25 12t-10 27v856h-196q-142 0 -256.5 53.5t-179 157t-64.5 245.5v113q0 142 64.5 246t178.5 157.5t257 53.5h608q33 0 33 -39v-1843z" />
    <glyph glyph-name="germandbls" unicode="&#xdf;" horiz-adv-x="1335" 
d="M1225 461q0 -155 -68 -264t-182 -162t-248 -53q-60 0 -125 12q-41 7 -41 39v196q0 33 23 33h2q24 -2 76 -2q229 0 229 201v43q0 82 -54 131t-165 49h-64q-16 0 -28.5 11.5t-12.5 27.5v162q0 16 12.5 27.5t28.5 11.5h64q105 0 152.5 48t47.5 122v39q0 75 -48 121t-150 46
q-125 0 -174 -63.5t-49 -181.5v-1012q0 -17 -11 -30t-28 -13h-254q-18 0 -29.5 13.5t-11.5 29.5v1012q0 180 63 297.5t188.5 175t305.5 57.5q168 0 287.5 -53t181 -154.5t61.5 -244.5v-39q0 -91 -54.5 -168.5t-131.5 -112.5q64 -27 111 -73t71.5 -105.5t24.5 -130.5v-43z
" />
    <glyph glyph-name="registered" unicode="&#xae;" horiz-adv-x="1225" 
d="M1186 991q0 -115 -44.5 -220t-124 -184t-184 -123t-221.5 -44q-115 0 -219.5 44t-184 123.5t-123.5 184t-44 219.5q0 116 44 220.5t122 183t184 123.5t221 45q117 0 222.5 -44.5t184 -123t123 -183.5t44.5 -221zM1081 991q0 127 -63 235t-171 171t-235 63t-234.5 -63
t-170 -171.5t-62.5 -234.5t62.5 -234.5t170 -171.5t234.5 -63t235 63t171 171t63 235zM895 676q0 -8 -5.5 -14.5t-15.5 -6.5h-137q-11 0 -20 17l-129 227q-1 0 -8 6t-9 6h-53v-233q0 -10 -6.5 -16.5t-15.5 -6.5h-123q-23 0 -23 23v602q0 32 10.5 44t40.5 17q68 11 183 11
q141 0 213.5 -51t72.5 -171v-14q0 -128 -120 -178l141 -248q4 -8 4 -14zM709 1116v14q0 42 -25.5 61t-85.5 19h-84v-174q24 0 44 -0.5t40 -1.5q60 0 85.5 20.5t25.5 61.5z" />
    <glyph glyph-name="copyright" unicode="&#xa9;" horiz-adv-x="1536" 
d="M1450 766q0 -138 -53 -262t-147 -218t-219 -147t-265 -53q-137 0 -261.5 52.5t-219 147t-147 219t-52.5 261.5q0 140 52.5 264.5t146.5 219.5t218.5 148.5t262.5 53.5q141 0 266.5 -54t218 -148t146 -218.5t53.5 -265.5zM1343 766q0 156 -78 289t-211 212t-288 79
t-288.5 -79t-210.5 -212.5t-77 -288.5q0 -154 77 -286t210 -209.5t289 -77.5t289 77t210.5 209t77.5 287zM977 375q0 -23 -27 -29q-63 -18 -168 -18q-110 0 -188 42t-119 128.5t-41 216.5v114q0 131 41 218t118 128.5t189 41.5q84 0 168 -21q15 -3 21 -7.5t6 -17.5v-129
q0 -24 -25 -24h-4q-78 10 -166 10q-137 0 -137 -199v-114q0 -201 137 -201q52 0 95.5 3t70.5 7h6q23 0 23 -22v-127z" />
    <glyph glyph-name="trademark" unicode="&#x2122;" horiz-adv-x="1700" 
d="M1620 715q0 -21 -23 -21h-159q-23 0 -23 21v495q0 60 -12 88.5t-41.5 38t-89.5 9.5v-631q0 -21 -23 -21h-162q-20 0 -20 21v631q-46 0 -143 -9v-622q0 -21 -21 -21h-160q-22 0 -22 21v727q0 37 11.5 51.5t45.5 17.5q185 19 389 19q121 0 202 -11t136.5 -42.5t85 -96
t29.5 -170.5v-495zM655 1378q0 -26 -26 -26h-168v-631q0 -11 -8 -19t-19 -8h-158q-10 0 -18 8t-8 19v631h-172q-27 0 -27 26v117q0 11 8 19t19 8h551q12 0 19 -8t7 -19v-117z" />
    <glyph glyph-name="acute" unicode="&#xb4;" horiz-adv-x="907" 
d="M852 1581q0 -8 -8 -16l-250 -250q-24 -25 -49 -25h-219q-19 0 -19 15q0 9 8 20l191 240q15 19 24.5 24.5t30.5 5.5h268q23 0 23 -14z" />
    <glyph glyph-name="dieresis" unicode="&#xa8;" horiz-adv-x="907" 
d="M817 1348q0 -18 -14 -29.5t-31 -11.5h-192q-16 0 -29.5 11.5t-13.5 29.5v190q0 18 12.5 29.5t30.5 11.5h192q19 0 32 -11.5t13 -29.5v-190zM373 1348q0 -18 -13.5 -29.5t-29.5 -11.5h-193q-16 0 -30.5 12t-14.5 29v190q0 17 14 29t31 12h193q18 0 30.5 -11.5t12.5 -29.5
v-190z" />
    <glyph glyph-name="notequal" unicode="&#x2260;" horiz-adv-x="1124" 
d="M495 417l-194 -445h-136l195 445h-282v168h356l122 277h-478v168h551l196 444h134l-195 -444h282v-168h-356l-121 -277h477v-168h-551z" />
    <glyph glyph-name="AE" unicode="&#xc6;" horiz-adv-x="1890" 
d="M1776 51q0 -37 -41 -43q-3 0 -62 -9t-129 -13t-155 -4q-221 0 -351.5 82t-144.5 309h-418l-74 -336q-7 -37 -41 -37h-286q-35 0 -35 33q1 2 1.5 4t0.5 6l305 1270q18 72 51.5 113.5t80.5 63t96.5 27t111.5 5.5h1049q41 0 41 -41v-199q0 -15 -13 -28t-28 -13h-496v-326
h479q19 0 30 -11t11 -30v-194q0 -18 -12 -29.5t-29 -11.5h-479v-217q0 -78 29 -108.5t102 -30.5h365q15 0 28 -13t13 -28v-191zM891 653v596h-205q-21 0 -29 -30l-125 -566h359z" />
    <glyph glyph-name="Oslash" unicode="&#xd8;" horiz-adv-x="1430" 
d="M1386 1513q0 -7 -6 -16l-153 -211q45 -75 69.5 -177.5t24.5 -225.5v-244q0 -337 -166.5 -497t-439.5 -160q-209 0 -357 94l-39 -56q-28 -38 -53 -38h-198q-23 0 -23 22q0 7 6 16l154 213q-96 162 -96 406v244q0 337 166.5 497t439.5 160q107 0 197.5 -23t162.5 -71l37 51
q29 39 53 39h199q22 0 22 -23zM883 1178q-63 55 -168 55q-85 0 -141.5 -36.5t-83.5 -114.5t-27 -199v-244q1 -11 1.5 -20t0.5 -23zM969 909v15l-418 -582q59 -53 164 -53q131 0 192.5 83.5t61.5 266.5v244v26z" />
    <glyph glyph-name="infinity" unicode="&#x221e;" horiz-adv-x="1460" 
d="M689 812q105 132 164 174q80 58 169 58q105 0 196.5 -76t91.5 -245q0 -118 -34 -185.5t-106 -108.5t-148 -41q-89 0 -169 57q-59 43 -164 175q-136 -171 -289 -171q-101 0 -173.5 76.5t-72.5 190.5q0 113 72.5 190t173.5 77q153 0 289 -171zM758 717q87 -135 159 -185
q46 -33 103 -33q76 0 127.5 56t51.5 158q0 106 -52.5 162t-130.5 56q-49 0 -92 -28q-58 -39 -166 -186zM620 716q-80 100 -128 128.5t-92 28.5q-58 0 -96.5 -41t-38.5 -113q0 -71 40 -113.5t97 -42.5q101 0 218 153z" />
    <glyph glyph-name="plusminus" unicode="&#xb1;" 
d="M1143 709q0 -33 -41 -33h-318v-316q0 -41 -32 -41h-185q-32 0 -32 41v316h-316q-41 0 -41 33v184q0 15 12.5 24t28.5 9h316v317q0 41 32 41h185q32 0 32 -41v-317h318q16 0 28.5 -9t12.5 -24v-184zM1143 -8q0 -33 -41 -33h-883q-41 0 -41 33v145q0 33 41 33h883
q41 0 41 -33v-145z" />
    <glyph glyph-name="lessequal" unicode="&#x2264;" horiz-adv-x="1124" 
d="M77 762v168l971 410v-180l-770 -315l770 -319v-179zM1046 106h-968v167h968v-167z" />
    <glyph glyph-name="greaterequal" unicode="&#x2265;" horiz-adv-x="1124" 
d="M1048 762l-971 -415v179l769 319l-769 315v180l971 -410v-168zM1046 106h-968v167h968v-167z" />
    <glyph glyph-name="yen" unicode="&#xa5;" 
d="M1276 1495q0 -12 -4 -18l-228 -459h179q16 0 28.5 -11.5t12.5 -27.5v-152q0 -17 -11 -28t-28 -11h-291l-94 -188l-4 -22h387q16 0 28.5 -11t12.5 -26v-154q0 -16 -11.5 -26.5t-27.5 -10.5h-389v-309q0 -17 -13 -29t-28 -12h-273q-16 0 -27.5 11.5t-11.5 29.5v309h-387
q-16 0 -28.5 11t-12.5 26v154q0 15 12.5 26t28.5 11h387l-2 22l-92 188h-293q-16 0 -28.5 11.5t-12.5 27.5v152q0 16 12.5 27.5t28.5 11.5h180l-227 459q-4 6 -4 18q0 27 31 27h301q23 0 39 -35l243 -553l246 553q16 35 39 35h301q31 0 31 -27z" />
    <glyph glyph-name="uni00B5" unicode="&#xb5;" horiz-adv-x="1253" 
d="M1130 100q0 -42 -63 -63q-77 -25 -186.5 -40t-245.5 -15q-102 0 -182 18v-350q0 -17 -13 -29t-28 -12h-250q-17 0 -29 12t-12 29l2 1478q0 17 12 31.5t29 14.5h248q16 0 29.5 -14.5t13.5 -31.5v-679q0 -69 18.5 -112.5t58 -63t103.5 -19.5q107 0 164 14v860q0 17 12 31.5
t29 14.5h247q16 0 29.5 -14.5t13.5 -31.5v-1028z" />
    <glyph glyph-name="partialdiff" unicode="&#x2202;" horiz-adv-x="1012" 
d="M426 1138l-135 60q70 157 168 225t192 68q76 0 137.5 -39.5t92.5 -90.5q47 -79 69.5 -187t22.5 -248q0 -288 -86.5 -512.5t-233.5 -331.5t-289 -107q-137 0 -222.5 91t-85.5 256q0 226 153 387q197 207 649 215q-4 168 -24 256t-68 135.5t-113 47.5q-62 0 -121 -49.5
t-106 -175.5zM854 796q-244 -14 -357.5 -68t-187 -176.5t-73.5 -248.5q0 -83 51 -137t119 -54q75 0 160 55q117 76 190.5 234.5t97.5 394.5z" />
    <glyph glyph-name="summation" unicode="&#x2211;" horiz-adv-x="1460" 
d="M139 1491h1237v-164h-988l607 -775l-649 -822h1040v-161h-1264v187l620 788l-603 772v175z" />
    <glyph glyph-name="product" unicode="&#x220f;" horiz-adv-x="1686" 
d="M161 1491h1362v-1922h-191v1748h-978v-1748h-193v1922z" />
    <glyph glyph-name="uniF006" unicode="&#xf006;" horiz-adv-x="1413" 
d="M505 916v-916h-180v916h-280v146h1324v-146h-242v-916h-180v916h-442z" />
    <glyph glyph-name="integral" unicode="&#x222b;" horiz-adv-x="561" 
d="M561 1755q0 -29 -12.5 -53t-34 -36.5t-47.5 -12.5q-36 0 -76 35q-20 20 -39 20q-41 0 -41 -63q0 -46 11 -146q18 -204 27 -371t9 -294l-2 -121l-14 -471q-6 -190 -49 -320q-22 -67 -68 -104t-106 -37q-54 0 -86.5 33.5t-32.5 87.5q0 44 25 71t65 27q42 0 70 -33
q13 -14 24 -22t25 -8q39 0 39 61q0 37 -10 119q-20 170 -29 395q-3 104 -6 229q-2 70 -2 154l16 553q6 191 66 317q19 40 63.5 69.5t87.5 29.5q31 0 61.5 -15t48 -41t17.5 -53z" />
    <glyph glyph-name="ordfeminine" unicode="&#xaa;" horiz-adv-x="731" 
d="M655 856q0 -28 -16 -33q-122 -32 -262 -32q-158 0 -233.5 55.5t-75.5 171.5v14q0 108 84 155.5t241 47.5h45v27q0 56 -17.5 74t-68.5 18q-53 0 -118 -4t-87 -7h-2q-10 0 -18 9t-8 20v103q0 23 28 30q33 11 89.5 21t115.5 10q96 0 162.5 -26t103.5 -88t37 -160v-406z
M438 950v164q-6 1 -12.5 1.5t-19.5 0.5q-11 0 -13 -2q-62 0 -90.5 -19t-28.5 -63v-14q0 -42 24 -58t79 -16q14 0 28 2t33 4z" />
    <glyph glyph-name="ordmasculine" unicode="&#xba;" horiz-adv-x="778" 
d="M711 1128q0 -112 -37.5 -187.5t-109 -112.5t-173.5 -37q-154 0 -237.5 85t-83.5 252v68q0 112 37.5 188t109.5 114t174 38t173.5 -38t109 -114t37.5 -188v-68zM492 1128v68q0 84 -24 120t-77 36q-52 0 -78 -36.5t-26 -119.5v-68q0 -82 26 -118.5t78 -36.5t76.5 36.5
t24.5 118.5z" />
    <glyph glyph-name="uni2126" unicode="&#x2126;" horiz-adv-x="1573" 
d="M496 160q-108 67 -165 130q-87 96 -134 225.5t-47 286.5q0 196 79.5 360.5t231 252.5t347.5 88q336 0 516 -254q131 -186 131 -448q0 -168 -54 -297.5t-141 -222.5q-53 -58 -149 -121l364 6v-166h-575v177q80 40 124 78q72 61 122 145t75.5 179t25.5 198
q0 138 -49.5 277.5t-150 212.5t-243.5 73q-191 0 -296 -120q-146 -169 -146 -440q0 -217 91 -372.5t251 -227.5v-180h-577v168z" />
    <glyph glyph-name="ae" unicode="&#xe6;" horiz-adv-x="1804" 
d="M1710 543q0 -17 -13 -30t-30 -13h-635v-84q0 -85 60 -121.5t178 -36.5q62 0 180 5t174 11h10q33 0 33 -32v-148q0 -23 -8.5 -34.5t-30.5 -18.5q-85 -28 -193 -43.5t-212 -15.5q-180 0 -289 94q-79 -44 -186 -69t-213 -25q-123 0 -224.5 37.5t-163 120.5t-61.5 212v23
q0 172 135 247.5t395 75.5h86v19q0 112 -35 154t-124 42q-44 0 -107 -1.5t-133 -5.5t-94 -7h-6q-35 0 -35 37v162q0 17 11 30.5t30 18.5q167 43 334 43q225 0 348 -123q64 61 142 92t181 31q170 0 280 -64t163 -180t53 -272v-131zM1393 680v37q0 217 -181 217
q-90 0 -135 -57t-45 -160v-37h361zM713 244v274h-97q-111 0 -163 -32.5t-52 -110.5v-23q0 -70 46.5 -102.5t115.5 -32.5q92 0 150 27z" />
    <glyph glyph-name="oslash" unicode="&#xf8;" horiz-adv-x="1206" 
d="M1145 1225q0 -15 -8 -23l-133 -178q112 -138 112 -367v-143q0 -248 -133.5 -390t-378.5 -142q-185 0 -307 81l-86 -114q-15 -21 -33 -21h-102q-17 0 -17 17q0 12 9 22l135 183q-113 137 -113 364v143q0 162 59 282.5t176 185.5t279 65q183 0 307 -82l82 113q17 20 33 20
h102q17 0 17 -16zM727 860q-47 47 -123 47q-89 0 -136.5 -62.5t-47.5 -187.5v-143q0 -25 4 -65zM786 514v143q0 24 -4 66l-303 -412q47 -49 125 -49q89 0 135.5 64t46.5 188z" />
    <glyph glyph-name="questiondown" unicode="&#xbf;" horiz-adv-x="981" 
d="M768 877q0 -18 -12 -29.5t-29 -11.5h-242q-15 0 -28 12t-13 29v258q0 16 12.5 27.5t28.5 11.5h242q18 0 29.5 -10.5t11.5 -28.5v-258zM911 -293q0 -25 -7 -36t-30 -17q-140 -43 -327 -43q-111 0 -191.5 17.5t-139 57.5t-88.5 106t-30 159v35q0 68 35 138.5t123 182.5
l92 119l79 102t26.5 44t9.5 40v58q0 17 15 28t34 11h205q16 0 27.5 -12.5t11.5 -28.5v-56q0 -88 -15 -142.5t-71 -127.5l-99 -129q-56 -76 -75 -118.5t-19 -88.5v-20q0 -76 101 -76q112 0 292 22h7q34 0 34 -43v-182z" />
    <glyph glyph-name="exclamdown" unicode="&#xa1;" horiz-adv-x="559" 
d="M440 874q0 -16 -11.5 -27t-29.5 -11h-241q-39 0 -39 38v259q0 16 11.5 28.5t27.5 12.5h241q17 0 29 -12t12 -29v-259zM451 -358q0 -15 -14.5 -27t-30.5 -12h-256q-17 0 -29 12t-12 27v2l41 1022q2 17 13 30t27 13h175q16 0 30.5 -13.5t14.5 -29.5l41 -1022v-2z" />
    <glyph glyph-name="logicalnot" unicode="&#xac;" 
d="M1130 406q0 -18 -10.5 -29.5t-27.5 -11.5h-174q-17 0 -27 12t-10 29v534h-650q-41 0 -41 33v182q0 33 41 33h861q18 0 28 -8.5t10 -24.5v-749z" />
    <glyph glyph-name="radical" unicode="&#x221a;" horiz-adv-x="1124" 
d="M1124 1870l-311 -1948l-496 1022l-198 -92l-35 63l301 152l403 -823h5l258 1626h73z" />
    <glyph glyph-name="florin" unicode="&#x192;" 
d="M1253 1554v-8l-20 -153q-2 -17 -15.5 -27t-33.5 -10h-133q-74 0 -100.5 -20.5t-35.5 -80.5l-45 -325h275q15 0 26 -10t11 -23v-6l-25 -172q-3 -19 -16 -31t-31 -12h-274l-95 -666q-27 -190 -140.5 -269t-291.5 -79q-121 0 -203 19q-36 8 -36 30v8l20 154q1 17 14.5 27
t34.5 10h133q74 0 101 20.5t35 79.5l92 666h-258q-18 0 -27.5 10.5t-9.5 26.5v6l24 172q3 17 16 28t31 11h261l45 325q25 191 140 270t292 79q110 0 203 -19q36 -8 36 -31z" />
    <glyph glyph-name="approxequal" unicode="&#x2248;" horiz-adv-x="1124" 
d="M51 738v205q106 120 278 120q60 0 125.5 -17t188.5 -70q69 -30 103.5 -38.5t69.5 -8.5q65 0 134.5 39t123.5 98v-212q-64 -60 -129.5 -87t-147.5 -27q-60 0 -114 13.5t-173 67t-198 53.5q-64 0 -120.5 -27.5t-140.5 -108.5zM51 376v205q106 120 278 120q60 0 125.5 -17
t188.5 -70q69 -29 103.5 -38t69.5 -9q65 0 134.5 39t123.5 98v-212q-64 -60 -129.5 -87t-147.5 -27q-60 0 -114 14t-173 67t-198 53q-64 0 -120.5 -27.5t-140.5 -108.5z" />
    <glyph glyph-name="uni2206" unicode="&#x2206;" horiz-adv-x="1253" 
d="M1227 0h-1200l628 1386zM991 82l-399 967l-440 -967h839z" />
    <glyph glyph-name="guillemotleft" unicode="&#xab;" horiz-adv-x="1470" 
d="M1403 152q0 -23 -29 -23h-250q-38 0 -59 25l-328 378q-20 24 -20 54t20 53l328 379q21 24 59 24h250q29 0 29 -22q0 -5 -8 -19l-361 -415l361 -416q8 -12 8 -18zM778 152q0 -23 -28 -23h-248q-40 0 -62 25l-327 378q-21 24 -21 54q0 31 21 53l327 379q23 24 62 24h248
q28 0 28 -22q0 -5 -8 -19l-360 -415l360 -416q8 -12 8 -18z" />
    <glyph glyph-name="guillemotright" unicode="&#xbb;" horiz-adv-x="1470" 
d="M1399 586q0 -28 -23 -54l-327 -378q-22 -25 -60 -25h-248q-28 0 -28 23q0 6 8 18l360 416l-360 415q-8 14 -8 19q0 22 28 22h248q37 0 60 -24l327 -379q23 -25 23 -53zM774 586q0 -30 -20 -54l-328 -378q-21 -25 -61 -25h-248q-29 0 -29 23q0 6 8 18l361 416l-361 415
q-8 14 -8 19q0 22 29 22h248q40 0 61 -24l328 -379q20 -23 20 -53z" />
    <glyph glyph-name="ellipsis" unicode="&#x2026;" horiz-adv-x="1571" 
d="M1468 41q0 -18 -12 -29.5t-29 -11.5h-241q-17 0 -29 12t-12 29v258q0 16 11.5 27.5t29.5 11.5h241q18 0 29.5 -10.5t11.5 -28.5v-258zM948 41q0 -18 -12 -29.5t-29 -11.5h-241q-17 0 -29 12t-12 29v258q0 16 11.5 27.5t29.5 11.5h241q18 0 29.5 -10.5t11.5 -28.5v-258z
M428 41q0 -18 -12 -29.5t-29 -11.5h-242q-15 0 -28 12t-13 29v258q0 16 12.5 27.5t28.5 11.5h242q18 0 29.5 -10.5t11.5 -28.5v-258z" />
    <glyph glyph-name="uni00A0" unicode="&#xa0;" 
 />
    <glyph glyph-name="Agrave" unicode="&#xc0;" horiz-adv-x="1370" 
d="M1331 33q0 -33 -35 -33h-286q-34 0 -41 37l-74 336h-420l-74 -336q-7 -37 -41 -37h-286q-35 0 -35 33q1 2 1.5 4t0.5 6l305 1270q33 134 122 180.5t218 46.5q84 0 148.5 -17.5t115.5 -67.5t74 -142l305 -1270q1 -3 1.5 -5t0.5 -5zM838 653l-125 566q-6 30 -27 30t-29 -30
l-125 -566h306zM929 1641q0 -15 -18 -15h-220q-12 0 -19.5 2.5t-15 9t-14.5 13.5l-250 250q-8 8 -8 16q0 14 23 14h270q21 0 30 -5.5t25 -24.5l189 -240q8 -11 8 -20z" />
    <glyph glyph-name="Atilde" unicode="&#xc3;" horiz-adv-x="1370" 
d="M1331 33q0 -33 -35 -33h-286q-34 0 -41 37l-74 336h-420l-74 -336q-7 -37 -41 -37h-286q-35 0 -35 33q1 2 1.5 4t0.5 6l305 1270q33 134 122 180.5t218 46.5q84 0 148.5 -17.5t115.5 -67.5t74 -142l305 -1270q1 -3 1.5 -5t0.5 -5zM838 653l-125 566q-6 30 -27 30t-29 -30
l-125 -566h306zM1096 1858q0 -129 -64.5 -187.5t-185.5 -58.5q-33 0 -71.5 11.5t-73.5 33.5l-86 59q-52 37 -84 37q-47 0 -47 -55v-39q0 -35 -31 -35h-145q-31 0 -31 35v39q0 126 65.5 185t186.5 59q77 0 143 -43l88 -58q57 -36 82 -36q24 0 35.5 12.5t11.5 42.5v39
q0 33 33 33h144q30 0 30 -33v-41z" />
    <glyph glyph-name="Otilde" unicode="&#xd5;" horiz-adv-x="1430" 
d="M1321 639q0 -337 -166.5 -497t-439.5 -160q-271 0 -438.5 160t-167.5 497v244q0 337 166.5 497t439.5 160q133 0 243 -37t191 -115t126.5 -205t45.5 -300v-244zM969 639v244q0 183 -61.5 266.5t-192.5 83.5q-85 0 -141.5 -36.5t-83.5 -114.5t-27 -199v-244
q0 -122 27 -199t82 -114t143 -37q131 0 192.5 83.5t61.5 266.5zM1133 1860q0 -129 -64.5 -187.5t-185.5 -58.5q-33 0 -71.5 11.5t-73.5 33.5l-86 59q-52 37 -84 37q-47 0 -47 -55v-39q0 -35 -31 -35h-145q-31 0 -31 35v39q0 126 65.5 185t186.5 59q77 0 143 -43l88 -58
q57 -36 82 -36q24 0 35.5 12.5t11.5 42.5v39q0 33 33 33h144q30 0 30 -33v-41z" />
    <glyph glyph-name="OE" unicode="&#x152;" horiz-adv-x="2021" 
d="M1907 51q0 -37 -41 -43q-187 -26 -398 -26q-125 0 -219.5 22.5t-158.5 81.5q-145 -104 -375 -104q-271 0 -438.5 160t-167.5 497v244q0 337 166.5 497t439.5 160q225 0 375 -106q45 41 105 63.5t126.5 31.5t148.5 9q142 0 237.5 -8.5t158.5 -18.5q41 -6 41 -41v-190
q0 -17 -13 -29t-28 -12h-416q-73 0 -102 -30t-29 -109v-148q1 -9 1.5 -16.5t0.5 -20.5h528q19 0 30 -11t11 -30v-194q0 -18 -12 -29.5t-29 -11.5h-528q0 -24 -0.5 -38.5t-1.5 -31.5v-147q0 -78 29 -108.5t102 -30.5h416q15 0 28 -13t13 -28v-191zM969 639v244
q0 183 -61.5 266.5t-192.5 83.5q-85 0 -141.5 -36.5t-83.5 -114.5t-27 -199v-244q0 -122 27 -199t82 -114t143 -37q131 0 192.5 83.5t61.5 266.5z" />
    <glyph glyph-name="oe" unicode="&#x153;" horiz-adv-x="1909" 
d="M1817 532q0 -49 -43 -49h-654v-10v-6q3 -94 53.5 -152.5t157.5 -58.5q70 0 207 6.5t186 11.5h7q38 0 38 -32v-156q0 -25 -9.5 -37.5t-33.5 -17.5q-110 -27 -200.5 -38t-218.5 -11q-223 0 -351 133q-133 -133 -350 -133q-162 0 -278.5 64.5t-176 185t-59.5 282.5v143
q0 162 59 282.5t176 185.5t279 65q212 0 352 -137q65 66 154 101.5t199 35.5q163 0 277.5 -69t171.5 -191.5t57 -278.5v-119zM1493 688v8q0 113 -48.5 170.5t-135.5 57.5q-57 0 -99.5 -25.5t-66 -76.5t-23.5 -120v-14h373zM788 514v143q0 124 -46 187t-136 63
q-182 0 -182 -250v-143q0 -252 182 -252q89 0 135.5 64t46.5 188z" />
    <glyph glyph-name="endash" unicode="&#x2013;" horiz-adv-x="807" 
d="M752 514q0 -16 -12.5 -27.5t-28.5 -11.5h-615q-17 0 -28 11t-11 28v162q0 16 11.5 28.5t27.5 12.5h615q15 0 28 -13t13 -28v-162z" />
    <glyph glyph-name="emdash" unicode="&#x2014;" horiz-adv-x="1075" 
d="M1020 514q0 -16 -12.5 -27.5t-28.5 -11.5h-883q-17 0 -28 11t-11 28v162q0 16 11.5 28.5t27.5 12.5h883q15 0 28 -13t13 -28v-162z" />
    <glyph glyph-name="quotedblleft" unicode="&#x201c;" horiz-adv-x="969" 
d="M920 1550q0 -12 -2 -18l-111 -449q-8 -39 -41 -39h-244q-24 0 -24 23q0 4 4 16l151 449q13 39 39 39h209q19 0 19 -21zM469 1550q0 -12 -2 -18l-111 -449q-8 -39 -41 -39h-243q-25 0 -25 23q0 4 4 16l154 449q6 18 15 28.5t24 10.5h207q18 0 18 -21z" />
    <glyph glyph-name="quotedblright" unicode="&#x201d;" horiz-adv-x="969" 
d="M922 1548q0 -4 -4 -16l-154 -449q-15 -39 -39 -39h-207q-18 0 -18 21q0 12 2 18l110 449q8 39 41 39h244q25 0 25 -23zM471 1548q0 -4 -4 -16l-152 -449q-12 -39 -39 -39h-208q-19 0 -19 21q0 12 2 18l113 449q8 39 41 39h241q25 0 25 -23z" />
    <glyph glyph-name="quoteleft" unicode="&#x2018;" horiz-adv-x="518" 
d="M469 1550q0 -12 -2 -18l-111 -449q-8 -39 -41 -39h-243q-25 0 -25 23q0 4 4 16l154 449q6 18 15 28.5t24 10.5h207q18 0 18 -21z" />
    <glyph glyph-name="quoteright" unicode="&#x2019;" horiz-adv-x="518" 
d="M471 1548q0 -4 -4 -16l-154 -449q-9 -23 -16.5 -31t-22.5 -8h-206q-19 0 -19 21q0 12 2 18l111 449q8 39 41 39h243q25 0 25 -23z" />
    <glyph glyph-name="divide" unicode="&#xf7;" 
d="M821 1130q0 -17 -12 -28.5t-29 -11.5h-241q-17 0 -29 12t-12 28v230q0 15 12 28t29 13h241q17 0 29 -12t12 -29v-230zM1130 709q0 -33 -40 -33h-859q-41 0 -41 33v184q0 15 12.5 24t28.5 9h859q40 0 40 -33v-184zM821 213q0 -17 -11.5 -28t-29.5 -11h-241
q-18 0 -29.5 11.5t-11.5 27.5v229q0 17 11.5 29t29.5 12h241q19 0 30 -11t11 -30v-229z" />
    <glyph glyph-name="lozenge" unicode="&#x25ca;" horiz-adv-x="1012" 
d="M549 1422l418 -713l-418 -709h-111l-391 709l391 713h111zM495 1325l-340 -616l340 -615l359 615z" />
    <glyph glyph-name="ydieresis" unicode="&#xff;" horiz-adv-x="1212" 
d="M1167 1137q0 -4 -0.5 -6t-1.5 -5l-344 -1206q-35 -122 -81.5 -191.5t-132.5 -106t-234 -36.5q-56 0 -134.5 11t-113.5 22q-22 8 -32.5 14.5t-10.5 22.5v166q0 16 11.5 27.5t29.5 11.5h4q34 -2 122 -9.5t134 -7.5q58 0 87.5 23t47.5 84l19 63h-31q-69 0 -112.5 35
t-78.5 156l-270 921q-2 7 -2 15q0 33 41 33h272q31 0 39 -39l185 -770q8 -39 24 -39h2h8h9l190 809q8 39 43 39h272q16 0 27.5 -10.5t11.5 -26.5zM975 1348q0 -18 -14 -29.5t-31 -11.5h-192q-16 0 -29.5 11.5t-13.5 29.5v190q0 18 12.5 29.5t30.5 11.5h192q19 0 32 -11.5
t13 -29.5v-190zM531 1348q0 -18 -13.5 -29.5t-29.5 -11.5h-193q-16 0 -30.5 12t-14.5 29v190q0 17 14 29t31 12h193q18 0 30.5 -11.5t12.5 -29.5v-190z" />
    <glyph glyph-name="Ydieresis" unicode="&#x178;" horiz-adv-x="1325" 
d="M1282 1491q0 -10 -2 -14l-309 -709q-28 -67 -60.5 -104t-72.5 -54v-569q0 -17 -13 -29t-28 -12h-269q-15 0 -28 12t-13 29v569q-41 19 -72.5 54t-62.5 104l-309 709q-2 4 -2 14q0 14 8.5 22.5t24.5 8.5h295q27 0 41 -35l221 -578q7 -18 13 -24t18 -6q11 0 17.5 6.5
t12.5 23.5l221 578q14 35 41 35h295q16 0 24.5 -8.5t8.5 -22.5zM1024 1675q0 -18 -14 -29.5t-31 -11.5h-192q-16 0 -29.5 11.5t-13.5 29.5v190q0 18 12.5 29.5t30.5 11.5h192q19 0 32 -11.5t13 -29.5v-190zM580 1675q0 -18 -13.5 -29.5t-29.5 -11.5h-193q-16 0 -30.5 12
t-14.5 29v190q0 17 14 29t31 12h193q18 0 30.5 -11.5t12.5 -29.5v-190z" />
    <glyph glyph-name="fraction" unicode="&#x2215;" horiz-adv-x="758" 
d="M950 1505q0 -13 -8 -24l-852 -1438q-15 -26 -23.5 -34.5t-23.5 -8.5h-211q-22 0 -22 23q0 8 6 20l852 1438q14 23 24.5 32t26.5 9h211q20 0 20 -17z" />
    <glyph glyph-name="Euro" unicode="&#x20ac;" 
d="M1184 63q0 -33 -45 -47q-104 -34 -285 -34q-156 0 -288 54t-222.5 177t-110.5 315h-55q-15 0 -28 13t-13 28v90q0 17 12 29t29 12h49v127h-49q-15 0 -28 13t-13 28v90q0 17 12 29t29 12h55q32 280 206 409.5t415 129.5q185 0 285 -35q24 -7 34.5 -15.5t10.5 -29.5v-198
q0 -41 -39 -41h-6q-56 4 -91 7.5t-85 6t-107 2.5q-102 0 -172 -53.5t-94 -182.5h436q35 0 35 -30q0 -6 -2 -11l-25 -90q-13 -41 -41 -41h-411v-127h374q12 0 20.5 -7.5t8.5 -16.5v-6l-31 -123q-3 -19 -28 -19h-336q22 -131 93 -186t173 -55q57 0 107 2.5t85 6t91 7.5h6
q39 0 39 -41v-199z" />
    <glyph glyph-name="guilsinglleft" unicode="&#x2039;" horiz-adv-x="846" 
d="M758 152q0 -23 -29 -23h-248q-40 0 -61 25l-328 378q-20 24 -20 54t20 53l328 379q21 24 61 24h248q29 0 29 -22q0 -5 -8 -19l-361 -415l361 -416q8 -12 8 -18z" />
    <glyph glyph-name="guilsinglright" unicode="&#x203a;" horiz-adv-x="846" 
d="M774 586q0 -30 -20 -54l-328 -378q-21 -25 -61 -25h-248q-29 0 -29 23q0 6 8 18l361 416l-361 415q-8 14 -8 19q0 22 29 22h248q40 0 61 -24l328 -379q20 -23 20 -53z" />
    <glyph glyph-name="uniF001" unicode="&#xf001;" horiz-adv-x="1438" 
d="M1315 1348q0 -18 -13.5 -29.5t-29.5 -11.5h-260q-17 0 -31 12t-14 29v190q0 17 13 29t32 12h260q18 0 30.5 -11.5t12.5 -29.5v-190zM1307 43q0 -16 -12.5 -29.5t-28.5 -13.5h-248q-17 0 -30 13t-13 30v1087q0 18 13 31t30 13h248q16 0 28.5 -13.5t12.5 -30.5v-1087z
M807 1372q0 -35 -43 -35h-100q-31 0 -45.5 -7t-18.5 -27t-4 -62v-67h168q15 0 28 -13t13 -28v-166q0 -17 -13 -29t-28 -12h-168v-885q0 -18 -12 -29.5t-29 -11.5h-252q-15 0 -28 12t-13 29v885l-164 26q-18 3 -30.5 14.5t-12.5 28.5v135q0 18 13 31t30 13h164v65
q0 207 81.5 278.5t262.5 71.5q64 0 162 -16q39 -6 39 -41v-160z" />
    <glyph glyph-name="uniF001" unicode="&#xfb01;" horiz-adv-x="1438" 
d="M1315 1348q0 -18 -13.5 -29.5t-29.5 -11.5h-260q-17 0 -31 12t-14 29v190q0 17 13 29t32 12h260q18 0 30.5 -11.5t12.5 -29.5v-190zM1307 43q0 -16 -12.5 -29.5t-28.5 -13.5h-248q-17 0 -30 13t-13 30v1087q0 18 13 31t30 13h248q16 0 28.5 -13.5t12.5 -30.5v-1087z
M807 1372q0 -35 -43 -35h-100q-31 0 -45.5 -7t-18.5 -27t-4 -62v-67h168q15 0 28 -13t13 -28v-166q0 -17 -13 -29t-28 -12h-168v-885q0 -18 -12 -29.5t-29 -11.5h-252q-15 0 -28 12t-13 29v885l-164 26q-18 3 -30.5 14.5t-12.5 28.5v135q0 18 13 31t30 13h164v65
q0 207 81.5 278.5t262.5 71.5q64 0 162 -16q39 -6 39 -41v-160z" />
    <glyph glyph-name="uniF002" unicode="&#xf002;" horiz-adv-x="1430" 
d="M1307 43q0 -17 -11 -30t-28 -13h-250q-17 0 -30 13t-13 30v1487q0 16 13.5 28.5t29.5 12.5h250q16 0 27.5 -12.5t11.5 -28.5v-1487zM807 1372q0 -35 -43 -35h-100q-31 0 -45.5 -7t-18.5 -27t-4 -62v-67h168q15 0 28 -13t13 -28v-166q0 -17 -13 -29t-28 -12h-168v-885
q0 -18 -12 -29.5t-29 -11.5h-252q-15 0 -28 12t-13 29v885l-164 26q-18 3 -30.5 14.5t-12.5 28.5v135q0 18 13 31t30 13h164v65q0 207 81.5 278.5t262.5 71.5q64 0 162 -16q39 -6 39 -41v-160z" />
    <glyph glyph-name="uniF002" unicode="&#xfb02;" horiz-adv-x="1430" 
d="M1307 43q0 -17 -11 -30t-28 -13h-250q-17 0 -30 13t-13 30v1487q0 16 13.5 28.5t29.5 12.5h250q16 0 27.5 -12.5t11.5 -28.5v-1487zM807 1372q0 -35 -43 -35h-100q-31 0 -45.5 -7t-18.5 -27t-4 -62v-67h168q15 0 28 -13t13 -28v-166q0 -17 -13 -29t-28 -12h-168v-885
q0 -18 -12 -29.5t-29 -11.5h-252q-15 0 -28 12t-13 29v885l-164 26q-18 3 -30.5 14.5t-12.5 28.5v135q0 18 13 31t30 13h164v65q0 207 81.5 278.5t262.5 71.5q64 0 162 -16q39 -6 39 -41v-160z" />
    <glyph glyph-name="daggerdbl" unicode="&#x2021;" horiz-adv-x="901" 
d="M840 498q0 -33 -39 -33h-189v-436q0 -41 -32 -41h-271q-15 0 -24 11.5t-9 29.5v436h-176q-39 0 -39 33v211q0 30 39 30h176v181h-176q-39 0 -39 32v213q0 31 39 31h176v336q0 17 9.5 28t25.5 11h269q14 0 23 -11.5t9 -27.5v-336h189q39 0 39 -31v-213q0 -32 -39 -32h-189
v-181h189q39 0 39 -30v-211z" />
    <glyph glyph-name="periodcentered" unicode="&#x2219;" horiz-adv-x="561" 
d="M442 653q0 -17 -12 -29t-29 -12h-239q-16 0 -29.5 12.5t-13.5 28.5v258q0 17 13 28t30 11h239q18 0 29.5 -10.5t11.5 -28.5v-258z" />
    <glyph glyph-name="quotesinglbase" unicode="&#x201a;" horiz-adv-x="518" 
d="M473 313q0 -6 -4 -14l-197 -459q-10 -23 -17 -32t-22 -9h-180q-13 0 -24 9t-11 22q1 3 1.5 5t0.5 5l132 459q9 39 41 39h249q31 0 31 -25z" />
    <glyph glyph-name="quotedblbase" unicode="&#x201e;" horiz-adv-x="969" 
d="M942 313q0 -6 -4 -14l-197 -459q-10 -23 -17 -32t-22 -9h-180q-13 0 -24 9t-11 22q1 3 1.5 5t0.5 5l132 459q9 39 41 39h249q31 0 31 -25zM473 313q0 -6 -4 -14l-197 -459q-10 -23 -17 -32t-22 -9h-180q-13 0 -24 9t-11 22q1 3 1.5 5t0.5 5l132 459q9 39 41 39h249
q31 0 31 -25z" />
    <glyph glyph-name="perthousand" unicode="&#x2030;" horiz-adv-x="2443" 
d="M2365 340q0 -177 -78.5 -264.5t-224.5 -87.5q-96 0 -164 38.5t-103.5 117t-35.5 196.5v154q0 118 35.5 196t103.5 117t164 39q146 0 224.5 -87.5t78.5 -264.5v-154zM1640 340q0 -176 -77 -264t-224 -88q-96 0 -164 38.5t-103.5 117t-35.5 196.5v154q0 118 35.5 196
t103.5 117t164 39q147 0 224 -88t77 -264v-154zM1430 1505q0 -12 -9 -24l-852 -1438q-15 -26 -23.5 -34.5t-23.5 -8.5h-211q-22 0 -22 23q0 8 6 20l852 1438q25 41 51 41h211q21 0 21 -17zM684 1028q0 -174 -78 -263t-225 -89q-146 0 -224.5 89t-78.5 263v154q0 174 78 262
t225 88q99 0 165.5 -38.5t102 -115.5t35.5 -196v-154zM2159 340v154q0 99 -24.5 136.5t-72.5 37.5t-73 -38t-25 -136v-154q0 -98 25 -136t73 -38t72.5 37.5t24.5 136.5zM1436 340v154q0 99 -24.5 136.5t-72.5 37.5t-73 -38t-25 -136v-154q0 -98 25 -136t73 -38t72.5 37.5
t24.5 136.5zM477 1028v154q0 99 -24 136.5t-72 37.5t-73 -38t-25 -136v-154q0 -97 25 -136.5t73 -39.5q49 0 72.5 38.5t23.5 137.5z" />
    <glyph glyph-name="Acircumflex" unicode="&#xc2;" horiz-adv-x="1370" 
d="M1331 33q0 -33 -35 -33h-286q-34 0 -41 37l-74 336h-420l-74 -336q-7 -37 -41 -37h-286q-35 0 -35 33q1 2 1.5 4t0.5 6l305 1270q33 134 122 180.5t218 46.5q84 0 148.5 -17.5t115.5 -67.5t74 -142l305 -1270q1 -3 1.5 -5t0.5 -5zM838 653l-125 566q-6 30 -27 30t-29 -30
l-125 -566h306zM1094 1643q0 -15 -18 -15h-211q-17 0 -25.5 4.5t-23.5 20.5l-129 143l-131 -143q-22 -25 -50 -25h-211q-18 0 -18 15q0 9 8 20l183 240q15 19 24.5 24.5t30.5 5.5h327q22 0 32 -5.5t24 -24.5l180 -240q8 -11 8 -20z" />
    <glyph glyph-name="Ecircumflex" unicode="&#xca;" horiz-adv-x="1188" 
d="M1073 51q0 -37 -41 -43q-73 -10 -164 -18t-233 -8q-110 0 -197 18.5t-155 65.5t-107 135t-39 221v680q0 176 66.5 273t175.5 131t258 34q142 0 239.5 -8.5t155.5 -18.5q41 -6 41 -40v-191q0 -17 -12 -29t-29 -12h-416q-73 0 -102 -30t-29 -109v-187h531q17 0 29 -12
t12 -29v-194q0 -17 -13 -29t-28 -12h-531v-217q0 -78 29 -108.5t102 -30.5h416q17 0 29 -12t12 -29v-191zM1042 1643q0 -15 -18 -15h-211q-17 0 -25.5 4.5t-23.5 20.5l-129 143l-131 -143q-22 -25 -50 -25h-211q-18 0 -18 15q0 9 8 20l183 240q15 19 24.5 24.5t30.5 5.5h327
q22 0 32 -5.5t24 -24.5l180 -240q8 -11 8 -20z" />
    <glyph glyph-name="Aacute" unicode="&#xc1;" horiz-adv-x="1370" 
d="M1331 33q0 -33 -35 -33h-286q-34 0 -41 37l-74 336h-420l-74 -336q-7 -37 -41 -37h-286q-35 0 -35 33q1 2 1.5 4t0.5 6l305 1270q33 134 122 180.5t218 46.5q84 0 148.5 -17.5t115.5 -67.5t74 -142l305 -1270q1 -3 1.5 -5t0.5 -5zM838 653l-125 566q-6 30 -27 30t-29 -30
l-125 -566h306zM1018 1917q0 -8 -8 -16l-250 -250q-24 -25 -49 -25h-219q-19 0 -19 15q0 9 8 20l191 240q15 19 24.5 24.5t30.5 5.5h268q23 0 23 -14z" />
    <glyph glyph-name="Edieresis" unicode="&#xcb;" horiz-adv-x="1188" 
d="M1073 51q0 -37 -41 -43q-73 -10 -164 -18t-233 -8q-110 0 -197 18.5t-155 65.5t-107 135t-39 221v680q0 176 66.5 273t175.5 131t258 34q142 0 239.5 -8.5t155.5 -18.5q41 -6 41 -40v-191q0 -17 -12 -29t-29 -12h-416q-73 0 -102 -30t-29 -109v-187h531q17 0 29 -12
t12 -29v-194q0 -17 -13 -29t-28 -12h-531v-217q0 -78 29 -108.5t102 -30.5h416q17 0 29 -12t12 -29v-191zM963 1681q0 -18 -14 -29.5t-31 -11.5h-192q-16 0 -29.5 11.5t-13.5 29.5v190q0 18 12.5 29.5t30.5 11.5h192q19 0 32 -11.5t13 -29.5v-190zM519 1681
q0 -18 -13.5 -29.5t-29.5 -11.5h-193q-16 0 -30.5 12t-14.5 29v190q0 17 14 29t31 12h193q18 0 30.5 -11.5t12.5 -29.5v-190z" />
    <glyph glyph-name="Egrave" unicode="&#xc8;" horiz-adv-x="1188" 
d="M1073 51q0 -37 -41 -43q-73 -10 -164 -18t-233 -8q-110 0 -197 18.5t-155 65.5t-107 135t-39 221v680q0 176 66.5 273t175.5 131t258 34q142 0 239.5 -8.5t155.5 -18.5q41 -6 41 -40v-191q0 -17 -12 -29t-29 -12h-416q-73 0 -102 -30t-29 -109v-187h531q17 0 29 -12
t12 -29v-194q0 -17 -13 -29t-28 -12h-531v-217q0 -78 29 -108.5t102 -30.5h416q17 0 29 -12t12 -29v-191zM808 1643q0 -15 -18 -15h-220q-12 0 -19.5 2.5t-15 9t-14.5 13.5l-250 250q-8 8 -8 16q0 14 23 14h270q21 0 30 -5.5t25 -24.5l189 -240q8 -11 8 -20z" />
    <glyph glyph-name="Iacute" unicode="&#xcd;" horiz-adv-x="637" 
d="M494 41q0 -18 -11.5 -29.5t-27.5 -11.5h-275q-15 0 -26 12t-11 29v1442q0 16 10.5 27.5t26.5 11.5h275q17 0 28 -11t11 -28v-1442zM669 1919q0 -8 -8 -16l-250 -250q-24 -25 -49 -25h-219q-19 0 -19 15q0 9 8 20l191 240q15 19 24.5 24.5t30.5 5.5h268q23 0 23 -14z" />
    <glyph glyph-name="Icircumflex" unicode="&#xce;" horiz-adv-x="637" 
d="M494 41q0 -18 -11.5 -29.5t-27.5 -11.5h-275q-15 0 -26 12t-11 29v1442q0 16 10.5 27.5t26.5 11.5h275q17 0 28 -11t11 -28v-1442zM728 1641q0 -15 -18 -15h-211q-17 0 -25.5 4.5t-23.5 20.5l-129 143l-131 -143q-22 -25 -50 -25h-211q-18 0 -18 15q0 9 8 20l183 240
q15 19 24.5 24.5t30.5 5.5h327q22 0 32 -5.5t24 -24.5l180 -240q8 -11 8 -20z" />
    <glyph glyph-name="Idieresis" unicode="&#xcf;" horiz-adv-x="637" 
d="M494 41q0 -18 -11.5 -29.5t-27.5 -11.5h-275q-15 0 -26 12t-11 29v1442q0 16 10.5 27.5t26.5 11.5h275q17 0 28 -11t11 -28v-1442zM680 1681q0 -18 -14 -29.5t-31 -11.5h-192q-16 0 -29.5 11.5t-13.5 29.5v190q0 18 12.5 29.5t30.5 11.5h192q19 0 32 -11.5t13 -29.5v-190
zM236 1681q0 -18 -13.5 -29.5t-29.5 -11.5h-193q-16 0 -30.5 12t-14.5 29v190q0 17 14 29t31 12h193q18 0 30.5 -11.5t12.5 -29.5v-190z" />
    <glyph glyph-name="Igrave" unicode="&#xcc;" horiz-adv-x="637" 
d="M494 41q0 -18 -11.5 -29.5t-27.5 -11.5h-275q-15 0 -26 12t-11 29v1442q0 16 10.5 27.5t26.5 11.5h275q17 0 28 -11t11 -28v-1442zM521 1643q0 -15 -18 -15h-220q-12 0 -19.5 2.5t-15 9t-14.5 13.5l-250 250q-8 8 -8 16q0 14 23 14h270q21 0 30 -5.5t25 -24.5l189 -240
q8 -11 8 -20z" />
    <glyph glyph-name="Oacute" unicode="&#xd3;" horiz-adv-x="1430" 
d="M1321 639q0 -337 -166.5 -497t-439.5 -160q-271 0 -438.5 160t-167.5 497v244q0 337 166.5 497t439.5 160q133 0 243 -37t191 -115t126.5 -205t45.5 -300v-244zM969 639v244q0 183 -61.5 266.5t-192.5 83.5q-85 0 -141.5 -36.5t-83.5 -114.5t-27 -199v-244
q0 -122 27 -199t82 -114t143 -37q131 0 192.5 83.5t61.5 266.5zM1054 1919q0 -8 -8 -16l-250 -250q-24 -25 -49 -25h-219q-19 0 -19 15q0 9 8 20l191 240q15 19 24.5 24.5t30.5 5.5h268q23 0 23 -14z" />
    <glyph glyph-name="Ocircumflex" unicode="&#xd4;" horiz-adv-x="1430" 
d="M1321 639q0 -337 -166.5 -497t-439.5 -160q-271 0 -438.5 160t-167.5 497v244q0 337 166.5 497t439.5 160q133 0 243 -37t191 -115t126.5 -205t45.5 -300v-244zM969 639v244q0 183 -61.5 266.5t-192.5 83.5q-85 0 -141.5 -36.5t-83.5 -114.5t-27 -199v-244
q0 -122 27 -199t82 -114t143 -37q131 0 192.5 83.5t61.5 266.5zM1113 1643q0 -15 -18 -15h-211q-17 0 -25.5 4.5t-23.5 20.5l-129 143l-131 -143q-22 -25 -50 -25h-211q-18 0 -18 15q0 9 8 20l183 240q15 19 24.5 24.5t30.5 5.5h327q22 0 32 -5.5t24 -24.5l180 -240
q8 -11 8 -20z" />
    <glyph glyph-name="Ograve" unicode="&#xd2;" horiz-adv-x="1430" 
d="M1321 639q0 -337 -166.5 -497t-439.5 -160q-271 0 -438.5 160t-167.5 497v244q0 337 166.5 497t439.5 160q133 0 243 -37t191 -115t126.5 -205t45.5 -300v-244zM969 639v244q0 183 -61.5 266.5t-192.5 83.5q-85 0 -141.5 -36.5t-83.5 -114.5t-27 -199v-244
q0 -122 27 -199t82 -114t143 -37q131 0 192.5 83.5t61.5 266.5zM897 1641q0 -15 -18 -15h-220q-12 0 -19.5 2.5t-15 9t-14.5 13.5l-250 250q-8 8 -8 16q0 14 23 14h270q21 0 30 -5.5t25 -24.5l189 -240q8 -11 8 -20z" />
    <glyph glyph-name="Uacute" unicode="&#xda;" horiz-adv-x="1456" 
d="M1319 571q0 -171 -44.5 -285t-125 -181t-188 -95t-234.5 -28q-128 0 -233.5 27.5t-186.5 95.5t-125.5 183.5t-44.5 282.5v912q0 16 12.5 27.5t28.5 11.5h268q18 0 29.5 -10.5t11.5 -28.5v-912q0 -107 22 -171.5t75 -95t143 -30.5t143.5 30.5t76 94.5t22.5 172v912
q0 16 11.5 27.5t29.5 11.5h266q17 0 30 -11t13 -28v-912zM1095 1917q0 -8 -8 -16l-250 -250q-24 -25 -49 -25h-219q-19 0 -19 15q0 9 8 20l191 240q15 19 24.5 24.5t30.5 5.5h268q23 0 23 -14z" />
    <glyph glyph-name="Ucircumflex" unicode="&#xdb;" horiz-adv-x="1456" 
d="M1319 571q0 -171 -44.5 -285t-125 -181t-188 -95t-234.5 -28q-128 0 -233.5 27.5t-186.5 95.5t-125.5 183.5t-44.5 282.5v912q0 16 12.5 27.5t28.5 11.5h268q18 0 29.5 -10.5t11.5 -28.5v-912q0 -107 22 -171.5t75 -95t143 -30.5t143.5 30.5t76 94.5t22.5 172v912
q0 16 11.5 27.5t29.5 11.5h266q17 0 30 -11t13 -28v-912zM1135 1643q0 -15 -18 -15h-211q-17 0 -25.5 4.5t-23.5 20.5l-129 143l-131 -143q-22 -25 -50 -25h-211q-18 0 -18 15q0 9 8 20l183 240q15 19 24.5 24.5t30.5 5.5h327q22 0 32 -5.5t24 -24.5l180 -240q8 -11 8 -20z
" />
    <glyph glyph-name="Ugrave" unicode="&#xd9;" horiz-adv-x="1456" 
d="M1319 571q0 -171 -44.5 -285t-125 -181t-188 -95t-234.5 -28q-128 0 -233.5 27.5t-186.5 95.5t-125.5 183.5t-44.5 282.5v912q0 16 12.5 27.5t28.5 11.5h268q18 0 29.5 -10.5t11.5 -28.5v-912q0 -107 22 -171.5t75 -95t143 -30.5t143.5 30.5t76 94.5t22.5 172v912
q0 16 11.5 27.5t29.5 11.5h266q17 0 30 -11t13 -28v-912zM943 1641q0 -15 -18 -15h-220q-12 0 -19.5 2.5t-15 9t-14.5 13.5l-250 250q-8 8 -8 16q0 14 23 14h270q21 0 30 -5.5t25 -24.5l189 -240q8 -11 8 -20z" />
    <glyph glyph-name="dotlessi" unicode="&#x131;" horiz-adv-x="594" 
d="M463 43q0 -17 -13 -30t-30 -13h-246q-17 0 -30 13t-13 30v1087q0 18 13 31t30 13h246q17 0 30 -13t13 -31v-1087z" />
    <glyph glyph-name="circumflex" unicode="&#x2c6;" horiz-adv-x="907" 
d="M862 1305q0 -15 -18 -15h-211q-17 0 -25.5 4.5t-23.5 20.5l-129 143l-131 -143q-22 -25 -50 -25h-211q-18 0 -18 15q0 9 8 20l183 240q15 19 24.5 24.5t30.5 5.5h327q22 0 32 -5.5t24 -24.5l180 -240q8 -11 8 -20z" />
    <glyph glyph-name="tilde" unicode="&#x2dc;" horiz-adv-x="1018" 
d="M909 1528q0 -129 -64.5 -187.5t-185.5 -58.5q-33 0 -71.5 11.5t-73.5 33.5l-86 59q-52 37 -84 37q-47 0 -47 -55v-39q0 -35 -31 -35h-145q-31 0 -31 35v39q0 126 65.5 185t186.5 59q77 0 143 -43l88 -58q57 -36 82 -36q24 0 35.5 12.5t11.5 42.5v39q0 33 33 33h144
q30 0 30 -33v-41z" />
    <glyph glyph-name="macron" unicode="&#x2c9;" horiz-adv-x="907" 
d="M827 1376q0 -17 -11.5 -28t-29.5 -11h-663q-18 0 -29.5 11.5t-11.5 27.5v148q0 16 11.5 27.5t29.5 11.5h663q18 0 29.5 -10.5t11.5 -28.5v-148z" />
    <glyph glyph-name="breve" unicode="&#x2d8;" horiz-adv-x="907" 
d="M836 1581q0 -2 -0.5 -3.5l-1.5 -4.5q-20 -84 -67.5 -151.5t-127 -106.5t-184.5 -39q-158 0 -252.5 82t-126.5 215q0 4 -0.5 5.5t-1.5 2.5q0 14 20 14h178q21 0 27 -24q31 -117 156 -117t155 117q3 13 8 18.5t19 5.5h178q21 0 21 -14z" />
    <glyph glyph-name="dotaccent" unicode="&#x2d9;" horiz-adv-x="907" 
d="M616 1337q0 -17 -12 -29t-29 -12h-241q-17 0 -29 13t-12 28v209q0 16 11.5 27.5t29.5 11.5h241q18 0 29.5 -10.5t11.5 -28.5v-209z" />
    <glyph glyph-name="ring" unicode="&#x2da;" horiz-adv-x="907" 
d="M694 1456q0 -101 -70 -170t-169 -69q-98 0 -169 70t-71 169q0 100 71 170t169 70q63 0 119 -32t88 -88.5t32 -119.5zM545 1456q0 38 -26 64t-64 26t-64 -26t-26 -64t26 -64t64 -26t64 26t26 64z" />
    <glyph glyph-name="cedilla" unicode="&#xb8;" horiz-adv-x="872" 
d="M664 -86q0 -8 -9 -16l-252 -250q-18 -18 -24 -21.5t-25 -3.5h-219q-18 0 -18 15q0 9 8 20l190 240q18 20 26.5 25t29.5 5h270q23 0 23 -14z" />
    <glyph glyph-name="hungarumlaut" unicode="&#x2dd;" horiz-adv-x="907" 
d="M997 1581q0 -8 -8 -16l-250 -250q-24 -25 -51 -25h-219q-18 0 -18 15q0 9 8 20l190 240q18 20 26.5 25t29.5 5h270q22 0 22 -14zM520 1581q0 -8 -8 -16l-250 -250q-24 -25 -51 -25h-219q-19 0 -19 15q0 10 9 20l190 240q25 30 55 30h271q22 0 22 -14z" />
    <glyph glyph-name="ogonek" unicode="&#x2db;" horiz-adv-x="872" 
d="M705 -354q0 -22 -21 -27q-18 -4 -79 -11t-99 -7q-160 0 -243 68.5t-83 205.5q0 54 35 182q3 12 7.5 15.5t19.5 3.5h164q18 0 18 -15q0 -3 -0.5 -5t-1.5 -5q-21 -113 -21 -155q0 -59 26 -87t93 -28q100 0 158 10q3 1 5.5 1.5t6.5 0.5q15 0 15 -18v-129z" />
    <glyph glyph-name="caron" unicode="&#x2c7;" horiz-adv-x="907" 
d="M862 1581q0 -9 -8 -20l-182 -240q-15 -18 -25 -24.5t-31 -6.5h-327q-20 0 -29.5 5t-26.5 26l-180 240q-8 11 -8 20q0 14 18 14h211q20 0 28.5 -5t21.5 -19l129 -144l131 144q12 14 20.5 19t28.5 5h211q18 0 18 -14z" />
    <glyph glyph-name="Lslash" unicode="&#x141;" horiz-adv-x="1063" 
d="M1018 51q0 -35 -41 -43q-126 -26 -334 -26q-110 0 -197.5 18.5t-156 65t-107.5 135t-39 221.5v22l-77 -77q-9 -9 -15 -9q-10 0 -10 13v284v7q0 13 3 19.5t15 18.5l84 84v697q0 15 13 28t28 13h267q15 0 28 -13t13 -28v-355l143 140q6 6 16 6q17 0 17 -17v-276
q0 -25 -15 -37l-161 -158v-362q0 -78 29 -108.5t102 -30.5h354q15 0 28 -13t13 -28v-191z" />
    <glyph glyph-name="lslash" unicode="&#x142;" horiz-adv-x="578" 
d="M602 979q0 -25 -14 -37l-131 -129v-770q0 -16 -12.5 -29.5t-28.5 -13.5h-250q-17 0 -30 13t-13 30v442l-121 -118q-8 -9 -14 -9q-11 0 -11 13v284v7q0 20 19 38l127 127v703q0 16 13.5 28.5t29.5 12.5h250q15 0 28 -13t13 -28v-375l112 111q6 6 15 6q18 0 18 -17v-276z
" />
    <glyph glyph-name="Scaron" unicode="&#x160;" horiz-adv-x="1204" 
d="M1118 430q0 -86 -30.5 -164.5t-96.5 -143t-175 -102.5t-257 -38q-214 0 -387 45q-41 12 -41 41v200q0 39 37 39h6q75 -7 205 -15.5t184 -8.5q105 0 143.5 33t38.5 110q0 45 -28 77t-107 79l-282 168q-91 54 -145.5 116t-75.5 130t-21 145q0 184 122 291.5t402 107.5
q111 0 243 -14t191 -31q31 -7 31 -37v-207q0 -34 -35 -34h-4q-59 4 -93.5 7t-94.5 6.5t-125.5 6t-120.5 2.5q-85 0 -122.5 -26.5t-37.5 -82.5q0 -42 27 -69.5t111 -73.5l262 -141q101 -54 163.5 -119t87.5 -137.5t25 -159.5zM989 1919q0 -9 -8 -20l-182 -240
q-15 -18 -25 -24.5t-31 -6.5h-327q-20 0 -29.5 5t-26.5 26l-180 240q-8 11 -8 20q0 14 18 14h211q20 0 28.5 -5t21.5 -19l129 -144l131 144q12 14 20.5 19t28.5 5h211q18 0 18 -14z" />
    <glyph glyph-name="scaron" unicode="&#x161;" horiz-adv-x="1030" 
d="M944 326q0 -152 -111.5 -248t-326.5 -96q-90 0 -189 11t-184 34q-39 10 -39 47v166q0 15 11 27t28 12h8q110 -14 209 -21.5t139 -7.5q70 0 95.5 18.5t25.5 61.5q0 23 -17.5 43.5t-57.5 42.5l-267 153q-85 49 -133.5 127t-48.5 176q0 104 46.5 175t139.5 107t234 36
q80 0 140 -5.5t112 -16t112 -25.5q39 -9 39 -47v-166q0 -39 -35 -39h-6q-69 10 -169.5 18.5t-170.5 8.5q-60 0 -84 -12.5t-24 -47.5q0 -20 13 -34t50 -38l254 -145q119 -69 163 -145t44 -170zM924 1581q0 -9 -8 -20l-182 -240q-15 -18 -25 -24.5t-31 -6.5h-327
q-20 0 -29.5 5t-26.5 26l-180 240q-8 11 -8 20q0 14 18 14h211q20 0 28.5 -5t21.5 -19l129 -144l131 144q12 14 20.5 19t28.5 5h211q18 0 18 -14z" />
    <glyph glyph-name="Zcaron" unicode="&#x17d;" horiz-adv-x="1260" 
d="M1157 41q0 -18 -12 -29.5t-29 -11.5h-930q-84 0 -84 63v164q0 44 31 90l572 865q8 11 8 20q0 17 -23 17h-510q-16 0 -28.5 11.5t-12.5 26.5v226q0 16 12.5 27.5t28.5 11.5h883q34 0 58 -15.5t24 -42.5q1 -5 1.5 -13.5t0.5 -35.5q0 -62 -0.5 -89t-1.5 -48q0 -28 -17 -53
l-577 -885q-10 -13 -10 -23q0 -14 22 -14h553q19 0 30 -9.5t11 -27.5v-225zM1055 1917q0 -9 -8 -20l-182 -240q-15 -18 -25 -24.5t-31 -6.5h-327q-20 0 -29.5 5t-26.5 26l-180 240q-8 11 -8 20q0 14 18 14h211q20 0 28.5 -5t21.5 -19l129 -144l131 144q12 14 20.5 19t28.5 5
h211q18 0 18 -14z" />
    <glyph glyph-name="zcaron" unicode="&#x17e;" horiz-adv-x="1055" 
d="M967 41q0 -17 -13 -29t-28 -12h-768q-27 0 -48.5 20.5t-21.5 47.5v131q0 38 29 77l444 607q6 9 6 14q0 10 -14 10h-412q-16 0 -25.5 9.5t-9.5 23.5v193q0 15 13 28t28 13h748q29 0 48.5 -21.5t19.5 -48.5v-152q0 -38 -23 -71l-424 -580q-6 -9 -6 -14q0 -8 14 -8h406
q16 0 26.5 -9t10.5 -24v-205zM958 1581q0 -9 -8 -20l-182 -240q-15 -18 -25 -24.5t-31 -6.5h-327q-20 0 -29.5 5t-26.5 26l-180 240q-8 11 -8 20q0 14 18 14h211q20 0 28.5 -5t21.5 -19l129 -144l131 144q12 14 20.5 19t28.5 5h211q18 0 18 -14z" />
    <glyph glyph-name="brokenbar" unicode="&#xa6;" horiz-adv-x="594" 
d="M465 743q0 -16 -12.5 -29.5t-28.5 -13.5h-252q-17 0 -30 13t-13 30v707q0 18 12.5 29.5t30.5 11.5h252q17 0 29 -12t12 -29v-707zM465 -389q0 -16 -12.5 -29.5t-28.5 -13.5h-252q-17 0 -30 13t-13 30v706q0 18 12.5 29.5t30.5 11.5h252q17 0 29 -12t12 -29v-706z" />
    <glyph glyph-name="Eth" unicode="&#xd0;" horiz-adv-x="1397" 
d="M1300 657q0 -236 -80.5 -385.5t-226.5 -219.5t-346 -70q-128 0 -243 8.5t-201 23.5q-60 9 -60 72v553h-112q-17 0 -28 11t-11 28v199q0 18 11 28t28 10h112v521q0 62 60 71q184 33 444 33q200 0 346 -69.5t226.5 -220t80.5 -386.5v-207zM944 657v207q0 210 -72.5 291.5
t-224.5 81.5q-91 0 -151 -4v-318h124q17 0 28 -10t11 -28v-199q0 -17 -11 -28t-28 -11h-124v-352q30 -2 151 -2q152 0 224.5 82t72.5 290z" />
    <glyph glyph-name="eth" unicode="&#xf0;" horiz-adv-x="1206" 
d="M1116 530q0 -136 -33 -239t-99 -172t-161.5 -103t-216.5 -34q-169 0 -285 63.5t-173.5 186.5t-57.5 298v64q0 179 59.5 302.5t175 184t279.5 60.5q68 0 103 -19q-68 87 -230 166l-145 -110q-14 -13 -27 -13t-22 13l-56 61q-6 6 -6 16q0 20 21 33l84 64q-91 28 -101 30
q-32 8 -32 29q0 8 2 12l51 140q7 22 28 22q11 0 17 -2q110 -26 237 -76l162 123q11 8 27 8q17 0 24 -10l56 -59q8 -8 8 -17q0 -12 -21 -28l-108 -84q113 -61 196 -140.5t136 -179t80.5 -230t27.5 -296.5v-64zM786 530v64q0 142 -43.5 206t-138.5 64t-139.5 -63.5
t-44.5 -206.5v-64q0 -140 45 -205t141 -65t138 64t42 206z" />
    <glyph glyph-name="Yacute" unicode="&#xdd;" horiz-adv-x="1325" 
d="M1282 1491q0 -10 -2 -14l-309 -709q-28 -67 -60.5 -104t-72.5 -54v-569q0 -17 -13 -29t-28 -12h-269q-15 0 -28 12t-13 29v569q-41 19 -72.5 54t-62.5 104l-309 709q-2 4 -2 14q0 14 8.5 22.5t24.5 8.5h295q27 0 41 -35l221 -578q7 -18 13 -24t18 -6q11 0 17.5 6.5
t12.5 23.5l221 578q14 35 41 35h295q16 0 24.5 -8.5t8.5 -22.5zM1044 1917q0 -8 -8 -16l-250 -250q-24 -25 -49 -25h-219q-19 0 -19 15q0 9 8 20l191 240q15 19 24.5 24.5t30.5 5.5h268q23 0 23 -14z" />
    <glyph glyph-name="yacute" unicode="&#xfd;" horiz-adv-x="1212" 
d="M1167 1137q0 -4 -0.5 -6t-1.5 -5l-344 -1206q-35 -122 -81.5 -191.5t-132.5 -106t-234 -36.5q-56 0 -134.5 11t-113.5 22q-22 8 -32.5 14.5t-10.5 22.5v166q0 16 11.5 27.5t29.5 11.5h4q34 -2 122 -9.5t134 -7.5q58 0 87.5 23t47.5 84l19 63h-31q-69 0 -112.5 35
t-78.5 156l-270 921q-2 7 -2 15q0 33 41 33h272q31 0 39 -39l185 -770q8 -39 24 -39h2h8h9l190 809q8 39 43 39h272q16 0 27.5 -10.5t11.5 -26.5zM1002 1581q0 -8 -8 -16l-250 -250q-24 -25 -49 -25h-219q-19 0 -19 15q0 9 8 20l191 240q15 19 24.5 24.5t30.5 5.5h268
q23 0 23 -14z" />
    <glyph glyph-name="Thorn" unicode="&#xde;" horiz-adv-x="1333" 
d="M1266 848q0 -185 -86.5 -297t-224 -158.5t-306.5 -46.5q-44 0 -160 4v-309q0 -18 -10.5 -29.5t-27.5 -11.5h-269q-16 0 -27.5 11.5t-11.5 29.5v1442q0 17 11 28t28 11h269q18 0 28 -11t10 -28v-121q23 2 152 2q272 0 448.5 -113.5t176.5 -380.5v-22zM915 848v22
q0 107 -65.5 153t-200.5 46q-139 0 -160 -2v-424q21 -2 160 -2q136 0 201 49t65 158z" />
    <glyph glyph-name="thorn" unicode="&#xfe;" horiz-adv-x="1223" 
d="M1137 510q0 -163 -57 -282t-172 -182.5t-283 -63.5q-22 0 -78.5 6t-91.5 14v-360q0 -18 -11.5 -29.5t-27.5 -11.5h-250q-16 0 -29.5 11.5t-13.5 29.5v1888q0 16 11.5 28.5t27.5 12.5h254q16 0 27.5 -12.5t11.5 -28.5v-350q85 10 170 10q119 0 214 -34.5t161.5 -102
t101.5 -166.5t35 -225v-152zM805 510v152q0 253 -180 253q-68 0 -170 -12v-637q94 -12 170 -12q180 0 180 256z" />
    <glyph glyph-name="minus" unicode="&#x2212;" 
d="M1143 709q0 -33 -41 -33h-883q-41 0 -41 33v184q0 15 12.5 24t28.5 9h883q16 0 28.5 -9t12.5 -24v-184z" />
    <glyph glyph-name="multiply" unicode="&#xd7;" 
d="M1100 522q0 -10 -10 -20l-129 -129q-13 -11 -21 -11q-14 0 -33 17l-245 246l-246 -246q-17 -17 -31 -17q-9 0 -20 11l-132 131q-10 10 -10 20q0 16 17 31l245 246l-245 246q-17 15 -17 30q0 11 10 21l132 131q10 10 20 10q15 0 31 -16l246 -246l245 246q18 16 33 16
q9 0 21 -10l129 -129q10 -10 10 -21q0 -17 -17 -32l-245 -246l245 -246q17 -15 17 -33z" />
    <glyph glyph-name="onesuperior" unicode="&#xb9;" horiz-adv-x="664" 
d="M449 707q0 -23 -21 -23h-174q-21 0 -21 23v606l-131 -53q-10 -5 -14 -5q-10 0 -10 13v149q0 18 16 23l174 73q20 9 25 9h133q10 0 16.5 -6.5t6.5 -14.5v-794z" />
    <glyph glyph-name="twosuperior" unicode="&#xb2;" horiz-adv-x="723" 
d="M645 1313q0 -126 -125 -209l-96 -66q-92 -64 -118.5 -94t-26.5 -67v-9h327q13 0 21 -6.5t8 -19.5v-131q0 -27 -29 -27h-500q-12 0 -20 8t-8 21v102q0 114 49 193.5t145 144.5l113 76q31 20 40 36t9 44q0 32 -23 42.5t-96 10.5q-101 0 -196 -12h-4q-27 0 -27 26v99
q0 18 29 26q38 11 107.5 24t123.5 13q155 0 226 -53.5t71 -171.5z" />
    <glyph glyph-name="threesuperior" unicode="&#xb3;" horiz-adv-x="721" 
d="M643 1305q0 -117 -98 -183q96 -58 96 -172v-12q0 -120 -81 -187t-226 -67q-66 0 -131.5 11t-104.5 28q-20 8 -20 25v98q0 26 26 26h2q115 -10 173 -10q87 0 121 14.5t34 61.5v12q0 49 -17.5 68.5t-66.5 19.5h-196q-13 0 -21 9t-8 20v107q0 12 8 20t21 8h186q94 0 94 70
v16q0 46 -28.5 60t-104.5 14h-25q-28 0 -163 -12h-2q-27 0 -27 26v101q0 18 27 26q34 15 97.5 26t125.5 11q148 0 228.5 -51.5t80.5 -169.5v-14z" />
    <glyph glyph-name="onehalf" unicode="&#xbd;" horiz-adv-x="1669" 
d="M1591 621q0 -126 -125 -209l-96 -66q-97 -66 -121 -91.5t-24 -61.5v-9h327q13 0 21 -6.5t8 -19.5v-131q0 -27 -29 -27h-499q-13 0 -21 8t-8 21v102q0 113 48 187.5t147 142.5l112 76q31 20 40 35.5t9 43.5q0 32 -23.5 43t-94.5 11q-106 0 -197 -13h-4q-11 0 -19 8t-8 19
v98q0 19 29 27q38 11 107.5 24t123.5 13q155 0 226 -53.5t71 -171.5zM1327 1503q0 -10 -6 -22l-856 -1452q-13 -21 -21 -27t-22 -6h-213q-23 0 -23 22q0 10 7 21l858 1450q11 20 19 26.5t26 6.5h211q20 0 20 -19zM449 707q0 -23 -21 -23h-174q-21 0 -21 23v606l-131 -53
q-10 -5 -14 -5q-10 0 -10 13v149q0 18 16 23l174 73q20 9 25 9h133q10 0 16.5 -6.5t6.5 -14.5v-794z" />
    <glyph glyph-name="onequarter" unicode="&#xbc;" horiz-adv-x="1618" 
d="M1540 209q0 -12 -9.5 -20.5t-21.5 -8.5h-59v-149q0 -12 -8.5 -21.5t-20.5 -9.5h-155q-27 0 -27 31v149h-297q-29 0 -29 23v127q0 26 13 41l338 452q11 15 28 15h117q18 0 29.5 -11.5t11.5 -29.5v-449h59q14 0 22.5 -6.5t8.5 -19.5v-113zM1327 1503q0 -10 -6 -22
l-856 -1452q-13 -21 -21 -27t-22 -6h-213q-23 0 -23 22q0 10 7 21l858 1450q11 20 19 26.5t26 6.5h211q20 0 20 -19zM1247 348v219q0 15 -4 15q-6 0 -12 -11l-150 -202q-8 -12 -8 -17q0 -4 14 -4h160zM449 707q0 -23 -21 -23h-174q-21 0 -21 23v606l-131 -53q-10 -5 -14 -5
q-10 0 -10 13v149q0 18 16 23l174 73q20 9 25 9h133q10 0 16.5 -6.5t6.5 -14.5v-794z" />
    <glyph glyph-name="threequarters" unicode="&#xbe;" horiz-adv-x="1761" 
d="M1683 209q0 -12 -8.5 -20.5t-21.5 -8.5h-60v-149q0 -12 -8.5 -21.5t-19.5 -9.5h-156q-27 0 -27 31v149h-297q-28 0 -28 23v127q0 25 12 41l338 452q11 15 29 15h116q18 0 29.5 -11.5t11.5 -29.5v-449h60q14 0 22 -6.5t8 -19.5v-113zM1470 1503q0 -10 -6 -22l-854 -1448
q-14 -23 -21.5 -28t-21.5 -5h-213q-22 0 -22 23q0 8 6 20l856 1446q11 20 19.5 26.5t25.5 6.5h211q20 0 20 -19zM643 1305q0 -117 -98 -183q96 -58 96 -172v-12q0 -120 -81 -187t-226 -67q-66 0 -131.5 11t-104.5 28q-20 8 -20 25v98q0 26 26 26h2q115 -10 173 -10
q87 0 121 14.5t34 61.5v12q0 49 -17.5 68.5t-66.5 19.5h-196q-13 0 -21 9t-8 20v107q0 12 8 20t21 8h186q94 0 94 70v16q0 46 -28.5 60t-104.5 14h-25q-28 0 -163 -12h-2q-27 0 -27 26v101q0 18 27 26q34 15 97.5 26t125.5 11q148 0 228.5 -51.5t80.5 -169.5v-14zM1391 348
v219q0 15 -5 15q-6 0 -12 -11l-149 -202q-8 -12 -8 -17q0 -4 14 -4h160z" />
    <glyph glyph-name="uni00AD" unicode="&#xad;" horiz-adv-x="618" 
d="M549 541q0 -17 -12.5 -27t-28.5 -10h-397q-17 0 -29 10t-12 27v164q0 17 11.5 27.5t29.5 10.5h397q16 0 28.5 -10.5t12.5 -27.5v-164z" />
    <glyph glyph-name="uni00AF" unicode="&#xaf;" horiz-adv-x="1108" 
d="M1174 1635q0 -15 -12.5 -24t-28.5 -9h-1156q-40 0 -40 33v98q0 33 40 33h1156q41 0 41 -33v-98z" />
    <glyph glyph-name="uni00B7" unicode="&#xb7;" horiz-adv-x="561" 
d="M442 653q0 -17 -12 -29t-29 -12h-239q-16 0 -29.5 12.5t-13.5 28.5v258q0 17 13 28t30 11h239q18 0 29.5 -10.5t11.5 -28.5v-258z" />
    <glyph glyph-name="uni2044" unicode="&#x2044;" horiz-adv-x="758" 
d="M950 1505q0 -13 -8 -24l-852 -1438q-15 -26 -23.5 -34.5t-23.5 -8.5h-211q-22 0 -22 23q0 8 6 20l852 1438q14 23 24.5 32t26.5 9h211q20 0 20 -17z" />
    <glyph glyph-name="currency" unicode="&#xa4;" 
d="M1194 1141q0 -17 -14 -31l-176 -174q47 -86 47 -176q0 -97 -50 -185l173 -172q14 -14 14 -30q0 -13 -10 -23l-117 -117q-10 -10 -23 -10q-17 0 -30 15l-177 178q-76 -43 -167 -43q-96 0 -177 45l-174 -174q-17 -17 -32 -17q-12 0 -21 11l-117 116q-10 10 -10 25t14 31
l175 172q-48 85 -48 178t41 168l-174 176q-14 14 -14 31q0 12 10 22l117 117q10 10 22 10q17 0 31 -14l170 -170q83 47 187 47q95 0 176 -45l174 174q14 14 30 14q13 0 23 -10l117 -117q10 -10 10 -22zM840 766q0 72 -50.5 121t-121.5 49q-47 0 -87 -22.5t-63.5 -63
t-23.5 -84.5q0 -70 52 -121t122 -51t121 50t51 122z" />
    </font>
</defs>
</svg>
